<?xml version="1.0" standalone="no"?>
<!DOCTYPE svg PUBLIC "-//W3C//DTD SVG 20010904//EN"
 "http://www.w3.org/TR/2001/REC-SVG-20010904/DTD/svg10.dtd">
<svg version="1.0" xmlns="http://www.w3.org/2000/svg"
 width="300.000000pt" height="300.000000pt" viewBox="0 0 300.000000 300.000000"
 preserveAspectRatio="xMidYMid meet">

<g transform="translate(0.000000,300.000000) scale(0.100000,-0.100000)"
fill="#000000" stroke="none">
<path d="M615 2751 c-83 -21 -148 -84 -165 -163 -5 -27 -10 -108 -10 -181 0
-111 11 -210 70 -617 52 -363 75 -495 90 -524 18 -35 18 -41 6 -55 -8 -9 -58
-106 -111 -215 l-95 -198 0 -234 c0 -268 3 -281 70 -308 36 -14 140 -16 1031
-16 1074 0 1032 -2 1077 55 21 27 22 37 22 265 l0 237 -81 174 c-44 96 -91
193 -105 216 -23 40 -24 44 -9 67 16 25 25 72 117 666 45 293 51 354 51 485 0
89 -5 168 -12 195 -17 61 -91 133 -154 148 -52 13 -1739 16 -1792 3z m1846
-420 c16 -16 29 -40 29 -52 0 -13 -31 -231 -70 -485 -38 -255 -70 -468 -70
-474 0 -6 -11 -22 -25 -35 -23 -24 -28 -25 -176 -25 -134 0 -150 -2 -145 -16
3 -9 6 -27 6 -40 l0 -24 153 0 c147 0 154 -1 173 -22 20 -22 184 -368 184
-387 0 -5 -7 -12 -16 -15 -26 -10 -1997 -6 -2013 4 -12 7 -9 21 19 82 78 170
152 314 167 326 12 8 62 12 165 12 81 0 148 4 148 9 0 5 3 23 6 40 l7 31 -142
0 c-144 0 -173 6 -190 39 -6 9 -42 234 -80 499 -51 348 -68 488 -62 506 23 59
-31 56 979 56 l924 0 29 -29z"/>
<path d="M1482 1998 c2 -66 6 -83 18 -83 12 0 16 17 18 83 3 77 2 82 -18 82
-20 0 -21 -5 -18 -82z"/>
<path d="M1350 2017 c0 -16 72 -87 88 -87 23 0 12 26 -26 63 -39 38 -62 47
-62 24z"/>
<path d="M1587 1992 c-38 -39 -47 -62 -24 -62 16 0 87 72 87 88 0 23 -26 12
-63 -26z"/>
<path d="M1331 1836 c-12 -18 -21 -36 -21 -40 0 -3 92 -6 205 -6 113 0 205 2
205 5 0 3 -10 21 -22 40 l-23 35 -162 0 -161 0 -21 -34z"/>
<path d="M1320 1724 c0 -4 25 -36 57 -71 44 -51 53 -67 42 -74 -8 -5 -21 -9
-29 -9 -61 -1 -206 -111 -254 -194 -59 -101 -72 -233 -33 -346 20 -60 24 -65
54 -68 l32 -3 -27 58 c-23 50 -27 71 -27 148 0 77 4 99 27 147 35 76 104 148
175 183 48 24 74 29 148 33 127 6 187 -18 277 -108 59 -58 69 -75 88 -139 29
-95 25 -192 -12 -268 l-25 -53 29 0 c25 0 32 7 51 47 18 40 22 66 22 158 0
105 -2 114 -33 178 -55 111 -145 187 -275 231 -16 5 -10 16 42 73 34 37 61 71
61 75 0 5 -88 8 -195 8 -107 0 -195 -3 -195 -6z"/>
</g>
</svg>
