<svg width="294" height="336" viewBox="0 0 294 336" fill="none" xmlns="http://www.w3.org/2000/svg">
<path d="M294 336H147.132C290.332 336 284.732 336.266 290.732 328.666C293.532 325.066 293.665 323.732 293.665 293.333V261.733L282.865 238.533C276.999 225.733 270.732 212.8 268.865 209.733C265.799 204.4 265.665 203.866 267.665 200.8C269.798 197.466 270.999 191.2 283.266 112C289.266 72.9333 290.065 64.7997 290.065 47.333C290.065 35.4664 289.399 24.933 288.466 21.333C286.199 13.1997 276.332 3.59961 267.932 1.59961C260.99 -0.133615 36.07 -0.53304 28.999 1.2002C17.9324 4.0002 9.26569 12.4003 6.99902 22.9336C6.33238 26.534 5.66504 37.3334 5.66504 47.0664C5.66504 61.8664 7.13237 75.0664 14.999 129.333C21.9324 177.733 24.999 195.334 26.999 199.2C29.3988 203.866 29.3987 204.667 27.7988 206.533C26.7322 207.733 20.0657 220.667 12.999 235.2L0.332031 261.6V292.8C0.332031 328.533 0.732073 330.266 9.66504 333.866C14.465 335.733 28.332 336 147.132 336H0V0H294V336ZM148.065 53.333H271.266L275.132 57.2002C277.265 59.3334 278.999 62.5327 278.999 64.1328C278.999 65.8661 274.865 94.9331 269.665 128.8C264.598 162.8 260.332 191.2 260.332 192C260.332 192.8 258.865 194.933 256.999 196.666C253.932 199.866 253.265 200 233.532 200C215.667 200 213.532 200.267 214.198 202.133C214.598 203.333 214.999 205.733 214.999 207.467V210.666H235.398C254.998 210.666 255.932 210.8 258.466 213.6C261.133 216.534 282.999 262.667 282.999 265.2C282.999 265.867 282.065 266.8 280.865 267.2C277.386 268.533 14.6083 267.999 12.4658 266.666C10.8658 265.733 11.2657 263.867 14.999 255.733C25.399 233.067 35.2656 213.867 37.2656 212.267C38.8659 211.2 45.5327 210.666 59.2656 210.666C70.0639 210.666 78.9963 210.133 78.999 209.467C78.999 208.8 79.3988 206.399 79.7988 204.133L80.7324 200H61.7988C42.5991 200 38.7325 199.2 36.4658 194.8C35.6658 193.6 30.8655 163.6 25.7988 128.267C18.9988 81.8666 16.7322 63.1998 17.5322 60.7998C20.5988 52.9332 13.3992 53.333 148.065 53.333ZM149 137.333C134.733 137.333 123 137.733 123 138.133C123 138.666 126.333 142.933 130.6 147.6C136.466 154.4 137.666 156.532 136.199 157.466C135.133 158.132 133.4 158.666 132.333 158.666C124.2 158.799 104.866 173.467 98.4658 184.533C90.5994 198 88.8665 215.6 94.0664 230.666C96.7331 238.666 97.2666 239.332 101.267 239.732L105.533 240.133L101.933 232.399C98.866 225.733 98.333 222.933 98.333 212.666C98.333 202.4 98.8661 199.466 101.933 193.066C106.599 182.933 115.8 173.333 125.267 168.666C131.666 165.466 135.133 164.8 145 164.267C161.933 163.467 169.933 166.666 181.933 178.666C189.799 186.399 191.133 188.666 193.666 197.199C197.533 209.866 197 222.799 192.066 232.933L188.733 239.999H192.6C195.933 239.999 196.866 239.066 199.399 233.732C201.799 228.399 202.333 224.932 202.333 212.666C202.333 198.666 202.066 197.466 197.933 188.933C190.599 174.133 178.6 163.999 161.267 158.133C159.133 157.466 159.933 155.999 166.866 148.399C171.4 143.466 175 138.933 175 138.399C174.999 137.733 163.266 137.333 149 137.333ZM124.464 123.199C122.864 125.599 121.664 128 121.664 128.533C121.668 128.933 133.933 129.333 148.997 129.333C164.064 129.333 176.331 129.066 176.331 128.666C176.33 128.265 174.997 125.866 173.397 123.333L170.331 118.666H127.264L124.464 123.199ZM146.998 90.666C144.332 90.6661 144.199 91.3335 144.599 101.6C144.865 110.399 145.398 112.666 146.998 112.666C148.598 112.666 149.132 110.399 149.398 101.6C149.798 91.3329 149.665 90.666 146.998 90.666ZM135.267 102.266C130.067 97.1991 127 95.9998 127 99.0664C127.001 101.201 136.6 110.666 138.733 110.666C141.8 110.666 140.333 107.199 135.267 102.266ZM166.999 98.9326C166.999 95.866 163.532 97.3328 158.599 102.399C153.532 107.599 152.332 110.666 155.398 110.666C157.532 110.666 166.999 101.066 166.999 98.9326Z" fill="black"/>
</svg>
