<svg width="148" height="228" viewBox="0 0 148 228" fill="none" xmlns="http://www.w3.org/2000/svg">
<mask id="mask0_153_163" style="mask-type:alpha" maskUnits="userSpaceOnUse" x="0" y="0" width="148" height="228">
<rect width="148" height="228" transform="matrix(1 0 0 -1 0 228)" fill="#D9D9D9"/>
</mask>
<g mask="url(#mask0_153_163)">
<path fill-rule="evenodd" clip-rule="evenodd" d="M58.9245 3.10962C53.6951 4.81967 47.8481 7.25643 45.9315 8.52281C44.0149 9.79016 41.5978 10.8264 40.5619 10.8264C38.5102 10.8264 31.9016 17.2973 31.9016 19.3051C31.9016 19.9868 30.1711 22.2208 28.0573 24.2697C25.6853 26.5674 23.5355 29.9885 22.4456 33.199C20.8752 37.8277 20.8172 39.288 21.9251 46.4063C24.9097 65.588 26.9274 70.1462 37.1711 80.8384C40.8762 84.7051 50.079 101.757 51.3281 107.069C51.8685 109.371 51.5653 109.927 49.3073 110.767C46.8483 111.682 46.6931 112.073 47.2426 115.992C48.1203 122.258 46.3719 126.86 40.8462 132.831C38.1279 135.768 35.905 138.553 35.905 139.021C35.905 139.489 33.9093 142.388 31.4692 145.463C26.9194 151.196 16.7568 170.505 10.5465 185.215C3.90887 200.936 -0.527892 221.406 0.0505984 233.642L0.374873 240.498L74.1874 240.748L148 241V233.298C148 226.155 147.674 224.946 143.496 216.609C141.019 211.665 138.992 207.435 138.992 207.208C138.992 206.982 136.736 202.961 133.979 198.271C131.221 193.582 128.758 188.604 128.504 187.208C128.043 184.665 123.497 180.278 121.314 180.269C120.675 180.266 118.953 177.068 117.49 173.163C116.027 169.257 114.382 165.181 113.833 164.104C110.959 158.455 108.777 155.19 105.995 152.382L102.915 149.272L105.009 140.643C106.161 135.897 107.985 130.42 109.062 128.471C110.605 125.681 110.888 123.86 110.394 119.902L109.767 114.876L116.879 114.483C126.002 113.978 127.96 112.282 129.137 103.86C129.599 100.552 130.642 96.9163 131.455 95.7802C132.298 94.604 132.683 92.7401 132.352 91.4473C132.018 90.1506 132.222 89.179 132.824 89.179C133.404 89.179 134.016 87.0997 134.183 84.5582C134.462 80.3428 134.862 79.6915 138.742 77.148C144.05 73.6672 144.522 70.0424 140.138 66.4323C138.566 65.1385 135.654 61.7654 133.665 58.9359C130.648 54.6441 130.241 53.4923 131.208 51.9772C132.095 50.5884 132.077 49.8196 131.133 48.7069C130.454 47.9068 130.169 46.1997 130.498 44.9137C130.936 43.2066 130.272 41.5582 128.039 38.809C126.357 36.7376 124.98 34.4899 124.98 33.815C124.98 33.1392 124.105 30.6731 123.035 28.3343L121.088 24.0807L124.536 21.3002C128.483 18.1151 129.061 14.3836 126.31 9.8264C122.884 4.14975 109.594 1.10085 85.478 0.455425L68.4326 0L58.9245 3.10962Z" fill="black"/>
</g>
</svg>
