<svg width="148" height="228" viewBox="0 0 148 228" fill="none" xmlns="http://www.w3.org/2000/svg">
<path d="M148 228H147.74C147.369 224.732 146.323 222.374 143.434 216.608C140.957 211.664 138.93 207.434 138.93 207.208C138.927 206.977 136.672 202.958 133.916 198.271C131.158 193.582 128.695 188.604 128.441 187.208C127.98 184.666 123.435 180.278 121.252 180.269C120.612 180.266 118.891 177.068 117.428 173.163C115.964 169.257 114.319 165.181 113.771 164.104C110.896 158.454 108.714 155.19 105.933 152.382L102.853 149.271L104.946 140.643C106.098 135.896 107.922 130.42 108.999 128.471C110.542 125.68 110.824 123.86 110.331 119.902L109.704 114.876L116.815 114.483C125.939 113.978 127.897 112.282 129.074 103.86C129.537 100.552 130.58 96.9164 131.393 95.7803C132.235 94.604 132.62 92.74 132.289 91.4473C131.956 90.1506 132.159 89.1787 132.762 89.1787C133.341 89.178 133.953 87.0995 134.12 84.5586C134.398 80.3432 134.799 79.6919 138.68 77.1484C143.987 73.6676 144.459 70.0427 140.075 66.4326C138.503 65.1388 135.591 61.765 133.603 58.9355C130.586 54.6438 130.179 53.4927 131.146 51.9775C132.032 50.5888 132.014 49.8195 131.07 48.707C130.392 47.9069 130.106 46.2 130.436 44.9141C130.873 43.207 130.209 41.5578 127.977 38.8086C126.295 36.7376 124.918 34.4907 124.918 33.8154C124.918 33.1396 124.042 30.6728 122.972 28.334L121.025 24.0811L124.474 21.2998C128.421 18.1148 128.998 14.3832 126.247 9.82617C122.821 4.14958 109.531 1.1005 85.415 0.455078L68.3701 0L58.8613 3.10938C53.6324 4.81929 47.7862 7.25603 45.8691 8.52246C43.9525 9.78981 41.5349 10.8262 40.499 10.8262C38.4472 10.8266 31.8398 17.2965 31.8389 19.3047C31.8389 19.9864 30.1079 22.2206 27.9941 24.2695C25.6222 26.5672 23.4727 29.9888 22.3828 33.1992C20.8126 37.8277 20.7544 39.2881 21.8623 46.4062C24.8468 65.5878 26.8649 70.1459 37.1084 80.8379C40.8135 84.7046 50.0166 101.757 51.2656 107.069C51.8059 109.371 51.5019 109.927 49.2441 110.768C46.7856 111.682 46.6303 112.073 47.1797 115.992C48.0574 122.257 46.3089 126.86 40.7832 132.831C38.0649 135.767 35.8418 138.553 35.8418 139.021C35.8407 139.491 33.8456 142.389 31.4062 145.463C26.8563 151.197 16.6936 170.505 10.4834 185.215C4.78347 198.715 0.70989 215.718 0.0380859 228H0V0H148V228Z" fill="white"/>
</svg>
