<svg width="148" height="228" viewBox="0 0 148 228" fill="none" xmlns="http://www.w3.org/2000/svg">
<mask id="mask0_153_164" style="mask-type:alpha" maskUnits="userSpaceOnUse" x="0" y="0" width="148" height="228">
<rect width="148" height="228" transform="matrix(1 0 0 -1 0 228)" fill="#D9D9D9"/>
</mask>
<g mask="url(#mask0_153_164)">
<path fill-rule="evenodd" clip-rule="evenodd" d="M66.843 1.61517C62.631 2.55017 57.588 4.30217 55.635 5.50917C51.715 7.93117 47 13.0792 47 14.9372C47 15.5922 45.88 17.7772 44.51 19.7922C40.792 25.2642 34.375 40.4972 33.742 45.3562C33.287 48.8452 31.929 51.0262 26.266 57.3562C22.46 61.6112 19.041 65.6142 18.67 66.2522C17.505 68.2502 19.111 70.6112 22.635 72.0842C26.68 73.7742 27.711 75.8952 26.022 79.0512C25.156 80.6692 25.083 81.9182 25.782 83.1682C26.469 84.3942 26.436 85.5222 25.679 86.7342C24.79 88.1572 25.032 88.9982 26.904 90.9902C28.942 93.1592 29.1 93.8652 28.157 96.5712C27.361 98.8552 27.395 100.645 28.289 103.381C29.817 108.064 36.162 111.592 43.057 111.592C48.812 111.592 49.897 112.755 53.312 122.592C60.15 142.288 60.03 149.364 52.752 155.456C45.864 161.221 38.413 169.42 30.363 180.092C26.214 185.592 19.275 193.507 14.944 197.68C4.23 208.002 0 218.04 0 233.141V240.592H75.981H151.962L152.611 238.007C152.968 236.585 152.952 227.697 152.577 218.257C152.201 208.816 151.701 195.908 151.465 189.572C150.985 176.719 148.076 158.287 144.908 148.029C143.513 143.514 142.825 138.589 142.833 133.182C142.849 121.817 141.171 106.317 139.382 101.318C138.321 98.3532 137.895 93.4272 137.954 84.8142C138.009 76.7022 137.351 68.5102 136.013 60.6702C129.966 25.2242 122.916 11.8432 106 3.70218C98.719 0.198175 98.149 0.0891736 86.5 0.00417356C78.577 -0.0538264 71.898 0.493174 66.843 1.61517Z" fill="black"/>
</g>
</svg>
