<svg width="148" height="228" viewBox="0 0 148 228" fill="none" xmlns="http://www.w3.org/2000/svg">
<path d="M148 160.973C147.059 156.063 145.999 151.562 144.908 148.029C143.513 143.514 142.825 138.59 142.833 133.183C142.849 121.818 141.171 106.317 139.382 101.318C138.321 98.3533 137.895 93.4273 137.954 84.8145C138.009 76.7026 137.351 68.5108 136.013 60.6709C129.966 25.2249 122.916 11.8431 106 3.70215C98.7191 0.198203 98.1489 0.0898824 86.5 0.00488281C78.577 -0.0531172 71.8978 0.493234 66.8428 1.61523C62.6308 2.55024 57.5877 4.30278 55.6348 5.50977C51.7148 7.93185 47 13.0795 47 14.9375C46.9999 15.5926 45.8797 17.7771 44.5098 19.792C40.7918 25.264 34.3752 40.4974 33.7422 45.3564C33.2872 48.8454 31.9286 51.0264 26.2656 57.3564C22.4597 61.6114 19.0409 65.6149 18.6699 66.2529C17.5054 68.2508 19.1113 70.6111 22.6348 72.084C26.6798 73.774 27.7115 75.8958 26.0225 79.0518C25.1565 80.6696 25.0834 81.9181 25.7822 83.168C26.4692 84.394 26.4357 85.5224 25.6787 86.7344C24.7898 88.1573 25.0323 88.9983 26.9043 90.9902C28.9422 93.1591 29.1001 93.8655 28.1572 96.5713C27.3612 98.8553 27.3951 100.646 28.2891 103.382C29.8173 108.065 36.162 111.593 43.0566 111.593C48.8116 111.593 49.8965 112.756 53.3115 122.593C60.1494 142.289 60.0298 149.364 52.752 155.456C45.864 161.221 38.4133 169.421 30.3633 180.093C26.2143 185.593 19.2753 193.508 14.9443 197.681C5.49422 206.785 1.09055 215.668 0.182617 228H0V0H148V160.973Z" fill="white"/>
</svg>
