<svg width="71" height="184" viewBox="0 0 71 184" fill="none" xmlns="http://www.w3.org/2000/svg">
<mask id="path-1-inside-1_176_122" fill="white">
<path d="M23.1113 0V47.1406H32V0H56C56 0 55.125 52.3712 55.125 58.6328C55.125 62.533 52.5833 66.8418 47.25 66.8418H40.9707V100C48.822 100.018 51.0027 100.86 51 104V165.5H70.5V183.5H25V110H20.0244C15.7062 110.013 15.0349 108.579 15 105L14.8232 66.8418C9.09286 66.8418 16.3732 66.8418 8.75 66.8418C3.86112 66.8418 5.26012e-06 64.1402 0 58.6328V0H23.1113ZM30.5371 94C25.2261 96.3495 28.659 104.765 30.2363 105.926C30.2039 105.936 26.0769 107.26 26.002 113.718C25.9266 117.597 27.8411 119.531 27.8574 119.548C29.9744 121.588 32.7614 121.482 32.7939 121.48C34.9246 121.48 36.8547 121.272 39.2861 118.923C39.5991 118.923 40.7959 121.109 40.8154 121.124H46.0547L42.0938 115.295C43.6465 112.161 44.084 110.309 44.2744 106.878H40.1885C40.0859 108.655 40.0405 109.673 39.4365 111.577L36.1289 106.878C42.2702 103.726 40.4654 94 37.1816 94H30.5371ZM32.9004 109.026L37.2627 115.153L37.5244 115.521L37.1846 115.818L36.8545 115.443L37.1846 115.819L37.1826 115.82C37.1819 115.821 37.1807 115.822 37.1797 115.823C37.1772 115.825 37.174 115.829 37.1699 115.832C37.1613 115.839 37.1483 115.85 37.1328 115.863C37.1016 115.889 37.0567 115.926 37 115.971C36.8859 116.061 36.7217 116.186 36.5195 116.324C36.1178 116.599 35.5509 116.941 34.9102 117.183C34.2732 117.423 33.5231 117.581 32.7754 117.44C32.0066 117.296 31.2946 116.846 30.7432 115.979C29.6462 114.255 30.046 112.455 30.6533 111.163C30.9589 110.513 31.3266 109.968 31.6162 109.587C31.7615 109.396 31.8887 109.243 31.9805 109.138C32.0262 109.085 32.0635 109.044 32.0898 109.016C32.1029 109.001 32.1136 108.99 32.1211 108.982C32.1247 108.979 32.1277 108.975 32.1299 108.973L32.1338 108.969H32.1348L32.5527 108.537L32.9004 109.026ZM35.1006 98.0146C35.1073 98.0194 35.6394 98.3977 35.8271 98.7881C35.8271 99.71 35.7022 99.978 35.7021 100.603C35.4464 102.051 33.8961 103.612 33.8721 103.636C33.8529 103.613 32.4843 101.967 32.2676 100.603C32.157 99.9064 32.1172 99.5613 32.2676 98.7881C32.443 98.4104 32.9351 98.0219 32.9443 98.0146H35.1006Z"/>
</mask>
<path d="M23.1113 0H24.1113V-1H23.1113V0ZM23.1113 47.1406H22.1113V48.1406H23.1113V47.1406ZM32 47.1406V48.1406H33V47.1406H32ZM32 0V-1H31V0H32ZM56 0L56.9999 0.0167048L57.0168 -1H56V0ZM55.125 58.6328L54.125 58.6328V58.6328H55.125ZM47.25 66.8418V67.8418H47.25L47.25 66.8418ZM40.9707 66.8418V65.8418H39.9707V66.8418H40.9707ZM40.9707 100H39.9707V100.998L40.9685 101L40.9707 100ZM51 104L50 103.999V104H51ZM51 165.5H50V166.5H51V165.5ZM70.5 165.5H71.5V164.5H70.5V165.5ZM70.5 183.5V184.5H71.5V183.5H70.5ZM25 183.5H24V184.5H25V183.5ZM25 110H26V109H25V110ZM20.0244 110V109L20.0215 109L20.0244 110ZM15 105L14 105.005L14 105.01L15 105ZM14.8232 66.8418L15.8232 66.8372L15.8186 65.8418H14.8232V66.8418ZM8.75 66.8418V67.8418V66.8418ZM0 58.6328H-1V58.6328H0ZM0 0V-1H-1V0H0ZM30.5371 94V93H30.3258L30.1326 93.0855L30.5371 94ZM30.2363 105.926L30.5392 106.879L32.4104 106.284L30.8291 105.12L30.2363 105.926ZM26.002 113.718L27.0018 113.737L27.0019 113.729L26.002 113.718ZM27.8574 119.548L27.1482 120.253L27.1558 120.26L27.1636 120.268L27.8574 119.548ZM32.7939 121.48V120.48H32.7739L32.7538 120.481L32.7939 121.48ZM39.2861 118.923V117.923H38.8819L38.5913 118.204L39.2861 118.923ZM40.8154 121.124L40.2157 121.924L40.4823 122.124H40.8154V121.124ZM46.0547 121.124V122.124H47.9432L46.8818 120.562L46.0547 121.124ZM42.0938 115.295L41.1977 114.851L40.9385 115.374L41.2666 115.857L42.0938 115.295ZM44.2744 106.878L45.2729 106.933L45.3315 105.878H44.2744V106.878ZM40.1885 106.878V105.878H39.2446L39.1901 106.82L40.1885 106.878ZM39.4365 111.577L38.6188 112.153L39.7799 113.802L40.3897 111.879L39.4365 111.577ZM36.1289 106.878L35.6722 105.988L34.6494 106.513L35.3112 107.454L36.1289 106.878ZM32.9004 109.026L32.0852 109.606L32.0858 109.606L32.9004 109.026ZM37.2627 115.153L36.4481 115.733L36.4484 115.734L37.2627 115.153ZM37.5244 115.521L38.1835 116.273L38.8636 115.676L38.3387 114.94L37.5244 115.521ZM37.1846 115.818L36.4339 116.479L37.0932 117.228L37.8437 116.57L37.1846 115.818ZM36.8545 115.443L37.6051 114.783L36.103 116.103L36.8545 115.443ZM37.1846 115.819L37.6318 116.714L38.7915 116.134L37.9361 115.16L37.1846 115.819ZM37.1826 115.82L36.7354 114.926L36.6072 114.99L36.5021 115.088L37.1826 115.82ZM37.1797 115.823L36.5243 115.068L36.5219 115.07L37.1797 115.823ZM37.1699 115.832L37.8209 116.591L37.821 116.591L37.1699 115.832ZM37.1328 115.863L37.7744 116.63L37.7745 116.63L37.1328 115.863ZM37 115.971L37.6205 116.755L37.6206 116.755L37 115.971ZM36.5195 116.324L37.0845 117.149L37.0846 117.149L36.5195 116.324ZM34.9102 117.183L35.2634 118.118L35.2634 118.118L34.9102 117.183ZM32.7754 117.44L32.5907 118.423L32.5909 118.423L32.7754 117.44ZM30.7432 115.979L29.8994 116.516L29.8995 116.516L30.7432 115.979ZM30.6533 111.163L29.7484 110.738L29.7484 110.738L30.6533 111.163ZM31.6162 109.587L30.8199 108.982L30.8199 108.982L31.6162 109.587ZM31.9805 109.138L31.2269 108.48L31.2269 108.48L31.9805 109.138ZM32.0898 109.016L31.3549 108.337L31.3549 108.338L32.0898 109.016ZM32.1211 108.982L32.8473 109.67L32.8473 109.67L32.1211 108.982ZM32.1299 108.973L31.4228 108.266L31.4136 108.275L31.4047 108.284L32.1299 108.973ZM32.1338 108.969V107.969H31.7196L31.4267 108.262L32.1338 108.969ZM32.1348 108.969V109.969H32.5584L32.8532 109.664L32.1348 108.969ZM32.5527 108.537L33.3679 107.958L32.6711 106.977L31.8343 107.841L32.5527 108.537ZM35.1006 98.0146L35.6785 97.1986L35.4188 97.0146H35.1006V98.0146ZM35.8271 98.7881H36.8271V98.5601L36.7283 98.3547L35.8271 98.7881ZM35.7021 100.603L36.6869 100.776L36.7021 100.69V100.603L35.7021 100.603ZM33.8721 103.636L33.1039 104.276L33.8064 105.119L34.5806 104.341L33.8721 103.636ZM32.2676 100.603L31.28 100.759V100.759L32.2676 100.603ZM32.2676 98.7881L31.3606 98.3669L31.3093 98.4775L31.286 98.5972L32.2676 98.7881ZM32.9443 98.0146V97.0146H32.598L32.3258 97.2289L32.9443 98.0146ZM23.1113 0H22.1113V47.1406H23.1113H24.1113V0H23.1113ZM23.1113 47.1406V48.1406H32V47.1406V46.1406H23.1113V47.1406ZM32 47.1406H33V0H32H31V47.1406H32ZM32 0V1H56V0V-1H32V0ZM56 0C55.0001 -0.0167048 55.0001 -0.016504 55.0001 -0.0161042C55.0001 -0.0157051 55.0001 -0.0151062 55.0001 -0.0143094C55.0001 -0.0127157 55 -0.0103287 55 -0.00715442C54.9999 -0.00080577 54.9997 0.00869243 54.9995 0.0212932C54.9991 0.0464948 54.9985 0.0841067 54.9976 0.133753C54.996 0.233046 54.9935 0.380478 54.9903 0.573044C54.9839 0.958174 54.9745 1.52384 54.9625 2.24599C54.9386 3.6903 54.9044 5.76057 54.8634 8.26446C54.7814 13.2722 54.672 20.0145 54.5626 26.9525C54.344 40.8216 54.125 55.4917 54.125 58.6328L55.125 58.6328L56.125 58.6328C56.125 55.5123 56.3435 40.866 56.5624 26.9841C56.6718 20.0466 56.7811 13.3047 56.8632 8.29722C56.9042 5.79347 56.9383 3.72332 56.9623 2.27912C56.9742 1.55702 56.9836 0.991404 56.99 0.606321C56.9932 0.413779 56.9957 0.26637 56.9974 0.167099C56.9982 0.117463 56.9988 0.079862 56.9992 0.0546711C56.9994 0.0420757 56.9996 0.0325828 56.9997 0.0262394C56.9998 0.0230677 56.9998 0.0206834 56.9998 0.0190924C56.9998 0.0182968 56.9998 0.0176999 56.9999 0.0173014C56.9999 0.0169036 56.9999 0.0167048 56 0ZM55.125 58.6328H54.125C54.125 60.3804 53.5526 62.1978 52.4188 63.5602C51.3055 64.8981 49.6177 65.8418 47.25 65.8418L47.25 66.8418L47.25 67.8418C50.2156 67.8418 52.4653 66.6311 53.9562 64.8395C55.4265 63.0726 56.125 60.7854 56.125 58.6328H55.125ZM47.25 66.8418V65.8418H40.9707V66.8418V67.8418H47.25V66.8418ZM40.9707 66.8418H39.9707V100H40.9707H41.9707V66.8418H40.9707ZM40.9707 100L40.9685 101C44.9206 101.009 47.2392 101.234 48.562 101.759C49.1849 102.006 49.5064 102.29 49.691 102.584C49.8824 102.889 50.0006 103.322 50 103.999L51 104L52 104.001C52.0008 103.107 51.8474 102.258 51.3853 101.521C50.9164 100.774 50.2025 100.258 49.2992 99.8994C47.5695 99.2134 44.8722 99.0087 40.9729 99L40.9707 100ZM51 104H50V165.5H51H52V104H51ZM51 165.5V166.5H70.5V165.5V164.5H51V165.5ZM70.5 165.5H69.5V183.5H70.5H71.5V165.5H70.5ZM70.5 183.5V182.5H25V183.5V184.5H70.5V183.5ZM25 183.5H26V110H25H24V183.5H25ZM25 110V109H20.0244V110V111H25V110ZM20.0244 110L20.0215 109C17.8995 109.006 17.0569 108.638 16.6547 108.184C16.2194 107.692 16.0177 106.81 16 104.99L15 105L14 105.01C14.0172 106.768 14.1686 108.393 15.1572 109.51C16.1789 110.664 17.8312 111.006 20.0274 111L20.0244 110ZM15 105L16 104.995L15.8232 66.8372L14.8232 66.8418L13.8233 66.8464L14 105.005L15 105ZM14.8232 66.8418V65.8418C13.3906 65.8418 12.7712 65.8418 12.5288 65.8418C12.4682 65.8418 12.4312 65.8418 12.4109 65.8418C12.4007 65.8418 12.3948 65.8418 12.3921 65.8418C12.3915 65.8418 12.391 65.8418 12.3908 65.8418C12.3907 65.8418 12.3906 65.8418 12.3906 65.8418C12.3905 65.8418 13.3905 66.8418 12.3905 67.8418C12.3906 67.8418 12.3906 67.8418 12.3906 67.8418C12.3908 67.8418 12.3918 67.8418 12.3934 67.8418C12.4062 67.8418 12.4587 67.8418 12.4964 67.8418C12.5153 67.8418 12.5305 67.8418 12.5351 67.8418C12.5357 67.8418 12.5361 67.8418 12.5364 67.8418C12.5365 67.8418 12.5366 67.8418 12.5366 67.8418C12.5366 67.8418 13.5366 66.8418 12.5366 65.8418C12.5366 65.8418 12.5366 65.8418 12.5365 65.8418C12.5363 65.8418 12.5352 65.8418 12.5334 65.8418C12.5296 65.8418 12.5223 65.8418 12.5107 65.8418C12.4643 65.8418 12.3487 65.8418 12.1092 65.8418C11.6301 65.8418 10.6558 65.8418 8.75 65.8418V66.8418V67.8418C10.6558 67.8418 11.6301 67.8418 12.1092 67.8418C12.3487 67.8418 12.4643 67.8418 12.5107 67.8418C12.5223 67.8418 12.5296 67.8418 12.5333 67.8418C12.5352 67.8418 12.5363 67.8418 12.5365 67.8418C12.5365 67.8418 12.5365 67.8418 12.5365 67.8418C11.5366 66.8418 12.5365 65.8418 12.5366 65.8418C12.5365 65.8418 12.5365 65.8418 12.5363 65.8418C12.5361 65.8418 12.5357 65.8418 12.5351 65.8418C12.5305 65.8418 12.5153 65.8418 12.4964 65.8418C12.4587 65.8418 12.4062 65.8418 12.3934 65.8418C12.3918 65.8418 12.3908 65.8418 12.3906 65.8418C12.3906 65.8418 12.3905 65.8418 12.3905 65.8418C11.3905 66.8418 12.3905 67.8418 12.3905 67.8418C12.3906 67.8418 12.3907 67.8418 12.3908 67.8418C12.391 67.8418 12.3915 67.8418 12.3921 67.8418C12.3948 67.8418 12.4007 67.8418 12.4109 67.8418C12.4312 67.8418 12.4682 67.8418 12.5288 67.8418C12.7712 67.8418 13.3906 67.8418 14.8232 67.8418V66.8418ZM8.75 66.8418V65.8418C6.47975 65.8418 4.54619 65.2145 3.19595 64.0463C1.86672 62.8963 1 61.1348 1 58.6328H0H-1C-0.999997 61.6382 0.0638498 63.9812 1.8874 65.5588C3.68994 67.1183 6.13138 67.8418 8.75 67.8418V66.8418ZM0 58.6328H1V0H0H-1V58.6328H0ZM0 0V1H23.1113V0V-1H0V0ZM30.5371 94L30.1326 93.0855C28.5346 93.7924 27.5697 94.9809 27.0845 96.3593C26.611 97.7045 26.6046 99.1925 26.8153 100.561C27.0271 101.937 27.4691 103.262 27.9646 104.325C28.2128 104.858 28.4809 105.339 28.7509 105.738C29.0095 106.119 29.3113 106.487 29.6436 106.731L30.2363 105.926L30.8291 105.12C30.767 105.075 30.6165 104.925 30.4063 104.615C30.2073 104.322 29.99 103.937 29.7775 103.481C29.3517 102.567 28.9716 101.423 28.792 100.256C28.6111 99.0821 28.6437 97.9532 28.971 97.0234C29.2866 96.1268 29.8841 95.3823 30.9417 94.9145L30.5371 94ZM30.2363 105.926L29.9335 104.973C29.8149 105.01 28.5997 105.418 27.3981 106.728C26.1779 108.058 25.0422 110.244 25.002 113.706L26.002 113.718L27.0019 113.729C27.0366 110.734 28.0019 109.029 28.872 108.08C29.7608 107.111 30.6253 106.851 30.5392 106.879L30.2363 105.926ZM26.002 113.718L25.0021 113.698C24.9198 117.942 27.0188 120.123 27.1482 120.253L27.8574 119.548L28.5666 118.843C28.6634 118.94 26.9335 117.252 27.0018 113.737L26.002 113.718ZM27.8574 119.548L27.1636 120.268C29.5924 122.608 32.7475 122.483 32.8341 122.48L32.7939 121.48L32.7538 120.481C32.7753 120.48 30.3564 120.567 28.5513 118.828L27.8574 119.548ZM32.7939 121.48V122.48C33.8861 122.48 35.0311 122.43 36.2393 122.033C37.4589 121.632 38.676 120.903 39.981 119.642L39.2861 118.923L38.5913 118.204C37.4649 119.292 36.5012 119.842 35.6152 120.133C34.7178 120.427 33.8324 120.48 32.7939 120.48V121.48ZM39.2861 118.923V119.923C39.0347 119.923 38.8679 119.822 38.8296 119.798C38.7991 119.78 38.7783 119.764 38.7677 119.755C38.7567 119.746 38.7509 119.741 38.7507 119.74C38.7502 119.74 38.7529 119.743 38.7589 119.749C38.7648 119.755 38.7727 119.764 38.7828 119.776C38.8032 119.8 38.8287 119.831 38.8592 119.871C38.9863 120.038 39.1458 120.279 39.3114 120.546C39.4738 120.807 39.6291 121.072 39.7468 121.275C39.8059 121.377 39.8536 121.46 39.8902 121.524C39.9076 121.554 39.9241 121.583 39.937 121.605C39.943 121.615 39.952 121.63 39.9616 121.645C39.9657 121.652 39.9757 121.668 39.9888 121.687C39.9947 121.696 40.0084 121.716 40.0271 121.739C40.0365 121.751 40.0531 121.772 40.0754 121.797C40.0914 121.814 40.1409 121.868 40.2157 121.924L40.8154 121.124L41.4152 120.324C41.4898 120.38 41.5391 120.434 41.5549 120.451C41.5769 120.475 41.5933 120.496 41.6024 120.507C41.6205 120.53 41.6335 120.549 41.6386 120.556C41.6498 120.573 41.6576 120.585 41.6588 120.587C41.6627 120.594 41.6639 120.596 41.6599 120.589C41.6531 120.577 41.6415 120.558 41.6237 120.527C41.5899 120.468 41.5385 120.378 41.4777 120.273C41.3557 120.062 41.1886 119.777 41.0102 119.49C40.8351 119.208 40.6355 118.902 40.4495 118.658C40.359 118.54 40.2496 118.406 40.1311 118.293C40.0725 118.237 39.9872 118.163 39.8798 118.096C39.7895 118.041 39.5767 117.923 39.2861 117.923V118.923ZM40.8154 121.124V122.124H46.0547V121.124V120.124H40.8154V121.124ZM46.0547 121.124L46.8818 120.562L42.9209 114.733L42.0938 115.295L41.2666 115.857L45.2276 121.686L46.0547 121.124ZM42.0938 115.295L42.9898 115.739C44.6075 112.474 45.0756 110.489 45.2729 106.933L44.2744 106.878L43.276 106.823C43.0924 110.13 42.6856 111.848 41.1977 114.851L42.0938 115.295ZM44.2744 106.878V105.878H40.1885V106.878V107.878H44.2744V106.878ZM40.1885 106.878L39.1901 106.82C39.0883 108.583 39.0475 109.496 38.4833 111.275L39.4365 111.577L40.3897 111.879C41.0336 109.849 41.0834 108.726 41.1868 106.936L40.1885 106.878ZM39.4365 111.577L40.2543 111.002L36.9467 106.302L36.1289 106.878L35.3112 107.454L38.6188 112.153L39.4365 111.577ZM36.1289 106.878L36.5856 107.768C40.116 105.955 41.291 102.287 41.1891 99.2236C41.1379 97.6848 40.7667 96.2085 40.1398 95.0825C39.534 93.9943 38.5403 93 37.1816 93V94V95C37.4648 95 37.9281 95.2214 38.3924 96.0553C38.8355 96.8513 39.1474 98.0034 39.1902 99.2901C39.2763 101.878 38.2832 104.648 35.6722 105.988L36.1289 106.878ZM37.1816 94V93H30.5371V94V95H37.1816V94ZM32.9004 109.026L32.0858 109.606L36.4481 115.733L37.2627 115.153L38.0773 114.573L33.715 108.446L32.9004 109.026ZM37.2627 115.153L36.4484 115.734L36.7101 116.101L37.5244 115.521L38.3387 114.94L38.077 114.573L37.2627 115.153ZM37.5244 115.521L36.8653 114.768L36.5255 115.066L37.1846 115.818L37.8437 116.57L38.1835 116.273L37.5244 115.521ZM37.1846 115.818L37.9352 115.158L37.6051 114.783L36.8545 115.443L36.1039 116.104L36.4339 116.479L37.1846 115.818ZM36.8545 115.443L36.103 116.103L36.4331 116.479L37.1846 115.819L37.9361 115.16L37.606 114.784L36.8545 115.443ZM37.1846 115.819L36.7374 114.925L36.7354 114.926L37.1826 115.82L37.6298 116.715L37.6318 116.714L37.1846 115.819ZM37.1826 115.82L36.5021 115.088C36.4906 115.098 36.4814 115.107 36.4756 115.113C36.4696 115.119 36.4649 115.124 36.4622 115.127C36.4595 115.13 36.4574 115.132 36.457 115.132C36.4559 115.133 36.4572 115.132 36.4579 115.131C36.4598 115.129 36.467 115.122 36.4765 115.112C36.4816 115.107 36.488 115.101 36.4957 115.094C36.5034 115.087 36.513 115.078 36.5243 115.068L37.1797 115.823L37.835 116.579C37.8574 116.559 37.8746 116.543 37.8844 116.533C37.8945 116.523 37.9023 116.515 37.9046 116.512C37.9056 116.511 37.9072 116.509 37.9063 116.51C37.9061 116.511 37.9042 116.513 37.9018 116.515C37.8993 116.518 37.8948 116.522 37.889 116.528C37.8834 116.534 37.8745 116.543 37.8631 116.553L37.1826 115.82ZM37.1797 115.823L36.5219 115.07C36.517 115.074 36.5129 115.078 36.51 115.081C36.507 115.083 36.5045 115.086 36.5029 115.087C36.5013 115.088 36.5 115.09 36.4995 115.09C36.4987 115.091 36.499 115.091 36.4991 115.091C36.4999 115.09 36.5079 115.082 36.5188 115.073L37.1699 115.832L37.821 116.591C37.836 116.578 37.8477 116.567 37.8517 116.564C37.8522 116.563 37.8527 116.563 37.853 116.563C37.8532 116.562 37.8533 116.562 37.8534 116.562C37.8535 116.562 37.8536 116.562 37.8536 116.562C37.8539 116.562 37.8533 116.562 37.8525 116.563C37.8516 116.564 37.8498 116.565 37.8475 116.568C37.8452 116.57 37.8417 116.573 37.8375 116.576L37.1797 115.823ZM37.1699 115.832L36.519 115.073C36.5159 115.076 36.5081 115.082 36.4911 115.096L37.1328 115.863L37.7745 116.63C37.7886 116.618 37.8066 116.603 37.8209 116.591L37.1699 115.832ZM37.1328 115.863L36.4912 115.096C36.4693 115.115 36.4318 115.145 36.3794 115.187L37 115.971L37.6206 116.755C37.6815 116.707 37.734 116.664 37.7744 116.63L37.1328 115.863ZM37 115.971L36.3795 115.187C36.2797 115.265 36.1342 115.376 35.9545 115.499L36.5195 116.324L37.0846 117.149C37.3092 116.995 37.4921 116.857 37.6205 116.755L37 115.971ZM36.5195 116.324L35.9545 115.499C35.5907 115.748 35.0967 116.043 34.5569 116.247L34.9102 117.183L35.2634 118.118C36.0051 117.838 36.6449 117.45 37.0845 117.149L36.5195 116.324ZM34.9102 117.183L34.5569 116.247C34.0128 116.453 33.4596 116.551 32.9598 116.458L32.7754 117.44L32.5909 118.423C33.5866 118.61 34.5335 118.394 35.2634 118.118L34.9102 117.183ZM32.7754 117.44L32.96 116.458C32.482 116.368 32.0003 116.092 31.5868 115.443L30.7432 115.979L29.8995 116.516C30.5889 117.6 31.5313 118.224 32.5907 118.423L32.7754 117.44ZM30.7432 115.979L31.5869 115.443C30.7547 114.135 31.0183 112.737 31.5583 111.589L30.6533 111.163L29.7484 110.738C29.0737 112.172 28.5376 114.376 29.8994 116.516L30.7432 115.979ZM30.6533 111.163L31.5582 111.589C31.8258 111.02 32.1517 110.535 32.4126 110.192L31.6162 109.587L30.8199 108.982C30.5015 109.401 30.0921 110.007 29.7484 110.738L30.6533 111.163ZM31.6162 109.587L32.4125 110.192C32.5432 110.02 32.6561 109.884 32.7341 109.795L31.9805 109.138L31.2269 108.48C31.1214 108.601 30.9798 108.772 30.8199 108.982L31.6162 109.587ZM31.9805 109.138L32.734 109.795C32.7728 109.751 32.8039 109.716 32.8248 109.694L32.0898 109.016L31.3549 108.338C31.3232 108.372 31.2795 108.42 31.2269 108.48L31.9805 109.138ZM32.0898 109.016L32.8248 109.694C32.8276 109.691 32.8306 109.688 32.834 109.684C32.8357 109.682 32.8375 109.68 32.8397 109.678C32.8415 109.676 32.8445 109.673 32.8473 109.67L32.1211 108.982L31.3949 108.295C31.3926 108.297 31.3738 108.317 31.3549 108.337L32.0898 109.016ZM32.1211 108.982L32.8473 109.67C32.8554 109.661 32.8622 109.654 32.8672 109.648C32.8721 109.643 32.8761 109.638 32.8775 109.637C32.8779 109.636 32.8783 109.636 32.8784 109.636C32.8786 109.635 32.8785 109.636 32.8785 109.636C32.8783 109.636 32.8773 109.637 32.8758 109.639C32.8743 109.64 32.8718 109.643 32.8686 109.647C32.8654 109.65 32.8608 109.655 32.8551 109.661L32.1299 108.973L31.4047 108.284C31.3984 108.291 31.3932 108.296 31.3894 108.301C31.3856 108.305 31.3825 108.308 31.3804 108.311C31.3783 108.313 31.3765 108.315 31.3757 108.316C31.3753 108.316 31.3749 108.317 31.3747 108.317C31.3745 108.317 31.3745 108.317 31.3745 108.317C31.3745 108.317 31.3769 108.315 31.3802 108.311C31.3836 108.307 31.3886 108.302 31.3949 108.295L32.1211 108.982ZM32.1299 108.973L32.837 109.68L32.8409 109.676L32.1338 108.969L31.4267 108.262L31.4228 108.266L32.1299 108.973ZM32.1338 108.969V109.969H32.1348V108.969V107.969H32.1338V108.969ZM32.1348 108.969L32.8532 109.664L33.2711 109.233L32.5527 108.537L31.8343 107.841L31.4164 108.273L32.1348 108.969ZM32.5527 108.537L31.7376 109.116L32.0852 109.606L32.9004 109.026L33.7155 108.447L33.3679 107.958L32.5527 108.537ZM35.1006 98.0146L34.5226 98.8307C34.5074 98.8199 34.6056 98.889 34.7209 98.9945C34.778 99.0468 34.8302 99.0997 34.8714 99.1485C34.9156 99.2008 34.9281 99.2259 34.926 99.2215L35.8271 98.7881L36.7283 98.3547C36.5484 97.9806 36.2499 97.6827 36.071 97.519C35.8717 97.3366 35.7005 97.2141 35.6785 97.1986L35.1006 98.0146ZM35.8271 98.7881H34.8271C34.8271 99.1955 34.8003 99.4504 34.7718 99.6876C34.7422 99.9337 34.7022 100.219 34.7021 100.603L35.7021 100.603L36.7021 100.603C36.7021 100.361 36.7246 100.201 36.7575 99.926C36.7915 99.6427 36.8271 99.3026 36.8271 98.7881H35.8271ZM35.7021 100.603L34.7174 100.429C34.631 100.918 34.2954 101.516 33.8948 102.061C33.5131 102.579 33.1575 102.936 33.1635 102.93L33.8721 103.636L34.5806 104.341C34.6107 104.311 35.0422 103.876 35.5057 103.246C35.9501 102.642 36.5175 101.736 36.6869 100.776L35.7021 100.603ZM33.8721 103.636L34.6402 102.995C34.6448 103.001 34.3276 102.62 33.9879 102.086C33.6312 101.525 33.3299 100.916 33.2552 100.446L32.2676 100.603L31.28 100.759C31.4219 101.654 31.9133 102.55 32.2999 103.159C32.7035 103.794 33.0801 104.247 33.1039 104.276L33.8721 103.636ZM32.2676 100.603L33.2552 100.446C33.1546 99.8123 33.1294 99.5948 33.2492 98.979L32.2676 98.7881L31.286 98.5972C31.105 99.5277 31.1594 100 31.28 100.759L32.2676 100.603ZM32.2676 98.7881L33.1745 99.2093C33.1741 99.2102 33.1878 99.1831 33.2302 99.1295C33.2698 99.0794 33.3195 99.0251 33.3733 98.9717C33.4818 98.8638 33.5744 98.7913 33.5628 98.8004L32.9443 98.0146L32.3258 97.2289C32.305 97.2452 32.147 97.3706 31.9633 97.5532C31.798 97.7176 31.5258 98.0113 31.3606 98.3669L32.2676 98.7881ZM32.9443 98.0146V99.0146H35.1006V98.0146V97.0146H32.9443V98.0146Z" fill="#999999" mask="url(#path-1-inside-1_176_122)"/>
</svg>
