<svg width="71" height="184" viewBox="0 0 71 184" fill="none" xmlns="http://www.w3.org/2000/svg">
<path d="M23.1113 0V47.1406H32V0H56C56 0 55.125 52.3712 55.125 58.6328C55.125 62.533 52.5833 66.8418 47.25 66.8418H40.9707V100C48.822 100.018 51.0027 100.86 51 104V165.5H70.5V183.5H25V110H20.0244C15.7062 110.013 15.0349 108.579 15 105L14.8232 66.8418C9.09286 66.8418 16.3732 66.8418 8.75 66.8418C3.86112 66.8418 5.26012e-06 64.1402 0 58.6328V0H23.1113ZM30.5371 94C25.2261 96.3495 28.659 104.765 30.2363 105.926C30.2039 105.936 26.0769 107.26 26.002 113.718C25.9266 117.597 27.8411 119.531 27.8574 119.548C29.9744 121.588 32.7614 121.482 32.7939 121.48C34.9246 121.48 36.8547 121.272 39.2861 118.923C39.5991 118.923 40.7959 121.109 40.8154 121.124H46.0547L42.0938 115.295C43.6465 112.161 44.084 110.309 44.2744 106.878H40.1885C40.0859 108.655 40.0405 109.673 39.4365 111.577L36.1289 106.878C42.2702 103.726 40.4654 94 37.1816 94H30.5371ZM32.9004 109.026L37.2627 115.153L37.5244 115.521L37.1846 115.818L36.8545 115.443L37.1846 115.819L37.1826 115.82C37.1819 115.821 37.1807 115.822 37.1797 115.823C37.1772 115.825 37.174 115.829 37.1699 115.832C37.1613 115.839 37.1483 115.85 37.1328 115.863C37.1016 115.889 37.0567 115.926 37 115.971C36.8859 116.061 36.7217 116.186 36.5195 116.324C36.1178 116.599 35.5509 116.941 34.9102 117.183C34.2732 117.423 33.5231 117.581 32.7754 117.44C32.0066 117.296 31.2946 116.846 30.7432 115.979C29.6462 114.255 30.046 112.455 30.6533 111.163C30.9589 110.513 31.3266 109.968 31.6162 109.587C31.7615 109.396 31.8887 109.243 31.9805 109.138C32.0262 109.085 32.0635 109.044 32.0898 109.016C32.1029 109.001 32.1136 108.99 32.1211 108.982C32.1247 108.979 32.1277 108.975 32.1299 108.973L32.1338 108.969H32.1348L32.5527 108.537L32.9004 109.026ZM35.1006 98.0146C35.1073 98.0194 35.6394 98.3977 35.8271 98.7881C35.8271 99.71 35.7022 99.978 35.7021 100.603C35.4464 102.051 33.8961 103.612 33.8721 103.636C33.8529 103.613 32.4843 101.967 32.2676 100.603C32.157 99.9064 32.1172 99.5613 32.2676 98.7881C32.443 98.4104 32.9351 98.0219 32.9443 98.0146H35.1006Z" fill="#4B4B4B"/>
</svg>
