<svg width="276" height="124" viewBox="0 0 276 124" fill="none" xmlns="http://www.w3.org/2000/svg">
<path d="M78.8105 33C79.0315 33 79.1529 33.0731 79.2666 33.2705C82.7379 39.2272 86.2142 45.1817 89.751 51.1357C89.6565 45.1069 89.5622 39.0784 89.4678 33.0283H96.1357L96.1367 33.0273V61.9775C96.0294 61.9826 95.9173 61.9922 95.8047 61.9922C94.0061 61.9922 92.2083 61.9864 90.4092 62C90.159 62.0017 90.0301 61.9068 89.9023 61.6943C86.5186 56.0514 83.1288 50.4143 79.7402 44.7754C79.6855 44.6848 79.6255 44.598 79.5156 44.4277C79.6117 50.3329 79.7053 56.1438 79.7998 61.9736H73.1367V33.0244C73.2414 33.0177 73.3437 33.0068 73.4473 33.0068C75.2346 33.0068 77.0221 33.0108 78.8105 33Z" fill="white"/>
<path d="M78.8105 33C79.0315 33 79.1529 33.0731 79.2666 33.2705C82.7379 39.2272 86.2142 45.1817 89.751 51.1357C89.6565 45.1069 89.5622 39.0784 89.4678 33.0283H96.1357L96.1367 33.0273V61.9775C96.0294 61.9826 95.9173 61.9922 95.8047 61.9922C94.0061 61.9922 92.2083 61.9864 90.4092 62C90.159 62.0017 90.0301 61.9068 89.9023 61.6943C86.5186 56.0514 83.1288 50.4143 79.7402 44.7754C79.6855 44.6848 79.6255 44.598 79.5156 44.4277C79.6117 50.3329 79.7053 56.1438 79.7998 61.9736H73.1367V33.0244C73.2414 33.0177 73.3437 33.0068 73.4473 33.0068C75.2346 33.0068 77.0221 33.0108 78.8105 33Z" stroke="black"/>
<path d="M121.637 39H110.137V45H117.137V51H110.137V62H103.137V33H121.637V39Z" fill="white"/>
<path d="M121.637 39H110.137V45H117.137V51H110.137V62H103.137V33H121.637V39Z" stroke="black"/>
<path d="M66.1367 62H59.1367V33H66.1367V62Z" fill="white"/>
<path d="M66.1367 62H59.1367V33H66.1367V62Z" stroke="black"/>
<path d="M242.134 110.964C239.959 111.145 238.032 110.641 236.265 109.472C234.056 108.012 232.587 105.882 231.436 103.476C229.978 100.43 229.255 97.201 229.251 93.7882C229.251 91.4545 229.061 89.1479 228.229 86.9503C227.526 85.0896 226.547 83.3937 225.442 81.7727C225.348 81.6373 225.262 81.4957 225.137 81.306C227.809 80.6664 230.262 80.9873 232.482 82.6686C234.072 83.8708 235.16 85.5042 236.025 87.3228C237.686 90.815 238.23 94.4939 237.769 98.3613C237.575 99.9883 237.41 101.626 237.65 103.269C237.979 105.524 239.045 107.389 240.445 109.07C240.968 109.697 241.53 110.287 242.137 110.964H242.134Z" fill="white"/>
<path d="M260.134 96.8938C259.135 97.4369 258.082 97.7653 256.97 97.9113C254.363 98.2575 251.987 97.571 249.804 96.1945C246.302 93.9873 243.667 90.9985 241.962 87.2044C241.76 86.7563 241.543 86.315 241.364 85.8585C240.004 82.4175 237.655 79.8214 234.583 77.8353C234.118 77.5354 233.653 77.2334 233.137 76.901C234.483 75.9121 235.918 75.2798 237.527 75.0731C240.016 74.7508 242.223 75.5169 244.219 76.9355C247.76 79.4526 250.116 82.8209 251.297 87.0117C251.509 87.7619 251.76 88.5019 251.987 89.247C252.858 92.1187 254.682 94.1859 257.315 95.5538C258.226 96.0265 259.17 96.4381 260.137 96.8938H260.134Z" fill="white"/>
<path d="M239.139 69.4718C240.632 67.0909 242.657 65.5614 245.44 65.1246C248.149 64.7 250.666 65.4124 253.111 66.4791C255.663 67.594 257.809 69.2323 259.584 71.3476C260.14 72.0097 260.714 72.6598 261.252 73.338C263.456 76.1113 266.41 77.3531 269.916 77.4618C270.613 77.4839 271.311 77.4658 272.137 77.4658C271.925 77.7073 271.794 77.8724 271.647 78.0213C269.377 80.3197 266.563 81.2293 263.384 80.9516C258.7 80.541 254.675 78.6291 251.254 75.4633C250.98 75.2097 250.694 74.9641 250.435 74.6965C247.52 71.6736 243.855 70.1782 239.744 69.5785C239.56 69.5523 239.378 69.514 239.137 69.4698L239.139 69.4718Z" fill="white"/>
<path d="M275.137 55.3618C275.104 55.4001 275.056 55.4321 275.042 55.4767C273.772 59.2072 271.106 61.3534 267.506 62.3116C263.097 63.4848 258.753 63.142 254.515 61.4088C252.713 60.6721 250.901 59.963 248.949 59.7374C246.539 59.4605 244.182 59.7969 241.84 60.3485C241.627 60.3974 241.414 60.4463 241.137 60.5103C241.637 57.3505 243.095 54.9529 245.803 53.4497C247.971 52.2488 250.333 51.9742 252.752 52.0018C255.722 52.0359 258.499 52.8067 261.112 54.2461C261.891 54.6741 262.679 55.085 263.452 55.5215C266.342 57.1546 269.344 57.3483 272.435 56.2433C273.348 55.9175 274.237 55.5151 275.137 55.1488V55.3639V55.3618Z" fill="white"/>
<path d="M269.103 33.1299C269.328 36.0889 268.417 38.646 266.508 40.8262C264.524 43.0921 261.991 44.4492 259.272 45.4795C257.176 46.2753 254.999 46.6063 252.776 46.6419C250.682 46.6733 248.598 46.7675 246.588 47.4795C244.543 48.2062 242.712 49.3434 240.963 50.644C240.815 50.755 240.663 50.8618 240.47 51C240.022 49.2576 240.02 47.5696 240.498 45.8858C241.12 43.7078 242.424 42.0324 244.196 40.778C247.686 38.3068 251.541 37.1926 255.774 37.5424C257.483 37.6827 259.201 37.8356 260.915 37.8272C262.68 37.8188 264.288 37.1235 265.695 36.0429C266.735 35.2429 267.679 34.311 268.657 33.4251C268.777 33.3162 268.844 33.1424 268.936 33C268.99 33.0439 269.047 33.088 269.101 33.1319L269.103 33.1299Z" fill="white"/>
<path d="M256.004 15.002C256.622 16.0847 256.985 17.2707 257.097 18.5255C257.319 21.0047 256.601 23.2654 255.235 25.3337C252.833 28.9746 249.566 31.6643 245.43 33.3663C245.413 33.3724 245.398 33.3785 245.381 33.3846C240.947 34.9368 237.705 37.8127 235.373 41.6924C235.32 41.7794 235.254 41.8584 235.155 42C235.022 41.83 234.904 41.6944 234.805 41.5467C232.77 38.5332 232.565 35.3882 234.364 32.2573C236.671 28.2379 240.206 25.5664 244.742 24.1194C245.966 23.7288 247.205 23.3848 248.427 22.9901C250.909 22.1907 252.827 20.6951 254.13 18.5235C254.811 17.3861 255.379 16.184 256.004 15V15.002Z" fill="white"/>
<path d="M227.908 36.9979C225.973 35.8454 224.553 34.3437 223.763 32.3078C222.809 29.8513 223.041 27.3906 223.815 24.9467C224.951 21.3607 226.937 18.3195 229.907 15.9262C230.724 15.2679 231.531 14.5928 232.345 13.9302C234.92 11.8355 236.147 9.09081 236.342 5.86453C236.398 4.95386 236.35 4.03897 236.35 3C236.586 3.18088 236.712 3.265 236.823 3.36596C239.167 5.49648 240.242 8.16963 240.129 11.2655C239.956 15.9851 238.101 20.0736 235.041 23.6616C234.49 24.3095 233.904 24.934 233.29 25.525C230.437 28.2613 228.868 31.6285 228.184 35.4416C228.096 35.9274 228.013 36.4132 227.91 37L227.908 36.9979Z" fill="white"/>
<path d="M214.248 0C214.281 0.0330833 214.311 0.0827099 214.349 0.0992515C217.673 1.36679 219.611 3.97835 220.485 7.5204C221.596 12.0178 221.267 16.4407 219.647 20.7602C219.038 22.3834 218.466 24.019 218.231 25.7662C217.882 28.3674 218.216 30.9128 218.758 33.4438C218.793 33.6071 218.824 33.7725 218.87 34C216.951 33.7002 215.314 32.9186 213.966 31.5022C212.408 29.8665 211.641 27.8154 211.335 25.5553C210.787 21.5087 211.366 17.6565 213.183 14.0358C213.511 13.3804 213.815 12.7104 214.165 12.0674C215.939 8.80859 216.03 5.44025 214.778 1.9747C214.541 1.31509 214.295 0.657543 214.053 0C214.119 0 214.183 0 214.248 0Z" fill="white"/>
<path d="M209.134 34.7058C205.818 35.4639 202.957 34.7845 200.595 32.3468C198.566 30.2519 197.485 27.6328 196.777 24.8362C196.196 22.5418 196.268 20.217 196.516 17.8882C196.706 16.1059 196.867 14.3215 196.416 12.5492C195.916 10.5814 194.83 8.9603 193.499 7.49448C193.065 7.01662 192.563 6.60329 192.137 6.0952C193.493 5.87946 194.761 6.04076 195.994 6.47425C198.298 7.28479 200.053 8.82521 201.408 10.8374C203.583 14.0715 204.8 17.6423 204.974 21.578C205.055 23.4127 205.118 25.2657 205.424 27.0702C205.876 29.7519 207.267 32.0343 208.802 34.2179C208.897 34.3529 208.99 34.4901 209.137 34.7037L209.134 34.7058Z" fill="white"/>
<path d="M174.138 19.1473C176.89 17.7167 179.708 17.6195 182.499 18.881C186.643 20.7553 189.61 23.9819 191.736 28.0877C192.161 28.9097 192.535 29.7655 192.87 30.6339C194.25 34.2071 196.566 36.9435 199.643 39.0165C200.127 39.3419 200.611 39.6673 201.137 40.0223C199.677 41.1443 198.094 41.8374 196.307 41.9748C193.829 42.1649 191.673 41.2647 189.726 39.7539C186.267 37.0703 184.005 33.533 182.875 29.1949C182.653 28.3433 182.377 27.5065 182.104 26.6698C181.295 24.1848 179.778 22.2873 177.608 20.9877C176.497 20.3221 175.322 19.7727 174.137 19.1473H174.138Z" fill="white"/>
<path d="M195.137 47.2342C193.97 49.2448 192.432 50.7034 190.34 51.4648C187.875 52.3632 185.442 52.0338 183.034 51.191C179.757 50.0447 176.971 48.1347 174.757 45.3393C174.09 44.4966 173.413 43.6646 172.749 42.8176C170.709 40.2168 168.026 38.9785 164.868 38.7881C163.999 38.7367 163.124 38.7795 162.137 38.7795C162.288 38.5634 162.352 38.4501 162.436 38.3539C164.245 36.2706 166.522 35.1906 169.182 35.0259C172.743 34.8056 175.961 36.0161 179.033 37.7528C180.489 38.5763 181.772 39.6521 182.976 40.8349C183.277 41.1301 183.588 41.4124 183.872 41.7225C186.691 44.8067 190.212 46.4065 194.18 47.061C194.478 47.1102 194.777 47.168 195.137 47.2342Z" fill="white"/>
<path d="M159.139 61.7723C160.238 58.3622 162.455 56.1602 165.637 55.0583C170.093 53.5146 174.555 53.7142 178.981 55.3024C180.693 55.9161 182.394 56.6041 184.15 57.0435C186.85 57.7209 189.552 57.3089 192.224 56.6932C192.491 56.6316 192.755 56.5743 193.137 56.4872C192.978 57.1518 192.879 57.7421 192.693 58.3048C191.486 61.9485 188.891 63.9444 185.319 64.643C181.096 65.4711 177.051 64.8617 173.238 62.7809C172.442 62.3477 171.643 61.9272 170.853 61.4813C167.913 59.8209 164.866 59.6425 161.726 60.7722C160.882 61.0758 160.052 61.4156 159.137 61.768L159.139 61.7723Z" fill="white"/>
<path d="M11.2432 74.665C16.0799 72.7412 21.0277 72.7186 25.8906 74.667L26.3096 74.8438C28.3758 75.7628 30.0538 77.2034 31.4756 78.8887L32.5918 80.2119L31.2051 80.9199C29.8762 82.1088 28.5597 83.2857 27.2383 84.4668L26.4346 85.1855L25.5684 84.5918C25.5577 84.5856 25.5465 84.5795 25.541 84.5762C25.5102 84.5577 25.4401 84.5147 25.3613 84.4521C25.2799 84.3874 25.1645 84.2829 25.0596 84.1299L25.0508 84.1162L25.042 84.1035C23.7522 82.1245 21.9033 81.1536 19.5498 80.9053V80.9043C17.6823 80.7085 15.9013 80.9316 14.2344 81.6914L14.2334 81.6904C11.5047 82.9355 10.2637 85.6028 11.0479 88.457L11.1084 88.6602C11.4351 89.6554 12.0935 90.4162 13.0557 91.0654L13.0566 91.0664C14.5869 92.1002 16.3303 92.7284 18.251 93.3359C20.4805 94.0412 22.8412 94.7872 25.0703 95.9531H25.0713C25.7081 96.2867 26.3354 96.6475 26.9463 97.0381L26.9473 97.0391C30.1468 99.0883 32.0939 102.054 32.4375 106.005C32.8935 111.245 31.274 115.727 26.8535 118.891C25.1624 120.102 23.2932 120.884 21.333 121.34H21.332C16.9281 122.361 12.5335 122.185 8.25195 120.4C6.04975 119.483 4.12324 118.105 2.60156 116.18L2.30273 115.787C2.20769 115.658 2.11445 115.522 2.02539 115.384L2.02734 115.382C1.95452 115.269 1.90668 115.165 1.87793 115.086C1.85031 115.01 1.8345 114.944 1.8291 114.923C1.81319 114.86 1.8199 114.883 1.81543 114.867L1.56934 114.012L2.25 113.437C3.64884 112.257 5.06696 111.062 6.50879 109.846L7.58008 108.942L8.46289 110.031C8.4927 110.068 8.49232 110.065 8.55078 110.135C8.57128 110.159 8.59773 110.192 8.62793 110.231L8.72559 110.367L8.72949 110.371C10.2852 112.73 12.4697 113.955 15.2471 114.297H15.248C17.5188 114.578 19.6174 114.158 21.54 112.938L21.7588 112.793C23.979 111.272 24.8354 108.901 24.1416 106.34C23.867 105.326 23.2855 104.549 22.4014 103.921C21.0962 102.994 19.5939 102.477 17.8545 101.851H17.8535C15.9913 101.179 14.0033 100.525 12.0723 99.7637L11.249 99.4297C9.89093 98.8651 8.62569 98.09 7.48145 97.2842L7.47949 97.2832C4.37917 95.0932 2.87644 91.9385 2.71387 88.2158C2.44096 81.9694 5.48762 76.9543 11.2432 74.665Z" fill="white" stroke="white" stroke-width="2.75"/>
<path d="M86.0047 123.169C85.7697 123.169 85.5937 123.169 85.4177 123.169C81.1097 123.169 76.8017 123.162 72.4967 123.181C72.0377 123.181 71.8427 123.045 71.7047 122.608C71.0287 120.475 70.3077 118.357 69.6327 116.225C69.5067 115.823 69.3237 115.718 68.9187 115.718C63.3747 115.733 57.8317 115.735 52.2877 115.716C51.8307 115.716 51.6787 115.895 51.5427 116.279C50.7957 118.41 50.0277 120.53 49.2667 122.653C49.1667 122.935 49.0977 123.184 48.6767 123.181C44.2307 123.162 39.7827 123.167 35.3367 123.165C35.2987 123.165 35.2587 123.15 35.1367 123.126C35.2037 122.94 35.2587 122.761 35.3247 122.589C41.9757 105.9 48.6287 89.2115 55.2677 72.5182C55.4317 72.1074 55.6387 71.9976 56.0547 72C59.1257 72.0167 62.1967 72.0143 65.2677 72C65.6267 72 65.8337 72.0668 65.9837 72.4418C72.6247 89.2641 79.2777 106.082 85.9287 122.902C85.9507 122.954 85.9617 123.012 86.0077 123.167L86.0047 123.169ZM55.3537 105.325H65.9267C64.1827 99.5377 62.4557 93.8037 60.6767 87.9028C58.8737 93.8017 57.1207 99.5357 55.3537 105.325Z" fill="white"/>
<path d="M219.986 70.0478V121.141C219.786 121.15 219.577 121.167 219.367 121.167C216.016 121.167 212.667 121.157 209.315 121.181C208.849 121.184 208.609 121.017 208.371 120.642C202.067 110.683 195.752 100.734 189.439 90.7818C189.337 90.6218 189.225 90.4688 189.02 90.1678C189.199 100.59 189.375 110.845 189.551 121.134H177.137V70.043C177.332 70.0311 177.522 70.012 177.715 70.012C181.045 70.012 184.375 70.0191 187.707 70C188.119 70 188.345 70.129 188.557 70.4777C195.024 80.9904 201.501 91.4988 208.09 102.007C207.914 91.3668 207.738 80.7277 207.562 70.0502H219.984L219.986 70.0478Z" fill="white"/>
<path d="M89.1367 72H102.055V111.51H117.079V123.104H89.1367V72Z" fill="white"/>
<path d="M138.637 84.236L134.137 73.6504C135.637 72.6504 140.816 70.5599 141.902 70.3944C142.905 70.2414 143.914 70.1314 144.92 70.0024L148.987 70.0024L148.99 70.0004C150.11 70.1604 151.238 70.2914 152.353 70.4834C162.748 72.2594 172.203 81.3324 173.426 92.9054C174.035 98.6754 173.402 104.254 170.521 109.355C165.95 117.444 159.047 122.122 149.751 122.997C145.916 123.358 142.185 123.101 138.637 122.029C136.879 120.905 136.637 121.15 134.137 119.15L138.637 108.841C144.446 113.276 152.761 112.099 157.146 106.778C161.642 101.323 161.832 92.5544 157.536 86.9324C152.505 80.3504 143.652 80.3554 138.838 84.0784C138.77 84.1306 138.703 84.1832 138.637 84.236Z" fill="white"/>
<path d="M155.137 108.914L159.637 119.5C158.137 120.5 152.958 122.59 151.872 122.756C150.869 122.909 149.86 123.019 148.854 123.148H144.786L144.784 123.15C143.663 122.99 142.536 122.859 141.42 122.667C131.025 120.891 121.57 111.818 120.348 100.245C119.739 94.475 120.371 88.8963 123.252 83.7951C127.824 75.7064 134.727 71.0279 144.023 70.1538C147.858 69.7925 151.589 70.0491 155.137 71.1212C156.894 72.2454 157.137 72 159.637 74L155.137 84.3093C149.327 79.8742 141.012 81.0514 136.627 86.372C132.132 91.827 131.941 100.596 136.237 106.218C141.268 112.8 150.122 112.795 154.936 109.072C155.003 109.02 155.07 108.967 155.137 108.914Z" fill="white"/>
<path d="M134.511 39.9826L131.987 34.0467C132.828 33.486 135.732 32.3137 136.341 32.2209C136.904 32.1351 137.47 32.0734 138.034 32.0011L140.315 32.0011L140.316 32C140.944 32.0897 141.576 32.1631 142.202 32.2708C148.031 33.2667 153.333 38.3544 154.018 44.8439C154.36 48.0794 154.005 51.2076 152.39 54.0681C149.826 58.6038 145.955 61.2273 140.743 61.7175C138.592 61.9201 136.5 61.7762 134.511 61.175C133.525 60.5446 133.389 60.6822 131.987 59.5607L134.511 53.7798C137.768 56.2667 142.431 55.6067 144.89 52.6231C147.411 49.5643 147.517 44.6471 145.108 41.4945C142.287 37.8037 137.323 37.8065 134.623 39.8942C134.585 39.9235 134.548 39.9529 134.511 39.9826Z" fill="white"/>
<path d="M143.763 53.8211L146.286 59.757C145.445 60.3178 142.541 61.49 141.932 61.5828C141.37 61.6686 140.804 61.7303 140.24 61.8026H137.959L137.957 61.8037C137.329 61.714 136.697 61.6406 136.071 61.5329C130.243 60.537 124.941 55.4494 124.255 48.9598C123.914 45.7243 124.268 42.5961 125.884 39.7356C128.447 35.1999 132.318 32.5764 137.531 32.0863C139.681 31.8837 141.773 32.0276 143.763 32.6287C144.748 33.2591 144.884 33.1215 146.286 34.243L143.763 40.0239C140.505 37.537 135.843 38.1971 133.384 41.1806C130.863 44.2394 130.756 49.1566 133.165 52.3092C135.986 56 140.951 55.9972 143.65 53.9095C143.688 53.8802 143.726 53.8508 143.763 53.8211Z" fill="white"/>
</svg>
