<svg width="359" height="158" viewBox="0 0 359 158" fill="none" xmlns="http://www.w3.org/2000/svg">
<path d="M321.11 128.873C318.498 129.081 316.184 128.503 314.062 127.163C311.41 125.489 309.645 123.048 308.263 120.29C306.512 116.798 305.644 113.097 305.639 109.185C305.639 106.51 305.411 103.866 304.412 101.347C303.568 99.2141 302.393 97.2701 301.065 95.4121C300.953 95.2569 300.849 95.0945 300.699 94.8771C303.908 94.144 306.853 94.5118 309.519 96.439C311.429 97.817 312.735 99.6893 313.774 101.774C315.768 105.777 316.422 109.994 315.868 114.427C315.635 116.292 315.437 118.169 315.725 120.053C316.12 122.637 317.4 124.775 319.081 126.702C319.709 127.421 320.385 128.097 321.113 128.873H321.11Z" fill="white"/>
<path d="M341.978 113.056C340.803 113.696 339.564 114.083 338.256 114.255C335.19 114.663 332.395 113.854 329.828 112.232C325.708 109.631 322.609 106.109 320.604 101.638C320.366 101.11 320.111 100.59 319.9 100.052C318.301 95.9976 315.537 92.9383 311.924 90.5979C311.377 90.2445 310.83 89.8886 310.223 89.497C311.807 88.3316 313.494 87.5865 315.387 87.3429C318.315 86.9631 320.91 87.8659 323.258 89.5376C327.423 92.5037 330.194 96.4729 331.584 101.411C331.833 102.295 332.128 103.167 332.395 104.045C333.42 107.429 335.565 109.865 338.662 111.477C339.733 112.034 340.844 112.519 341.981 113.056H341.978Z" fill="white"/>
<path d="M316.948 80.8493C318.686 78.0241 321.044 76.2091 324.283 75.6908C327.438 75.1869 330.368 76.0323 333.215 77.2981C336.186 78.6211 338.684 80.5651 340.751 83.0751C341.398 83.8608 342.066 84.6322 342.692 85.437C345.258 88.7279 348.698 90.2014 352.78 90.3304C353.591 90.3566 354.404 90.3351 355.365 90.3351C355.118 90.6217 354.966 90.8176 354.795 90.9943C352.152 93.7216 348.876 94.801 345.175 94.4715C339.721 93.9843 335.035 91.7155 331.053 87.9589C330.734 87.658 330.401 87.3666 330.099 87.049C326.705 83.462 322.438 81.6875 317.652 80.9759C317.438 80.9448 317.226 80.8994 316.945 80.8469L316.948 80.8493Z" fill="white"/>
<path d="M358.999 64.5138C358.961 64.5568 358.906 64.5926 358.89 64.6427C357.429 68.8268 354.361 71.2341 350.219 72.3088C345.146 73.6247 340.148 73.2402 335.272 71.2962C333.198 70.4699 331.114 69.6746 328.868 69.4215C326.095 69.111 323.383 69.4883 320.688 70.1069C320.443 70.1618 320.198 70.2167 319.879 70.2884C320.455 66.7443 322.132 64.0552 325.248 62.3692C327.743 61.0222 330.46 60.7142 333.243 60.7452C336.661 60.7834 339.856 61.648 342.862 63.2624C343.759 63.7424 344.665 64.2033 345.555 64.6929C348.88 66.5246 352.334 66.7419 355.89 65.5025C356.941 65.1371 357.964 64.6857 358.999 64.2749V64.5162V64.5138Z" fill="white"/>
<path d="M352.438 39.0036C352.704 42.378 351.627 45.294 349.369 47.7801C347.024 50.3641 344.029 51.9117 340.813 53.0866C338.335 53.9941 335.761 54.3715 333.132 54.4121C330.656 54.4479 328.192 54.5554 325.816 55.3673C323.397 56.196 321.232 57.4928 319.165 58.9759C318.989 59.1025 318.81 59.2243 318.582 59.3819C318.052 57.3949 318.049 55.47 318.615 53.5499C319.35 51.0662 320.892 49.1557 322.987 47.7252C327.114 44.9071 331.672 43.6366 336.677 44.0354C338.698 44.1955 340.73 44.3698 342.756 44.3602C344.843 44.3507 346.745 43.5578 348.408 42.3255C349.638 41.4132 350.754 40.3505 351.91 39.3403C352.052 39.2161 352.131 39.0179 352.24 38.8555C352.304 38.9056 352.371 38.9558 352.435 39.0059L352.438 39.0036Z" fill="white"/>
<path d="M336.708 17.9536C337.405 19.2312 337.814 20.6307 337.94 22.1114C338.19 25.0369 337.381 27.7045 335.842 30.1452C333.135 34.4415 329.453 37.6154 324.791 39.6239C324.772 39.631 324.755 39.6382 324.736 39.6454C319.739 41.4771 316.085 44.8707 313.457 49.4488C313.397 49.5515 313.323 49.6447 313.212 49.8118C313.062 49.6112 312.929 49.4512 312.817 49.2769C310.524 45.7209 310.293 42.0097 312.32 38.3152C314.92 33.5722 318.904 30.4198 324.016 28.7123C325.395 28.2514 326.792 27.8454 328.169 27.3797C330.966 26.4364 333.128 24.6715 334.596 22.109C335.364 20.7668 336.004 19.3483 336.708 17.9512V17.9536Z" fill="white"/>
<path d="M304.616 43.0678C302.464 41.7591 300.884 40.054 300.006 37.7422C298.945 34.9528 299.202 32.1586 300.063 29.3836C301.327 25.3117 303.536 21.8583 306.84 19.1406C307.749 18.3931 308.646 17.6266 309.552 16.8743C312.416 14.4957 313.781 11.3791 313.998 7.71559C314.06 6.68151 314.007 5.64265 314.007 4.46289C314.269 4.66828 314.409 4.7638 314.533 4.87844C317.14 7.29766 318.336 10.333 318.21 13.8484C318.018 19.2075 315.955 23.8502 312.551 27.9244C311.938 28.66 311.286 29.3692 310.603 30.0403C307.43 33.1473 305.684 36.9708 304.923 41.3006C304.826 41.8523 304.733 42.4039 304.619 43.0702L304.616 43.0678Z" fill="white"/>
<path d="M288.396 0.837891C288.437 0.876101 288.473 0.933418 288.52 0.952523C292.607 2.41648 294.99 5.43274 296.065 9.52369C297.431 14.718 297.026 19.8263 295.035 24.8152C294.286 26.6899 293.582 28.579 293.294 30.597C292.864 33.6013 293.275 36.5411 293.941 39.4643C293.984 39.6529 294.022 39.844 294.079 40.1067C291.719 39.7604 289.707 38.8577 288.049 37.2218C286.134 35.3327 285.19 32.9637 284.814 30.3534C284.141 25.6797 284.852 21.2305 287.086 17.0488C287.49 16.2918 287.864 15.518 288.294 14.7753C290.475 11.0115 290.587 7.12119 289.048 3.1186C288.756 2.35677 288.454 1.59733 288.156 0.837891C288.237 0.837891 288.316 0.837891 288.396 0.837891Z" fill="white"/>
<path d="M283.242 41.4316C279.265 42.3296 275.833 41.5248 273 38.6375C270.566 36.1561 269.27 33.0539 268.421 29.7415C267.724 27.0238 267.81 24.2702 268.107 21.5118C268.335 19.4007 268.528 17.2872 267.988 15.1879C267.388 12.8571 266.085 10.937 264.489 9.20082C263.968 8.63482 263.366 8.14524 262.855 7.54342C264.482 7.28789 266.002 7.47894 267.481 7.9924C270.245 8.95245 272.35 10.777 273.975 13.1604C276.584 16.991 278.043 21.2205 278.252 25.8822C278.349 28.0554 278.425 30.2502 278.792 32.3876C279.334 35.5639 281.002 38.2673 282.843 40.8537C282.957 41.0137 283.069 41.1761 283.245 41.4292L283.242 41.4316Z" fill="white"/>
<path d="M241.982 23.2195C245.215 21.6027 248.526 21.4928 251.806 22.9186C256.675 25.0369 260.162 28.6836 262.66 33.3239C263.159 34.2529 263.599 35.2201 263.992 36.2016C265.614 40.24 268.335 43.3327 271.951 45.6755C272.519 46.0433 273.088 46.4111 273.706 46.8123C271.991 48.0804 270.131 48.8637 268.031 49.019C265.119 49.2339 262.586 48.2165 260.298 46.509C256.233 43.476 253.576 39.4782 252.248 34.5753C251.987 33.6128 251.663 32.6671 251.342 31.7214C250.391 28.9129 248.609 26.7683 246.059 25.2996C244.753 24.5473 243.373 23.9264 241.98 23.2195H241.982Z" fill="white"/>
<path d="M266.983 55.4536C265.625 57.6985 263.836 59.3272 261.402 60.1774C258.534 61.1805 255.703 60.8127 252.901 59.8717C249.088 58.5917 245.846 56.459 243.27 53.3377C242.494 52.3968 241.707 51.4678 240.934 50.522C238.56 47.618 235.439 46.2353 231.764 46.0227C230.753 45.9654 229.735 46.0132 228.586 46.0132C228.762 45.7719 228.836 45.6454 228.934 45.5379C231.039 43.2118 233.689 42.0058 236.783 41.8219C240.927 41.5759 244.671 42.9276 248.246 44.8668C249.94 45.7863 251.433 46.9875 252.834 48.3082C253.184 48.6378 253.546 48.953 253.876 49.2993C257.156 52.743 261.253 54.5294 265.87 55.2602C266.217 55.3151 266.564 55.3796 266.983 55.4536Z" fill="white"/>
<path d="M224.94 71.9624C226.205 68.127 228.758 65.6504 232.421 64.411C237.552 62.6748 242.689 62.8993 247.785 64.6856C249.756 65.3758 251.714 66.1495 253.736 66.6438C256.845 67.4056 259.956 66.9424 263.032 66.2499C263.339 66.1806 263.644 66.1161 264.084 66.0182C263.901 66.7657 263.786 67.4296 263.572 68.0625C262.183 72.1606 259.195 74.4055 255.082 75.1912C250.22 76.1226 245.564 75.4372 241.173 73.0968C240.257 72.6096 239.336 72.1367 238.427 71.6352C235.042 69.7677 231.534 69.567 227.919 70.8376C226.948 71.1791 225.992 71.5612 224.938 71.9576L224.94 71.9624Z" fill="white"/>
<path d="M302.024 132.856C301.789 132.856 301.613 132.856 301.437 132.856C297.129 132.856 292.821 132.849 288.516 132.868C288.057 132.868 287.862 132.732 287.724 132.295C287.048 130.162 286.327 128.044 285.652 125.912C285.526 125.51 285.343 125.405 284.938 125.405C279.394 125.42 273.851 125.422 268.307 125.403C267.85 125.403 267.698 125.582 267.562 125.966C266.815 128.097 266.047 130.217 265.286 132.34C265.186 132.622 265.117 132.871 264.696 132.868C260.25 132.849 255.802 132.854 251.356 132.852C251.318 132.852 251.278 132.837 251.156 132.813C251.223 132.627 251.278 132.448 251.344 132.276C257.995 115.587 264.648 98.899 271.287 82.2057C271.451 81.7949 271.658 81.6851 272.074 81.6875C275.145 81.7042 278.216 81.7018 281.287 81.6875C281.646 81.6875 281.853 81.7543 282.003 82.1293C288.644 98.9516 295.297 115.769 301.948 132.589C301.97 132.641 301.981 132.699 302.027 132.854L302.024 132.856ZM271.373 115.012H281.946C280.202 109.225 278.475 103.491 276.696 97.5903C274.893 103.489 273.14 109.223 271.373 115.012Z" fill="white"/>
<path d="M240.849 82.0478V133.141C240.649 133.15 240.44 133.167 240.23 133.167C236.879 133.167 233.53 133.157 230.178 133.181C229.712 133.184 229.472 133.017 229.234 132.642C222.93 122.683 216.615 112.734 210.302 102.782C210.2 102.622 210.088 102.469 209.883 102.168C210.062 112.59 210.238 122.845 210.414 133.134H198V82.043C198.195 82.0311 198.385 82.012 198.578 82.012C201.908 82.012 205.238 82.0191 208.57 82C208.982 82 209.208 82.129 209.42 82.4777C215.887 92.9904 222.364 103.499 228.953 114.007C228.777 103.367 228.601 92.7277 228.425 82.0502H240.847L240.849 82.0478Z" fill="white"/>
<path d="M175 82H187.892V133.107H175V82Z" fill="white"/>
<path d="M137 82H149.918V121.51H164.942V133.104H137V82Z" fill="white"/>
<path d="M126.868 133.169C126.633 133.169 126.457 133.169 126.281 133.169C121.973 133.169 117.665 133.162 113.36 133.181C112.901 133.181 112.706 133.045 112.568 132.608C111.892 130.475 111.171 128.357 110.496 126.225C110.37 125.823 110.187 125.718 109.782 125.718C104.238 125.733 98.695 125.735 93.151 125.716C92.694 125.716 92.542 125.895 92.406 126.279C91.659 128.41 90.891 130.53 90.13 132.653C90.03 132.935 89.961 133.184 89.54 133.181C85.094 133.162 80.646 133.167 76.2 133.165C76.162 133.165 76.122 133.15 76 133.126C76.067 132.94 76.122 132.761 76.188 132.589C82.839 115.9 89.492 99.2115 96.131 82.5182C96.295 82.1074 96.502 81.9976 96.918 82C99.989 82.0167 103.06 82.0143 106.131 82C106.49 82 106.697 82.0668 106.847 82.4418C113.488 99.2641 120.141 116.082 126.792 132.902C126.814 132.954 126.825 133.012 126.871 133.167L126.868 133.169ZM96.217 115.325H106.79C105.046 109.538 103.319 103.804 101.54 97.9028C99.737 103.802 97.984 109.536 96.217 115.325Z" fill="white"/>
<path d="M62 119.914L66.5 130.5C65 131.5 59.821 133.59 58.7351 133.756C57.7321 133.909 56.7231 134.019 55.7171 134.148H51.6494L51.647 134.15C50.5267 133.99 49.3992 133.859 48.2836 133.667C37.8888 131.891 28.4336 122.818 27.211 111.245C26.6021 105.475 27.2348 99.8963 30.1154 94.7951C34.6872 86.7064 41.59 82.0279 50.8859 81.1538C54.7211 80.7925 58.4518 81.0491 62 82.1212C63.7574 83.2454 64 83 66.5 85L62 95.3093C56.1907 90.8742 47.8753 92.0514 43.4906 97.372C38.9949 102.827 38.8046 111.596 43.1005 117.218C48.1314 123.8 56.9851 123.795 61.7991 120.072C61.8666 120.02 61.9336 119.967 62 119.914Z" fill="white"/>
<path d="M198.824 24.2158V29.8566H181.964V75.5305H175.889V29.8734H159V24.2158H198.824Z" fill="white"/>
<path d="M143 24.209H149.009V75.5381H143V24.209Z" fill="white"/>
<path d="M131.84 28.9108C130.187 30.3557 128.55 31.7838 126.907 33.2191C126.842 33.1761 126.78 33.1546 126.752 33.114C124.885 30.3151 122.173 28.9634 118.928 28.629C116.436 28.3735 113.988 28.6577 111.671 29.6894C107.651 31.4805 105.765 35.4186 106.926 39.5454C107.418 41.2959 108.538 42.5521 110.013 43.5241C112.068 44.8806 114.366 45.6758 116.692 46.3947C119.397 47.2305 122.099 48.0688 124.632 49.3632C125.36 49.7357 126.074 50.1369 126.766 50.5692C130.213 52.7257 132.251 55.7754 132.618 59.8903C133.124 65.5789 131.352 70.2526 126.583 73.5865C124.747 74.8713 122.703 75.7119 120.527 76.2063C115.518 77.3407 110.587 77.1353 105.794 75.1841C103.217 74.1357 101.02 72.5428 99.3306 70.2955C99.2355 70.169 99.1427 70.0376 99.0547 69.9039C99.0333 69.8728 99.0309 69.8299 99 69.7248C100.684 68.3372 102.39 66.933 104.126 65.5025C104.209 65.6028 104.288 65.684 104.35 65.7747C106.517 68.9844 109.602 70.6514 113.374 71.1051C116.459 71.4777 119.376 70.9165 122.037 69.2662C125.51 67.1121 126.933 63.5203 125.879 59.7207C125.436 58.1254 124.485 56.9098 123.146 55.9808C121.352 54.7366 119.304 54.0583 117.275 53.3443C114.644 52.4176 111.98 51.5746 109.399 50.5262C107.918 49.9244 106.505 49.0838 105.182 48.1739C101.919 45.9218 100.32 42.7025 100.144 38.7621C99.8444 32.0608 103.136 26.8235 109.369 24.4019C114.801 22.2908 120.318 22.2669 125.772 24.4019C128.172 25.3405 130.139 26.9334 131.845 28.9084L131.84 28.9108Z" fill="white"/>
<path d="M83 75.5379V24.2207H89.0085V75.5379H83Z" fill="white"/>
<path d="M27 24.1469C29.0742 24.1565 31.146 24.1875 33.2202 24.1612C33.7316 24.1565 33.9314 24.3332 34.1027 24.7941C39.1835 38.4569 44.281 52.1125 49.3785 65.7681C49.4594 65.9854 49.5497 66.1979 49.6901 66.5394C49.8637 66.1167 49.985 65.8278 50.0992 65.5364C55.3275 51.9525 60.5582 38.3685 65.7722 24.7798C65.953 24.3093 66.1718 24.1541 66.6714 24.1612C68.5624 24.1923 70.4558 24.1732 72.4158 24.1732C72.354 24.3762 72.3207 24.5218 72.266 24.6604C65.7223 41.4612 59.1786 58.2596 52.6468 75.0628C52.4874 75.4736 52.2876 75.5882 51.8713 75.5811C50.3157 75.5572 48.76 75.5524 47.2044 75.5811C46.731 75.5906 46.5241 75.4545 46.3504 74.996C39.997 58.3002 33.627 41.6045 27.2593 24.9063C27.1903 24.7272 27.088 24.5601 27 24.3857C27 24.3045 27 24.2257 27 24.1445V24.1469Z" fill="white"/>
</svg>
