<svg width="190" height="158" viewBox="0 0 190 158" fill="none" xmlns="http://www.w3.org/2000/svg">
<path d="M36.9143 0.501342C35.4971 1.11749 33.6487 2.93512 32.8477 4.47549C31.8618 6.35474 31.7386 9.40467 32.5704 11.2531C33.0941 12.4546 33.2174 13.3172 33.2174 16.2131V19.7251H32.4472C31.1225 19.7251 29.8594 20.5877 28.8735 22.1897C26.6246 25.8558 19.6005 28.9674 10.728 30.1996C9.28004 30.4153 7.77048 30.785 7.40079 31.0314C6.35334 31.6784 5.89123 33.0339 5.64477 36.0839C5.42912 38.5484 5.45993 38.7949 6.07608 39.4111C6.50738 39.8424 7.12353 40.058 7.92452 40.058C9.4957 40.058 10.2659 39.103 10.5431 36.8848L10.7588 35.2521L14.5173 34.5743C18.4914 33.8349 23.5747 32.2637 26.0393 31.0006C28.4114 29.83 31.3073 27.5194 32.3548 26.0407L33.3406 24.6543H40.3339H47.2963L48.1281 25.8866C50.5927 29.6143 57.586 33.0031 66.0888 34.5435L69.8165 35.2521L70.0322 36.6384C70.1246 37.4086 70.5559 39.3802 70.9872 41.0438C73.4518 50.9638 73.7907 57.6182 72.0655 63.5024C71.2337 66.2751 70.8332 67.1377 67.9989 72.1285C62.4536 81.8328 61.098 86.0842 61.1289 93.3548C61.1597 97.7602 61.591 100.256 62.9465 104.322C63.9015 107.187 66.6742 113.349 67.3211 114.057C68.0297 114.828 70.0014 114.797 70.8024 113.996C71.7574 113.041 71.5417 111.716 69.909 108.173C67.1055 102.073 66.1197 98.2531 66.0888 93.3548C66.0272 87.5014 67.3519 83.5272 72.1579 75.0244C77.0255 66.3675 77.9497 63.2868 77.9805 55.4617C78.0113 50.0396 77.734 47.8831 76.0088 40.6433C75.3619 37.8399 74.8073 35.098 74.8073 34.5435C74.8073 33.188 74.0679 31.586 73.2053 31.0006C72.8357 30.7542 71.3261 30.3845 69.8781 30.1996C66.1196 29.6759 60.6667 28.1972 58.0173 26.9957C54.7209 25.4553 53.0265 24.1922 51.825 22.313C50.716 20.5877 49.5145 19.7251 48.159 19.7251H47.3888V16.2439C47.4196 13.6561 47.5428 12.393 48.0049 11.0991C48.3438 10.1749 48.5903 8.91175 48.6211 8.29561C48.6519 5.3381 46.5878 2.04171 43.9383 0.686186C42.2439 -0.145613 38.6395 -0.238035 36.9143 0.501342ZM42.4596 5.83102C43.5687 6.94008 43.8767 8.07996 43.3838 9.28144C42.8293 10.6062 41.6586 11.4072 40.2415 11.4072C39.2556 11.4072 38.7935 11.1915 37.9617 10.3597C36.5138 8.91175 36.5138 7.433 37.9617 5.98505C39.3788 4.56792 41.1657 4.5063 42.4596 5.83102ZM42.4596 18.0307V19.7251H40.3031H38.1466V18.0307V16.3363H40.3031H42.4596V18.0307Z" fill="white"/>
<path d="M4.53815 45.9422C3.36747 46.3735 3.05939 47.3286 2.6897 51.6416C2.44324 54.4759 2.44324 56.3551 2.6897 58.8505C3.33666 65.1044 4.3533 67.8155 8.9436 75.9486C13.2566 83.5272 14.5813 87.6862 14.5197 93.3548C14.4581 98.4688 13.5339 102.012 10.3607 108.882C5.89367 118.586 3.30585 125.579 1.27256 133.404C-0.0521526 138.58 -0.329419 141.507 0.379151 142.893C1.36499 144.834 1.11853 144.803 17.9702 144.803H33.2198V150.656C33.2198 158.358 32.6037 157.742 40.2747 157.742H46.1281L46.7442 156.941C47.3604 156.171 47.3912 155.709 47.3912 150.472V144.803H62.6408C79.4925 144.803 79.246 144.834 80.2319 142.893C80.9404 141.507 80.6632 138.58 79.2768 133.25C77.6132 126.688 75.8264 121.667 74.933 120.835C73.978 120.003 72.684 119.972 71.8214 120.773C70.6508 121.852 70.6816 122.437 72.3144 127.335C73.6083 131.309 74.5633 134.698 75.5491 139.011L75.734 139.874H40.3055H4.87703L5.06187 139.042C6.10932 134.39 7.28 130.262 8.69714 126.134C10.2683 121.574 11.0693 119.603 15.8136 108.913C16.7995 106.694 18.001 103.306 18.4939 101.365C19.2949 98.3148 19.4489 97.2365 19.4489 93.5088C19.5105 86.0226 18.2474 82.0793 12.6097 72.1285C9.49813 66.6448 8.85118 65.2276 8.17341 62.0853C7.43404 58.6657 7.28 55.4925 7.64969 51.6108C8.08099 47.3902 7.95776 46.7124 6.72547 46.0655C5.70883 45.5417 5.64721 45.5417 4.53815 45.9422ZM42.462 148.962V153.121H40.3055H38.149V148.962V144.803H40.3055H42.462V148.962Z" fill="white"/>
<path d="M138.575 47.5075C129.212 50.2613 120.584 56.8702 115.994 64.7643C107.733 78.9001 108.1 97.0747 116.545 97.0747C121.134 97.0747 124.255 93.4031 124.255 88.0792C124.255 78.9001 131.231 68.2523 140.043 64.0299C150.324 58.8896 156.749 60.1747 157.667 67.3344C158.218 72.1075 158.585 72.2911 170.151 72.2911H182.084V61.4598C182.084 49.5269 178.596 44.7538 172.537 48.609C170.334 49.8941 167.581 49.8941 162.991 48.2419C155.464 45.4881 145.918 45.3046 138.575 47.5075Z" fill="white"/>
<path d="M178.043 76.3299C176.758 76.6971 175.656 79.818 175.656 82.9389C175.656 93.0359 169.048 103.684 159.868 108.09C149.588 113.23 143.162 111.945 142.245 104.785C141.694 100.012 141.327 99.8284 129.761 99.8284H117.828V110.66C117.828 122.593 121.316 127.366 127.374 123.511C129.577 122.225 132.515 122.225 137.839 124.245C151.424 128.834 167.395 124.979 178.227 114.331C185.203 107.172 188.507 100.379 189.792 89.915C191.077 78.5329 186.304 72.8419 178.043 76.3299Z" fill="white"/>
</svg>
