<svg width="96" height="115" viewBox="0 0 96 115" fill="none" xmlns="http://www.w3.org/2000/svg">
<path d="M30.9333 4.4C26.2667 9.2 25.3333 14.5333 28.6667 17.3333C31.6 19.7333 31.2 20.4 24.5333 23.8667C21.2 25.6 15.6 30.2667 12 34.2667C3.46667 43.6 0 52.8 0 66.6667C0 81.7333 3.46667 90.4 13.8667 100.8C24.2667 111.2 32.9333 114.667 48 114.667C63.0667 114.667 71.7333 111.2 82.1333 100.8C92.5333 90.4 96 81.7333 96 66.6667C96 52.8 92.5333 43.6 84 34.2667C80.4 30.2667 74.8 25.6 71.4667 23.8667C64.8 20.4 64.4 19.7333 67.3333 17.3333C70.8 14.5333 69.7333 8.93333 64.9333 4.26667C60.6667 0.133332 60.2667 -8.9407e-07 47.8667 -8.9407e-07C35.3333 -8.9407e-07 35.2 -8.9407e-07 30.9333 4.4ZM62.1333 30.2667C70.9333 33.2 81.4667 43.7333 84.4 52.5333C89.6 67.7333 86.2667 83.3333 75.4667 94.1333C60.1333 109.467 35.8667 109.467 20.5333 94.1333C5.2 78.6667 5.2 54.5333 20.6667 39.2C24.6667 35.2 29.7333 31.6 33.3333 30.2667C41.3333 27.4667 54 27.4667 62.1333 30.2667Z" fill="white"/>
</svg>
