<svg width="204" height="101" viewBox="0 0 204 101" fill="none" xmlns="http://www.w3.org/2000/svg">
<path d="M8.35009e-07 30.0566C0.133705 26.1908 0.502891 23.3066 1.45801 20.7744C2.35684 18.3916 3.76182 16.3536 5.91113 14.1094L6.35156 13.6572L6.36817 13.6396L6.3877 13.624C9.79503 10.7953 13.6764 9.21335 23.792 7.67285L23.8291 7.66699L128.195 7.66699L125.552 2.29981L125.428 2.04883L125.577 1.81152L126.577 0.232423L126.725 1.51118e-06L130.748 1.55915e-06L130.898 0.197267L136.567 7.66699L183.821 7.66699L183.859 7.67285C188.791 8.41807 192.387 9.48209 195.335 11.5293C198.286 13.5785 200.535 16.5765 202.85 21.083L202.874 21.1309L202.888 21.1826C203.084 21.9185 203.246 23.2753 203.383 25.0537C203.52 26.8474 203.634 29.1112 203.726 31.6875C203.908 36.8408 204 43.2593 204 49.6982C204 56.1372 203.908 62.6013 203.726 67.8457C203.634 70.4675 203.52 72.7879 203.383 74.6494C203.246 76.4998 203.084 77.929 202.892 78.748L202.882 78.7871L202.866 78.8252C201.015 83.2641 199.006 86.3046 196.058 88.5352C193.12 90.7576 189.296 92.1394 183.895 93.3604L183.84 93.3721L136.549 93.3721L130.878 99.9072L130.729 100.079L126.732 100.079L125.584 98.3564L125.399 98.0791L125.584 97.8018L128.069 94.0732L23.8633 93.3721L23.8271 93.3721L23.79 93.3662C16.7794 92.2782 12.8661 91.3552 6.44727 87.458L6.42285 87.4424L6.39941 87.4248C3.75923 85.3656 2.17383 83.2892 1.24609 80.6299C0.327357 77.9962 0.0664461 74.824 3.51435e-07 70.6084L8.35009e-07 30.0566ZM175.721 87.165C180.895 87.4887 183.809 87.8167 189.32 87.1631L189.439 87.1484L189.54 87.0811C193.251 84.5886 194.042 82.306 195.907 78.8721L195.028 78.3955C193.141 81.8706 192.458 83.8856 189.081 86.1836C185.718 86.5763 183.356 86.5944 180.773 86.4736C182.997 86.0861 185.045 85.5073 187.66 84.1914L187.7 84.1719L187.735 84.1455C190.812 81.8351 192.035 80.277 193.708 77.4268L193.277 77.1729L192.846 76.9199C191.236 79.6614 190.102 81.1135 187.17 83.3193C182.998 85.4108 180.395 85.541 175.686 86.1709L175.721 87.165ZM175.686 14.8701C180.395 15.5 182.998 15.6302 187.17 17.7217C190.102 19.9276 191.236 21.3797 192.846 24.1211L193.277 23.8682L193.708 23.6143C192.035 20.7641 190.812 19.2059 187.735 16.8955L187.7 16.8691L187.66 16.8496C185.045 15.5337 182.997 14.955 180.773 14.5674C183.356 14.4466 185.718 14.4647 189.081 14.8574C192.458 17.1554 193.141 19.1704 195.028 22.6455L195.907 22.1689C194.042 18.735 193.251 16.4524 189.54 13.96L189.439 13.8926L189.32 13.8779C183.809 13.2243 180.895 13.5523 175.721 13.876L175.686 14.8701ZM156.865 83.9199L163.749 76.5449L190.582 72.0723L190.464 71.0801L162.964 73.0801L162.716 73.0986L162.581 73.3066L156.081 83.3066L156.865 83.9199ZM162.581 29.3516L162.716 29.5596L162.964 29.5781L190.464 31.5781L190.582 30.5859L163.749 26.1133L156.865 18.7383L156.081 19.3516L162.581 29.3516ZM39.9268 80.9385C36.7139 81.8147 36.5188 83.1785 39.4395 83.7627C51.8044 86.3915 68.6487 87.1705 116.259 87.3652C144.98 87.4626 145.078 87.462 148.583 85.2227C156.469 80.0622 160.85 63.4135 159.39 43.9414C157.929 22.4244 151.893 13.5643 138.457 13.1748C129.5 12.7854 57.0621 14.1482 52.3887 14.7324C38.9531 16.2902 35.2534 17.8481 40.4131 19.6006C41.6788 19.99 58.3282 20.6718 77.4111 20.9639C96.4918 21.2559 112.458 21.84 112.851 22.2295C114.214 23.6899 112.364 24.2745 104.283 24.9561C104.283 24.9561 37.0734 27.6525 37.5 28.0791C37.9262 28.5053 105.346 25.6422 105.451 25.6377L114.604 25.4424L116.063 29.8242C118.108 35.9587 118.108 64.5821 116.063 70.7158C114.798 74.4156 114.214 75.0971 112.169 74.9023C103.113 74.4155 37.7921 72.787 37.5 73.0791C37.3053 73.2738 46.4502 73.6369 55.5049 74.0264C90.6524 75.1947 112.364 76.3631 112.948 76.9473C113.24 77.2394 113.24 77.8235 112.851 78.2129C112.458 78.6997 96.4918 79.2841 77.4111 79.5762C58.3293 79.9656 41.4863 80.549 39.9268 80.9385ZM39.5 51.0791C39.5 52.0791 39.5 53.0791 43 53.0791C46.5 53.0791 47.5 52.0791 47.5 51.0791C47.5 50.0791 46.5 49.0791 43 49.0791C39.5 49.0791 39.5 50.0791 39.5 51.0791ZM37.5 73.0791L37.5 28.0791L37.2998 28.0791L37.2998 73.0791L37.5 73.0791ZM5.31836 37.8486C4.22688 44.5133 4.22683 59.214 5.31836 65.7803C5.71532 68.2305 7.30353 72.5426 8.79199 75.3848L11.3721 80.5791L20.0049 79.8926C24.7678 79.5006 28.9352 78.9125 29.4316 78.5205C29.8286 78.1285 28.4397 76.7569 26.4551 75.3848C20.7989 71.8565 18.8145 65.3881 18.8145 50.9814C18.9137 36.4765 20.8981 30.1057 26.4551 26.4795C30.1267 24.2253 30.2257 24.0294 27.9434 23.4414C26.7523 23.1474 22.4856 22.5596 18.5166 22.2656L11.3721 21.5791L8.89063 26.7734C7.40216 29.6157 5.81451 34.6145 5.31836 37.8486Z" fill="#D9D9D9" fill-opacity="0.13"/>
</svg>
