<svg width="107" height="107" viewBox="0 0 107 107" fill="none" xmlns="http://www.w3.org/2000/svg">
<path d="M88.1445 2.50293C93.1477 2.50658 97.3593 3.75986 100.303 6.70215C103.247 9.64496 104.5 13.8559 104.5 18.8604V88.1436C104.5 93.1477 103.247 97.3601 100.304 100.304C97.36 103.247 93.147 104.5 88.1426 104.5C78.9034 104.5 28.1133 104.499 18.8574 104.5C13.8456 104.501 9.62727 103.249 6.68262 100.305C3.73727 97.3593 2.49024 93.1441 2.5 88.1387C2.51809 78.903 2.51805 28.0997 2.5 18.8652C2.49021 13.8582 3.74319 9.64358 6.69043 6.69922C9.63629 3.75626 13.8534 2.50335 18.8574 2.50293C28.0955 2.50216 78.9048 2.49618 88.1445 2.50293Z" stroke="#383838" stroke-width="5"/>
<path d="M51.1678 12.628L50.5398 13.256V16.5992V19.9424H47.1597H43.7796L43.2624 20.4596C42.6344 21.143 42.4681 22.1035 42.856 22.8608C43.3917 23.8766 43.8719 24.0059 47.3998 24.0059H50.5398V29.5471V35.0883L36.9085 45.3211C22.4459 56.1634 22.3721 56.2188 21.467 58.4168C21.0791 59.3588 21.0791 59.562 21.0237 72.7685C20.9683 85.698 20.9868 86.1967 21.3377 87.3603C22.0765 89.78 24.1083 91.8118 26.528 92.5506C27.6731 92.8831 28.1903 92.92 34.9691 92.8646L42.1911 92.8092L43.0038 92.2551C43.4286 91.9411 44.0012 91.3131 44.2598 90.8698L44.7216 90.0386L44.8139 82.7427C44.9247 74.7449 44.9247 74.8003 46.1253 72.9163C47.7508 70.3858 50.9831 68.8897 53.7168 69.4069C56.5428 69.924 58.7223 71.7157 59.886 74.4309C60.2 75.1882 60.2369 75.927 60.3293 82.6503L60.4216 90.0386L60.8834 90.8698C61.142 91.3131 61.7146 91.9411 62.1394 92.2551L62.9521 92.8092L70.1742 92.8646C76.9529 92.92 77.4701 92.8831 78.6153 92.5506C81.0349 91.8118 83.0667 89.78 83.8055 87.3603C84.1565 86.1967 84.1749 85.698 84.1195 72.7685C84.0641 59.562 84.0641 59.3588 83.6762 58.4168C82.7712 56.2188 82.6973 56.1634 68.2347 45.3211L54.6034 35.0883V29.5471V24.0059H57.7434C61.2713 24.0059 61.7515 23.8766 62.2872 22.8608C62.6751 22.1035 62.5088 21.143 61.8808 20.4596L61.3636 19.9424H57.9835H54.6034V16.5992V13.256L53.9754 12.628C53.4582 12.1108 53.1996 12 52.5716 12C51.9436 12 51.685 12.1108 51.1678 12.628Z" fill="#383838"/>
<path d="M51.04 35.3379L50.8398 35.4883L37.209 45.7207H37.208C29.9682 51.1483 26.3514 53.8608 24.4268 55.4922C23.4661 56.3064 22.9547 56.829 22.6289 57.2666C22.3098 57.6952 22.1556 58.0588 21.9297 58.6074C21.8407 58.8236 21.7834 58.9726 21.7363 59.2764C21.686 59.6014 21.6478 60.1013 21.6201 61.0088C21.565 62.8197 21.5512 66.1626 21.5234 72.7705C21.4957 79.2391 21.4869 82.5879 21.5283 84.4658C21.5695 86.3344 21.6591 86.6985 21.8154 87.2168C22.4631 89.3353 24.1807 91.1425 26.2549 91.9287L26.6738 92.0723C27.7256 92.3773 28.1606 92.4199 34.9648 92.3643L42.0342 92.3115L42.7129 91.8477C43.0828 91.572 43.5981 91.0068 43.8223 90.6279V90.627L44.2227 89.9062L44.3135 82.7363L44.3145 82.7354C44.3696 78.7571 44.3964 76.7302 44.5654 75.4707C44.6521 74.8252 44.7785 74.3569 44.9727 73.9189C45.1616 73.4929 45.41 73.1089 45.7041 72.6475L45.7051 72.6465C47.4281 69.9641 50.8519 68.3592 53.8057 68.916L53.8066 68.915C56.8057 69.4639 59.1194 71.373 60.3457 74.2344L60.3477 74.2393C60.5375 74.6971 60.6295 75.1391 60.6904 76.2764C60.7511 77.4086 60.783 79.2866 60.8291 82.6436V82.6445L60.9199 89.9082L61.3154 90.6182C61.51 90.9515 61.9363 91.4356 62.29 91.7363L62.4365 91.8525L63.1074 92.3115L70.1777 92.3643H70.1787C76.1442 92.413 77.2138 92.3868 78.0957 92.1738L78.4756 92.0703C80.7332 91.3785 82.6374 89.4731 83.3271 87.2148C83.4832 86.6972 83.5741 86.3331 83.6152 84.4658C83.6566 82.5879 83.6469 79.2391 83.6191 72.7705C83.5914 66.1626 83.5776 62.8197 83.5225 61.0088C83.4948 60.1013 83.4575 59.6014 83.4072 59.2764C83.3602 58.9726 83.3029 58.8236 83.2139 58.6074C82.988 58.0588 82.8338 57.6952 82.5146 57.2666C82.1888 56.829 81.6767 56.3066 80.7158 55.4922C79.2723 54.2687 76.8773 52.4373 72.7158 49.3086L67.9346 45.7207L54.3027 35.4883L54.1035 35.3379V23.5059H57.7432C59.5293 23.5059 60.4605 23.4706 61.0146 23.3301C61.2719 23.2648 61.4148 23.1837 61.5166 23.0938C61.6236 22.9992 61.7195 22.8649 61.8418 22.6338V22.6328C62.121 22.0876 62.0182 21.3541 61.5176 20.8047L61.1562 20.4424H54.1035V13.4629L53.6221 12.9814C53.374 12.7333 53.233 12.6308 53.1123 12.5771C52.9992 12.5269 52.8595 12.5 52.5713 12.5C52.2833 12.5 52.1443 12.5269 52.0312 12.5771C51.9105 12.6308 51.7697 12.7332 51.5215 12.9814L51.04 13.4629V20.4424H43.9863L43.624 20.8057C43.1245 21.3549 43.0218 22.0881 43.3008 22.6328L43.2998 22.6338C43.4223 22.8653 43.5198 22.9991 43.627 23.0938C43.7288 23.1836 43.8717 23.2648 44.1289 23.3301C44.683 23.4706 45.6138 23.5059 47.3994 23.5059H51.04V35.3379Z" stroke="black" stroke-opacity="0.3"/>
</svg>
