<svg width="107" height="107" viewBox="0 0 107 107" fill="none" xmlns="http://www.w3.org/2000/svg">
<path d="M88.1445 2.50293C93.1477 2.50658 97.3593 3.75986 100.303 6.70215C103.247 9.64496 104.5 13.8559 104.5 18.8604V88.1436C104.5 93.1477 103.247 97.3601 100.304 100.304C97.36 103.247 93.147 104.5 88.1426 104.5C78.9034 104.5 28.1133 104.499 18.8574 104.5C13.8456 104.501 9.62727 103.249 6.68262 100.305C3.73727 97.3593 2.49024 93.1441 2.5 88.1387C2.51809 78.903 2.51805 28.0997 2.5 18.8652C2.49021 13.8582 3.74319 9.64358 6.69043 6.69922C9.63629 3.75626 13.8534 2.50335 18.8574 2.50293C28.0955 2.50216 78.9048 2.49618 88.1445 2.50293Z" stroke="#383838" stroke-width="5"/>
<path d="M40.6064 14.1099C40.0813 14.3359 39.7423 14.8478 39.7423 15.4129C39.7423 15.8915 39.862 16.1042 40.6064 16.9552C41.4106 17.8659 41.9024 18.5573 42.2812 19.3019C43.0655 20.8242 43.112 21.9211 42.4408 23.284C42.0553 24.0551 41.6365 24.6335 40.387 26.1292C38.6523 28.1967 38.1738 28.8682 37.6487 29.9784C37.1503 31.0221 37.0041 31.6337 36.9708 32.7838C36.9243 34.2131 37.1436 35.1903 37.8282 36.593C38.3267 37.6234 39.6227 39.4782 40.1677 39.9502C41.1181 40.7745 42.5338 40.1363 42.5338 38.8799C42.5338 38.5408 42.3743 38.235 41.8426 37.5769C40.7127 36.1808 40.0481 34.9377 39.8354 33.8275C39.7091 33.1627 39.7158 32.7306 39.8686 32.1389C40.1544 31.0354 40.6662 30.2044 42.2015 28.3696C44.3482 25.8035 44.8201 25.0988 45.3518 23.6828C45.7639 22.5926 45.837 20.9638 45.5246 19.8204C45.1126 18.298 44.1422 16.6627 42.6734 15.014C41.8426 14.0833 41.2577 13.824 40.6064 14.1099Z" fill="#414141"/>
<path d="M47.7673 14.4296C47.4217 14.5227 47.0495 14.8285 46.8701 15.1675C46.7238 15.4467 46.7371 16.1049 46.89 16.3974C46.9565 16.5237 47.1625 16.7896 47.3486 16.9957C48.3123 18.0261 48.9836 18.9634 49.4222 19.8875C49.7679 20.6188 49.9141 21.1838 49.9141 21.8486C49.9141 23.1383 49.389 24.1222 47.4749 26.3891C45.6272 28.5962 44.936 29.6 44.4641 30.79C43.414 33.4359 43.9789 36.1549 46.1921 39.1065C47.1558 40.3763 47.5015 40.6621 48.1196 40.6621C48.6978 40.6621 49.1365 40.4028 49.3824 39.9308C49.7147 39.2794 49.6017 38.8406 48.8706 37.9365C47.9534 36.7997 47.2888 35.6563 46.9897 34.7123C46.7837 34.0674 46.7371 33.0636 46.8833 32.4852C47.0362 31.8869 47.4948 30.9629 47.98 30.2848C48.1993 29.9723 48.9038 29.0948 49.5419 28.337C50.911 26.7082 51.4494 25.9703 51.9013 25.0994C53.3569 22.3273 52.9714 19.6083 50.7116 16.6035C50.3926 16.178 49.8543 15.5398 49.5153 15.1875C48.9969 14.629 48.8573 14.5227 48.5649 14.4362C48.1727 14.3166 48.1794 14.3166 47.7673 14.4296Z" fill="#414141"/>
<path d="M55.5291 14.4099C54.9376 14.5495 54.479 15.1478 54.4923 15.7794C54.4923 16.258 54.6252 16.504 55.2101 17.1488C57.0711 19.1897 57.862 20.9248 57.5961 22.4206C57.4034 23.5308 56.885 24.3817 55.0306 26.6021C53.5086 28.4236 52.9503 29.2081 52.4718 30.1919C51.867 31.4351 51.6942 32.1265 51.6875 33.3497C51.6809 35.3773 52.505 37.3517 54.2796 39.5655C54.572 39.9311 54.8711 40.2834 54.9376 40.3433C55.2965 40.6557 56.0342 40.7621 56.4663 40.556C56.772 40.4097 57.1309 39.9909 57.2173 39.6851C57.3834 39.1001 57.2572 38.7478 56.5859 37.9234C54.9044 35.8626 54.2397 34.0344 54.5986 32.4988C54.8445 31.4484 55.4228 30.5376 57.1575 28.4635C59.1979 26.0237 59.7296 25.1994 60.2081 23.7103C60.8329 21.7491 60.4075 19.5421 58.9719 17.3616C58.2408 16.2514 56.9248 14.729 56.5194 14.5163C56.2536 14.3833 55.8481 14.3368 55.5291 14.4099Z" fill="#414141"/>
<path d="M18.0052 42.1508C17.1545 42.4964 16.7092 43.128 16.6361 44.072C16.5563 45.2021 16.789 50.9991 17.0149 53.4588C17.6663 60.4457 19.1949 66.1629 21.7272 71.0757C22.4516 72.485 23.0564 73.5154 23.9603 74.8583C24.3458 75.43 24.6582 75.9153 24.6582 75.9353C24.6582 75.9485 21.9664 75.9618 18.6765 75.9618C12.8277 75.9618 12.6948 75.9618 12.3359 76.0948C11.8574 76.2743 11.4387 76.6599 11.1994 77.1319C11.0266 77.4643 11 77.5972 11 78.0559C11 78.8138 11.1662 79.1063 12.1764 80.1832C12.6284 80.6552 13.6253 81.7654 14.3963 82.643C17.2143 85.8472 18.6233 87.0173 21.1689 88.2604C23.8075 89.5567 27.3367 90.4675 32.0954 91.0858L33.3915 91.252H47.1959H61.0003L62.4559 91.0126C69.3614 89.8891 73.3293 88.4532 76.4198 85.9602C77.224 85.3154 78.3539 84.2119 79.6167 82.8424C80.2215 82.1843 81.2451 81.1073 81.8898 80.4492C82.9199 79.3921 83.0794 79.1994 83.2057 78.8537C83.4051 78.3351 83.3852 77.6039 83.1592 77.1518C82.9731 76.7662 82.5677 76.3607 82.1623 76.1546L81.8499 75.9951L75.5824 75.9618L69.3215 75.9286L69.7602 75.3303C71.475 73.0102 73.1166 70.012 74.1999 67.2465L74.4924 66.5019L74.7715 67.0537C76.5461 70.5771 79.5569 73.0102 82.8867 73.6085C83.7241 73.7547 85.1664 73.7547 86.0371 73.6018C89.8653 72.9437 93.0822 70.0186 94.8302 65.6178C95.6477 63.5702 96.0066 61.5758 95.9999 59.1095C95.9933 57.0486 95.8138 55.759 95.2755 53.8909C93.9994 49.5166 90.962 46.0863 87.3331 44.9296C85.3259 44.2914 82.9332 44.3778 81.0124 45.1556C79.9823 45.5744 78.9321 46.1993 78.1678 46.8508C77.9352 47.0502 77.6693 47.263 77.5829 47.3361L77.4234 47.4624L77.4699 45.8071C77.5165 44.0653 77.4766 43.6066 77.2307 43.1213C77.0512 42.769 76.6458 42.3901 76.2337 42.1973L75.8682 42.0244L47.1228 42.0112L18.3774 41.9912L18.0052 42.1508ZM85.173 48.772C86.489 48.9648 87.6056 49.5831 88.7421 50.7531C92.2181 54.3496 92.803 61.1171 90.0382 65.7839C88.237 68.8154 85.4123 70.1317 82.7405 69.1877C81.6106 68.7888 80.3544 67.7916 79.4572 66.595C78.9587 65.9302 78.2609 64.6073 77.9751 63.7962C76.7854 60.3992 76.9515 56.5035 78.4204 53.3923C79.2844 51.5641 80.6668 50.0218 82.0493 49.3438C83.1326 48.8053 84.1362 48.6258 85.173 48.772Z" fill="#414141"/>
</svg>
