<svg width="107" height="107" viewBox="0 0 107 107" fill="none" xmlns="http://www.w3.org/2000/svg">
<path d="M88.1445 2.50293C93.1477 2.50658 97.3593 3.75986 100.303 6.70215C103.247 9.64496 104.5 13.8559 104.5 18.8604V88.1436C104.5 93.1477 103.247 97.3601 100.304 100.304C97.36 103.247 93.147 104.5 88.1426 104.5C78.9034 104.5 28.1133 104.499 18.8574 104.5C13.8456 104.501 9.62727 103.249 6.68262 100.305C3.73727 97.3593 2.49024 93.1441 2.5 88.1387C2.51809 78.903 2.51805 28.0997 2.5 18.8652C2.49021 13.8582 3.74319 9.64358 6.69043 6.69922C9.63629 3.75626 13.8534 2.50335 18.8574 2.50293C28.0955 2.50216 78.9048 2.49618 88.1445 2.50293Z" stroke="#383838" stroke-width="5"/>
<path d="M53.6886 92.9854L71.671 92.9834C76.5688 92.9747 76.5688 86.4435 71.671 86.4502H56.9786V51.3428C57.0915 51.2085 83.063 20.3188 85.0997 17.4668C87.1399 14.6098 86.7318 12.9775 85.0997 13C83.4565 13.0225 24.2825 13.0225 21.8351 13C19.388 12.9778 19.3886 14.6101 21.8351 17.4668C24.2819 20.3238 35.6193 34.1357 35.6193 34.1357L50.4474 51.3457V86.4434L35.754 86.4502C30.8829 86.4473 30.8829 92.9849 35.754 92.9854H53.6886ZM60.7032 37.2578C58.1338 39.6124 54.342 39.6123 51.7726 37.2715C50.3283 35.9359 49.7033 34.5178 49.7032 32.5352C49.7032 30.5111 50.3555 29.0096 51.7999 27.6602C52.5498 26.9718 53.8834 26.2699 54.8556 26.0908C58.2028 25.4437 61.5091 27.3439 62.4952 30.4971C62.8563 31.6536 62.8555 33.4709 62.4806 34.5449C62.0778 35.729 61.6198 36.4042 60.7032 37.2578Z" fill="#383838"/>
</svg>
