<svg width="107" height="107" viewBox="0 0 107 107" fill="none" xmlns="http://www.w3.org/2000/svg">
<path d="M88.1445 2.50293C93.1477 2.50658 97.3593 3.75986 100.303 6.70215C103.247 9.64496 104.5 13.8559 104.5 18.8604V88.1436C104.5 93.1477 103.247 97.3601 100.304 100.304C97.36 103.247 93.147 104.5 88.1426 104.5C78.9034 104.5 28.1133 104.499 18.8574 104.5C13.8456 104.501 9.62727 103.249 6.68262 100.305C3.73727 97.3593 2.49024 93.1441 2.5 88.1387C2.51809 78.903 2.51805 28.0997 2.5 18.8652C2.49021 13.8582 3.74319 9.64358 6.69043 6.69922C9.63629 3.75626 13.8534 2.50335 18.8574 2.50293C28.0955 2.50216 78.9048 2.49618 88.1445 2.50293Z" fill="#3A3A3A" fill-opacity="0.24" stroke="#383838" stroke-width="5"/>
<path d="M60.86 20.7156L38.9333 26.2702V46.02V65.7698H32.34C23.6 65.7698 19 70.3987 19 79.0392C19 87.3711 23.7533 92 32.1867 92C36.6333 92 39.3933 91.0742 41.6933 88.4512C44.9133 85.0567 45.0667 83.3595 45.0667 61.7581V38.6139L62.3933 34.4479C71.7467 32.1335 80.0267 30.2819 80.7933 30.2819C81.4067 30.2819 81.8667 35.0651 81.8667 41.0826V51.8832H75.2733C66.5333 51.8832 61.9333 56.5121 61.9333 65.1526C61.9333 73.4846 66.6867 78.1134 75.12 78.1134C79.5667 78.1134 82.3267 77.1877 84.6267 74.5646C87.8467 71.1701 88 69.6272 88 42.9341C88 17.1668 87.8467 14.8524 85.3933 15.0067C83.86 15.161 72.82 17.6297 60.86 20.7156Z" fill="#414141"/>
</svg>
