<svg width="107" height="107" viewBox="0 0 107 107" fill="none" xmlns="http://www.w3.org/2000/svg">
<mask id="path-1-inside-1_46_205" fill="white">
<path d="M57.5728 22.0256C56.2936 22.0651 55.2713 22.1442 54.1897 22.2923C54.1107 22.3022 53.9329 22.322 53.7946 22.3417C52.7723 22.4701 50.94 22.8949 49.7448 23.29C47.5668 24.0061 45.1665 25.2704 43.4478 26.599C43.4083 26.6286 43.2207 26.7718 43.028 26.915C42.8404 27.0583 42.6725 27.1867 42.6576 27.2015C42.6428 27.2163 42.5243 27.32 42.386 27.4287C41.8082 27.888 40.8402 28.7671 39.9413 29.6511C38.84 30.7278 38.0695 31.4242 37.8473 31.5377C37.7584 31.5871 37.4867 31.6365 37.2003 31.6563C36.573 31.7057 36.3952 31.7304 35.6692 31.8785C32.9825 32.4267 29.1303 33.6664 26.4436 34.8467C25.4608 35.2764 23.8804 36.0617 23.0062 36.5506C22.6654 36.7432 22.2851 36.9556 22.1617 37.0247C22.0382 37.0939 21.7962 37.2371 21.6184 37.3458C21.4406 37.4544 21.2529 37.568 21.1986 37.5976C21.0801 37.6668 21.0208 37.7014 20.2108 38.2249C16.2746 40.7634 12.9064 43.8502 10.4468 47.1591C9.33562 48.6556 8.17007 50.6064 7.7157 51.7275C7.30084 52.7499 6.81684 54.2019 6.6341 54.9871C6.20937 56.7848 6.09577 57.58 6.01675 59.2839C5.96243 60.5037 6.04639 62.504 6.17973 63.1954C6.19455 63.2497 6.21924 63.4078 6.239 63.5411C6.26369 63.6695 6.28345 63.788 6.28345 63.8029C6.28839 63.8177 6.30814 63.9362 6.3279 64.0745C6.481 65.0425 7.03908 67.0032 7.46876 68.0749C8.53554 70.7567 9.88877 72.9989 11.8396 75.3349C12.4866 76.1103 14.2547 77.9229 14.8029 78.3723C14.9807 78.5155 15.1486 78.6587 15.1733 78.6933C15.2276 78.7526 16.0524 79.4243 16.4277 79.7058C18.9959 81.6615 21.7863 83.1333 24.636 84.0272C25.1447 84.1902 26.3102 84.447 26.9819 84.5458C27.54 84.6297 28.0487 84.6939 28.3104 84.7186C28.4487 84.7335 28.6364 84.7532 28.7302 84.768C30.4292 85.01 35.4174 85.0792 37.9164 84.8964C38.9684 84.8174 40.4204 84.6594 41.1167 84.5458C41.6798 84.4569 41.9909 84.3976 42.1884 84.3532C42.2971 84.3285 42.5045 84.284 42.6478 84.2544C43.675 84.047 46.2234 83.1679 48.2632 82.3233C49.6115 81.7652 49.4485 81.8393 52.634 80.2984C53.5427 79.8539 54.4268 79.4341 54.5996 79.3551L54.9108 79.2168L57.1925 79.9774C59.5878 80.7775 60.5854 81.0738 61.9436 81.385C62.1905 81.4442 62.5214 81.5183 62.6844 81.5578C62.8474 81.5973 63.203 81.6714 63.4746 81.7307C63.7463 81.785 64.0574 81.8541 64.1661 81.8788C64.6896 81.9974 65.9588 82.2147 67.154 82.3925C68.1862 82.5456 69.9049 82.6641 71.2878 82.6839C72.1323 82.6937 74.2017 82.6345 74.2659 82.595C74.2807 82.59 74.4684 82.5653 74.6857 82.5456C78.1725 82.2542 81.7086 81.3257 84.825 79.8984C87.8673 78.4958 90.5491 76.5845 92.2925 74.5694C92.4703 74.3669 92.6382 74.1793 92.6678 74.1496C92.8259 74.0064 94.3026 72.105 94.6779 71.5568C96.7275 68.5688 98.1746 66.0105 99.266 63.4571C99.918 61.9261 100.353 60.3951 100.56 58.8888C100.728 57.6541 100.753 57.3479 100.748 56.049C100.748 54.7451 100.728 54.3994 100.56 53.1351C100.032 49.2137 98.224 44.8972 95.5323 41.1437C95.315 40.8326 95.0878 40.5214 95.0335 40.4424C94.8952 40.2498 94.3519 39.5336 94.3174 39.504C94.3026 39.4892 94.1495 39.3015 93.9717 39.0842C92.653 37.4594 90.3861 35.1233 89.0329 33.9973C88.9094 33.8936 88.8008 33.7948 88.7859 33.78C88.7711 33.7602 88.6279 33.6367 88.4649 33.5034C88.3019 33.375 88.1587 33.2515 88.1439 33.2367C88.0698 33.1429 86.8944 32.2193 85.9955 31.5476C82.0445 28.5844 76.7896 25.7199 72.6361 24.2678C69.9593 23.3245 67.6133 22.7516 64.9069 22.3664C64.3142 22.2825 64.1463 22.2627 62.9067 22.1491C61.4596 22.0108 59.4149 21.9664 57.5728 22.0256ZM60.5015 22.8158C60.5459 22.8158 60.5854 22.8356 60.5854 22.8554C60.5854 22.8949 60.2299 22.9591 59.5236 23.0529C56.0615 23.5172 54.4811 23.7987 52.3871 24.3222C51.4586 24.5592 51.2659 24.6185 50.1646 24.9939C46.1345 26.3767 42.6379 28.9646 40.45 32.1749C38.8795 34.4763 37.9213 36.9951 37.5262 39.8497C37.3929 40.8177 37.3633 41.3116 37.3633 42.5908C37.3682 44.023 37.4719 45.2725 37.6695 46.3195C37.8818 47.4653 37.9855 47.9148 38.2374 48.8136C38.5584 49.9397 39.161 51.6584 39.5215 52.4683C40.3216 54.2463 40.8155 55.2242 41.5859 56.5181C43.7195 60.1136 46.8754 63.6843 50.3226 66.3957C50.4906 66.5291 50.6437 66.6525 50.6585 66.6674C50.7227 66.7414 51.6067 67.3983 52.3624 67.9366C53.4489 68.7021 54.5305 69.4035 55.4392 69.922C55.6318 70.0307 55.943 70.2085 56.1307 70.3171C56.6245 70.6036 58.0864 71.3246 58.8519 71.6654C61.2818 72.7371 64.0327 73.6409 66.2848 74.1052C66.3391 74.1151 66.5959 74.1644 66.8528 74.2188C67.3911 74.3324 68.6357 74.5447 69.0061 74.5941C69.1444 74.6089 69.332 74.6336 69.4259 74.6484C72.3249 75.0189 75.2339 75.0534 78.1675 74.7423C78.4935 74.7077 79.659 74.5398 80.0591 74.4706C80.2122 74.446 80.4591 74.4015 80.6073 74.3768C80.7555 74.3472 81.0172 74.2978 81.1901 74.2533C81.3629 74.2138 81.6889 74.1348 81.921 74.0854C83.052 73.8237 84.83 73.2755 85.798 72.8902C87.0228 72.3964 88.5884 71.6358 89.3786 71.1468C89.4724 71.0876 89.586 71.0135 89.6354 70.9888C91.8529 69.68 94.0853 67.6452 95.557 65.5808C97.4239 62.9633 98.6734 59.6296 98.9104 56.6169C98.9944 55.5847 98.9549 53.461 98.8413 52.8585C98.8314 52.8042 98.8067 52.6412 98.7919 52.493C98.6882 51.6683 98.3375 50.2311 97.9671 49.1248C97.3449 47.2678 96.3769 45.2281 95.2607 43.4304C94.5149 42.2253 93.3642 40.6004 92.495 39.5287C92.0505 38.9805 91.5319 38.3483 91.5023 38.3187C91.4874 38.3039 91.3442 38.136 91.1812 37.9483C91.0183 37.7557 90.875 37.5927 90.8602 37.5779C90.8454 37.5631 90.7466 37.4544 90.6429 37.3309C90.4256 37.0791 89.7737 36.3629 89.2551 35.7999C87.7192 34.1306 87.245 33.5676 87.9019 34.1998C91.3343 37.489 92.6876 38.8965 93.9964 40.5412C94.1593 40.7437 94.3026 40.9214 94.3174 40.9363C94.5396 41.1388 96.0904 43.3958 96.6337 44.2946C97.7745 46.1813 98.7376 48.4482 99.2562 50.4434C99.6019 51.767 99.7105 52.3943 99.8933 54.0981C99.9575 54.6809 99.9624 57.0367 99.9031 57.2738C99.8785 57.3726 99.8439 57.5454 99.8241 57.6541C99.6118 59.1061 98.9154 61.5409 98.2141 63.2942C96.9942 66.3562 95.1718 69.4825 92.9345 72.347C92.1443 73.3594 91.0528 74.4953 89.8675 75.5325C89.4971 75.8584 88.6773 76.4807 87.8723 77.0388C86.0795 78.2883 83.2545 79.607 80.7851 80.3478C80.311 80.491 79.2393 80.7824 79.0516 80.817C79.0121 80.8269 78.8195 80.8713 78.6318 80.9158C78.4441 80.9602 78.2021 81.0145 78.0935 81.0392C77.8613 81.0936 76.9575 81.2615 76.6365 81.3109C76.513 81.3306 76.3797 81.3553 76.3402 81.3603C76.2661 81.3751 75.9204 81.4195 75.5994 81.459C73.2139 81.7652 70.3445 81.7702 67.8949 81.4788C66.4231 81.3059 66.0379 81.2467 64.8328 81.0047C64.3587 80.9108 63.9142 80.8219 63.845 80.8121C63.6574 80.7775 62.7239 80.5503 62.3634 80.4466C62.1856 80.3972 61.8201 80.2984 61.5485 80.2243C59.4001 79.6366 56.5653 78.5353 54.2885 77.3994C51.3993 75.9523 48.1841 73.8533 46.1395 72.0753C45.9518 71.9124 45.7147 71.7148 45.6209 71.6358C45.0826 71.1962 44.1837 70.3566 43.275 69.4331C40.8747 66.9933 38.9486 64.356 37.4324 61.4224C36.3706 59.3678 35.3581 56.607 34.884 54.4439C34.8099 54.1179 34.7309 53.7623 34.7062 53.6536C34.6123 53.2388 34.558 52.9425 34.4642 52.3449C34.3802 51.8164 34.3456 51.5448 34.2864 50.9867C34.2617 50.7941 34.1629 49.2976 34.1333 48.7149C34.0691 47.5246 34.2765 45.0898 34.563 43.6279C34.9729 41.5734 35.6001 39.746 36.5582 37.8248C36.6471 37.647 36.7706 37.3803 36.8348 37.2322C37.141 36.5111 38.1633 34.5405 38.6572 33.7256C39.4573 32.3922 40.1635 31.4093 41.26 30.1055C42.0304 29.1968 43.5367 27.7793 44.401 27.157C44.5344 27.0632 44.6974 26.9397 44.7714 26.8805C45.132 26.6039 46.1741 25.9915 46.905 25.631C47.9323 25.1173 48.7867 24.7667 49.9028 24.3913C50.6338 24.1493 52.4611 23.6357 52.9303 23.5369C52.9995 23.5221 53.276 23.4678 53.5477 23.4085C53.8193 23.3492 54.1107 23.29 54.1897 23.2752C54.2737 23.2603 54.4515 23.2258 54.5848 23.2011C55.5627 23.0183 56.6048 22.8751 57.3011 22.8307C57.5481 22.8158 57.7555 22.7911 57.7703 22.7763C57.7901 22.7566 59.6323 22.7813 60.5015 22.8158ZM70.0432 27.6559C72.3003 28.2337 77.0909 30.1993 79.2738 31.439C80.0838 31.8983 81.7827 33.0589 82.5927 33.7009C82.726 33.8096 82.968 33.9973 83.1261 34.1207C83.2841 34.2442 83.5113 34.422 83.6249 34.5158C83.7385 34.6097 84.0101 34.8319 84.2225 35.0097C84.4398 35.1826 84.6225 35.3406 84.6373 35.3554C84.6522 35.3702 84.7954 35.4937 84.9584 35.6271C85.1213 35.7654 85.4424 36.0419 85.6745 36.2494C87.9414 38.2644 89.5613 40.0177 90.0799 41.0103C90.6429 42.0969 90.6034 42.492 89.749 44.2008C88.9884 45.717 88.6131 46.285 88.2427 46.4875C87.9365 46.6554 87.7932 46.6504 87.4031 46.4628C86.84 46.1961 85.9066 45.4108 84.5435 44.0477C83.7187 43.2229 82.3853 41.9635 81.7432 41.4005C81.3185 41.0301 80.0146 39.9831 79.6492 39.7263C79.501 39.6176 79.3677 39.5188 79.3528 39.504C79.259 39.4102 77.6638 38.3829 77.2045 38.1212C77.0415 38.0323 76.8439 37.9187 76.76 37.8742C75.8463 37.3606 72.7645 35.7999 72.6608 35.7999C72.646 35.7999 72.2756 35.6221 71.8311 35.3999C70.0531 34.5109 68.7937 33.9923 66.591 33.2268C65.9638 33.0095 65.4452 32.8268 65.4353 32.8169C65.4057 32.7823 65.5341 32.3724 65.6625 32.0958C65.9539 31.4735 66.7244 30.2191 67.396 29.2807C67.9146 28.5597 68.1023 28.3275 68.5715 27.8583L68.9814 27.4435L69.2431 27.4781C69.3814 27.4978 69.7469 27.5768 70.0432 27.6559ZM58.116 32.8366C58.4815 32.8613 58.9606 32.8959 59.1779 32.9107C59.3952 32.9206 59.6965 32.9453 59.8446 32.9601C60.862 33.0638 61.3855 33.128 62.0918 33.2318C64.1661 33.5478 64.0969 33.533 66.5367 34.4269C69.2629 35.4295 70.9767 36.1259 72.9324 37.0346C74.1424 37.5976 76.1821 38.6792 77.0563 39.2225C80.0937 41.1042 81.8914 42.5562 84.4892 45.2182C87.003 47.7962 88.2328 49.426 89.428 51.7769C90.6824 54.2463 91.4578 56.3749 91.843 58.4196C92.0505 59.5308 92.0702 59.7284 92.0702 60.8149C92.0653 61.7434 92.0505 61.9755 91.9566 62.4249C91.7492 63.4226 91.4479 64.1436 90.9837 64.7659C89.912 66.1982 87.9513 67.6996 85.6004 68.8849C84.0002 69.6948 83.0273 70.0554 81.032 70.5591C80.3702 70.727 79.9653 70.8159 78.6861 71.0629C78.3157 71.132 77.4465 71.2555 77.0563 71.2901C76.8686 71.3049 76.5575 71.3395 76.3649 71.3592C75.9056 71.4086 73.4757 71.4037 72.883 71.3543C71.3569 71.2209 69.8407 70.9937 67.8158 70.5937C66.3984 70.3072 65.9984 70.2035 65.7218 70.0356C65.4304 69.8578 65.3514 69.6899 65.3563 69.2849C65.3711 68.8306 65.7564 67.6946 66.3391 66.3957C66.7639 65.4425 67.4652 63.7238 67.7022 63.0324C68.2751 61.3631 68.4826 59.7185 68.4875 56.8639C68.4875 54.6167 68.3393 52.9128 67.964 50.8138C67.6084 48.8433 66.9268 46.6356 66.1416 44.912C65.8107 44.186 65.7564 44.0724 65.46 43.5291C64.4179 41.6277 63.4845 40.3337 61.9683 38.699C61.1929 37.8594 59.6965 36.6346 58.4124 35.7752C56.2294 34.3183 55.0046 33.3849 55.0046 33.1725C55.0046 32.891 56.5455 32.7231 58.116 32.8366ZM52.6439 33.7158C54.5898 34.3924 56.4912 35.4542 58.5112 37.005C60.1953 38.2891 61.914 39.9979 63.1586 41.6277C64.5464 43.4353 65.4156 45.0947 65.8996 46.848C66.1268 47.6876 66.2404 48.2506 66.2947 48.8383C66.3095 49.0161 66.3293 49.1692 66.3391 49.184C66.349 49.2038 66.3737 49.589 66.3885 50.0533C66.4527 51.688 66.27 53.3672 65.8502 55.1106C65.7613 55.4761 65.5292 56.2416 65.3415 56.7898C64.4821 59.3234 63.1339 61.8718 61.3608 64.3214C60.7385 65.1758 59.5187 66.5241 58.9458 66.9834C58.6593 67.2156 58.3976 67.265 58.116 67.1365C57.5333 66.8748 57.874 66.0796 59.2767 64.4449C59.5434 64.1338 59.7804 63.8671 59.7952 63.8523C59.8496 63.8127 60.6398 62.8052 60.9015 62.4398C62.1659 60.7062 63.4648 57.9998 64.1414 55.7032C64.3537 54.9822 64.6353 53.8117 64.7093 53.3079C64.734 53.1696 64.7587 53.0264 64.7637 52.9869C64.9316 52.1918 65.1044 49.4162 65.055 48.4185C64.981 46.9813 64.6451 45.9393 63.5734 43.8008C62.5857 41.8302 61.6275 40.4671 60.2644 39.0793C58.7087 37.4989 57.2122 36.4568 54.7577 35.2418C52.9155 34.3282 51.7944 33.696 51.7944 33.5626C51.7944 33.4886 52.1796 33.5577 52.6439 33.7158ZM36.3409 35.5382C36.3162 35.5876 35.9606 36.5259 35.5458 37.6273C34.0888 41.5092 33.9555 41.8006 33.353 42.4525C33.1159 42.7142 32.948 42.8179 32.1281 43.2575C31.6046 43.539 30.9181 43.9045 30.607 44.0724C29.0562 44.9071 28.424 45.2429 26.8782 46.038C23.7421 47.6431 22.6308 48.1321 22.2357 48.0827C21.9295 48.0382 21.9246 48.0333 21.2529 46.443C21.1295 46.1418 20.7492 45.2528 20.4133 44.4675C19.9491 43.381 19.8157 43.0204 19.8552 42.976C19.959 42.8772 23.4556 40.5609 23.9643 40.2597C26.0485 39.02 28.8833 37.6618 31.1503 36.8124C32.8097 36.1901 34.0246 35.8493 35.4964 35.5876C36.3557 35.4295 36.4002 35.4295 36.3409 35.5382ZM17.6377 41.3166C17.5093 41.4746 17.3216 41.682 17.2229 41.7759C17.1241 41.8697 16.8574 42.1463 16.6302 42.3932C16.403 42.6352 15.8894 43.1735 15.4943 43.5835C14.709 44.3984 13.9089 45.2528 13.5731 45.6479C13.4546 45.7862 13.2323 46.043 13.0792 46.2158C12.4816 46.9023 12.2199 47.2135 11.9631 47.5542C11.9087 47.6283 11.6717 47.9395 11.4395 48.2506C9.66652 50.5965 8.57999 52.8733 8.09598 55.2834C7.9577 55.9601 7.933 56.1181 7.85892 56.7898C7.79966 57.333 7.79472 57.4219 7.76015 58.7159C7.73051 59.916 7.76015 60.4642 7.91325 61.7286C8.07623 63.0423 8.62443 64.8252 9.27142 66.1488C10.6493 68.9639 12.9113 71.3246 16.0869 73.2705C16.6105 73.5866 18.2156 74.4706 18.2748 74.4706C18.2896 74.4706 18.5514 74.5892 18.8576 74.7373C20.8479 75.6757 23.1198 76.4264 24.9521 76.7425C25.0904 76.7672 25.3867 76.8166 25.6188 76.861C25.8509 76.9005 26.1522 76.945 26.2855 76.9598C26.4238 76.9796 26.6214 76.9993 26.73 77.0141C28.103 77.1771 29.155 77.2364 31.3478 77.266C33.9851 77.3055 36.8397 77.1574 38.0893 76.9203C38.1436 76.9104 38.2868 76.8857 38.4103 76.8709C38.8054 76.8116 39.4079 76.6783 40.2623 76.4659C41.1069 76.2536 41.4032 76.1597 44.4109 75.1868C45.4727 74.846 46.4408 74.5299 46.5642 74.4904L46.7865 74.4213L47.4038 74.7867C47.7397 74.9892 48.5052 75.4436 49.1028 75.7942C50.4659 76.6042 51.177 77.0586 51.8142 77.5376C52.3722 77.9574 52.9797 78.5698 52.9797 78.7131C52.9797 79.3107 47.9125 81.5825 43.8923 82.7876C43.0577 83.0394 41.4229 83.4197 40.4599 83.5827C40.3512 83.6025 40.2179 83.6272 40.1635 83.637C39.0029 83.8445 37.057 84.0717 35.9656 84.126C34.3802 84.2099 31.8071 84.1606 30.7008 84.0272C29.6439 83.9037 28.666 83.7556 28.0882 83.637C28.0191 83.6222 27.9005 83.5975 27.8166 83.5827C26.9918 83.4296 25.762 83.0938 24.6162 82.7135C22.3049 81.948 20.3244 80.9997 18.0625 79.5872C17.5241 79.2465 16.3536 78.4513 16.2845 78.3723C16.2697 78.3575 16.0376 78.1698 15.7709 77.9525C15.1782 77.4784 13.7311 76.0511 13.2274 75.4387C12.5804 74.6633 12.4075 74.441 11.9038 73.7545C10.6296 72.0062 9.38007 69.7442 8.5306 67.6304C7.7157 65.6154 7.27615 64.0004 7.06872 62.2965C7.00451 61.7434 6.99957 61.4125 7.04896 59.8518C7.07859 58.8591 7.11317 57.9948 7.12304 57.9257C7.13786 57.8566 7.17243 57.5553 7.19712 57.259C7.25639 56.6564 7.27615 56.4885 7.31566 56.2712C7.33047 56.1872 7.35517 56.044 7.36998 55.9502C7.61198 54.5229 8.21452 52.8289 9.14795 50.9867C10.6839 47.9543 12.61 45.4059 15.0004 43.2328C15.9734 42.3488 17.7859 40.9461 17.86 41.0153C17.8698 41.0252 17.7711 41.1585 17.6377 41.3166ZM44.2134 42.2697C44.8109 42.2994 45.369 42.329 45.448 42.3389C45.532 42.3488 45.7839 42.3735 46.016 42.3981C46.4951 42.4426 46.4457 42.4377 46.8309 42.487C47.1124 42.5216 47.2902 42.5512 47.9076 42.6648C49.5571 42.9612 51.261 43.4699 52.6834 44.0823C53.3452 44.3687 54.5305 44.9762 54.9799 45.2577C55.1725 45.3762 55.4244 45.5343 55.5479 45.6084C55.7602 45.7368 56.7184 46.4381 57.0443 46.7097C57.4592 47.0455 58.5655 48.1765 58.9408 48.6408C59.6915 49.5643 60.3879 50.7052 60.7287 51.5596C61.1336 52.577 61.1336 53.5796 60.7287 54.8439C60.2348 56.3947 58.7581 59.2345 57.6271 60.8149C56.6097 62.2373 56.4616 62.4101 55.0886 63.7683L53.9033 64.9388L51.6018 62.6274C48.7225 59.7333 48.3224 59.3135 47.3692 58.1973C46.584 57.2688 46.4556 57.1108 45.9469 56.4292C44.3269 54.2611 43.0676 51.9646 42.3514 49.8755C42.1934 49.4112 41.8477 48.1716 41.7983 47.9C41.7835 47.8061 41.739 47.5691 41.6995 47.3814C41.6649 47.1888 41.6155 46.9023 41.5958 46.7393C41.581 46.5764 41.5563 46.3739 41.5464 46.2949C41.5217 46.1516 41.4674 44.9169 41.3933 43.0402L41.3587 42.1561L42.2428 42.1858C42.7268 42.2055 43.6158 42.2401 44.2134 42.2697ZM33.3184 43.9687C33.348 44.0033 33.4023 44.2156 33.432 44.4329C33.4912 44.833 33.4517 45.6973 33.3184 46.8875C33.1011 48.8581 33.2245 51.125 33.669 53.4314C33.6937 53.5796 33.7283 53.7574 33.7431 53.8265C34.0197 55.318 34.6914 57.5158 35.447 59.4073C36.6224 62.3558 38.4695 65.5512 40.2623 67.7243C40.6722 68.2231 41.1562 68.7812 41.5662 69.2306C41.7983 69.4874 42.0255 69.7343 42.065 69.7788C42.1045 69.8282 42.3712 70.1245 42.6576 70.4505C42.9441 70.7715 43.3046 71.1715 43.4627 71.3395L43.7491 71.6457L43.5367 71.7247C43.3392 71.7988 42.8256 71.9568 41.1315 72.4754C40.4401 72.6877 39.7882 72.8458 39.1758 72.9446C39.0128 72.9693 38.835 72.9989 38.7807 73.0088C38.3955 73.073 38.2374 73.0977 37.4966 73.1915C34.7654 73.5323 31.975 73.6755 28.9278 73.6212C27.8561 73.6064 26.8782 73.5767 26.7547 73.5619C25.7966 73.4533 25.5595 73.4236 25.2533 73.3594C24.1075 73.1174 22.7938 72.6334 21.1937 71.8531C17.7513 70.1838 15.2029 68.1144 14.3534 66.297C14.062 65.6747 13.9583 65.2499 13.9287 64.5091C13.8842 63.5065 14.0571 62.5336 14.5411 61.0618C14.9313 59.8617 15.598 58.3356 16.1215 57.4417C16.24 57.2392 16.3339 57.0664 16.3339 57.0515C16.3339 56.9824 17.5933 55.1452 17.9489 54.6908C18.7193 53.6981 19.1638 53.2092 20.3146 52.0634C21.1788 51.204 21.4999 50.9176 22.5518 50.0533C24.1075 48.7791 26.3893 47.248 28.3845 46.1467C28.671 45.9886 29.1253 45.7318 29.397 45.5787C30.7897 44.7836 32.0392 44.1465 32.6319 43.9341C32.7899 43.8748 33.2641 43.8995 33.3184 43.9687ZM63.3363 63.951C63.445 64.4498 63.4648 67.1859 63.3561 67.6057C63.1981 68.233 63.0054 68.4206 62.5363 68.4108C62.235 68.4058 61.5189 68.2033 60.9805 67.9761C60.8324 67.9119 60.4768 67.7687 60.1903 67.6551C59.9039 67.5415 59.6619 67.4428 59.652 67.4279C59.6323 67.4082 60.378 66.5538 61.7461 65.0326C62.072 64.6672 62.5165 64.1634 62.7338 63.9115C63.1882 63.3831 63.2079 63.3831 63.3363 63.951Z"/>
</mask>
<path d="M57.5728 22.0256C56.2936 22.0651 55.2713 22.1442 54.1897 22.2923C54.1107 22.3022 53.9329 22.322 53.7946 22.3417C52.7723 22.4701 50.94 22.8949 49.7448 23.29C47.5668 24.0061 45.1665 25.2704 43.4478 26.599C43.4083 26.6286 43.2207 26.7718 43.028 26.915C42.8404 27.0583 42.6725 27.1867 42.6576 27.2015C42.6428 27.2163 42.5243 27.32 42.386 27.4287C41.8082 27.888 40.8402 28.7671 39.9413 29.6511C38.84 30.7278 38.0695 31.4242 37.8473 31.5377C37.7584 31.5871 37.4867 31.6365 37.2003 31.6563C36.573 31.7057 36.3952 31.7304 35.6692 31.8785C32.9825 32.4267 29.1303 33.6664 26.4436 34.8467C25.4608 35.2764 23.8804 36.0617 23.0062 36.5506C22.6654 36.7432 22.2851 36.9556 22.1617 37.0247C22.0382 37.0939 21.7962 37.2371 21.6184 37.3458C21.4406 37.4544 21.2529 37.568 21.1986 37.5976C21.0801 37.6668 21.0208 37.7014 20.2108 38.2249C16.2746 40.7634 12.9064 43.8502 10.4468 47.1591C9.33562 48.6556 8.17007 50.6064 7.7157 51.7275C7.30084 52.7499 6.81684 54.2019 6.6341 54.9871C6.20937 56.7848 6.09577 57.58 6.01675 59.2839C5.96243 60.5037 6.04639 62.504 6.17973 63.1954C6.19455 63.2497 6.21924 63.4078 6.239 63.5411C6.26369 63.6695 6.28345 63.788 6.28345 63.8029C6.28839 63.8177 6.30814 63.9362 6.3279 64.0745C6.481 65.0425 7.03908 67.0032 7.46876 68.0749C8.53554 70.7567 9.88877 72.9989 11.8396 75.3349C12.4866 76.1103 14.2547 77.9229 14.8029 78.3723C14.9807 78.5155 15.1486 78.6587 15.1733 78.6933C15.2276 78.7526 16.0524 79.4243 16.4277 79.7058C18.9959 81.6615 21.7863 83.1333 24.636 84.0272C25.1447 84.1902 26.3102 84.447 26.9819 84.5458C27.54 84.6297 28.0487 84.6939 28.3104 84.7186C28.4487 84.7335 28.6364 84.7532 28.7302 84.768C30.4292 85.01 35.4174 85.0792 37.9164 84.8964C38.9684 84.8174 40.4204 84.6594 41.1167 84.5458C41.6798 84.4569 41.9909 84.3976 42.1884 84.3532C42.2971 84.3285 42.5045 84.284 42.6478 84.2544C43.675 84.047 46.2234 83.1679 48.2632 82.3233C49.6115 81.7652 49.4485 81.8393 52.634 80.2984C53.5427 79.8539 54.4268 79.4341 54.5996 79.3551L54.9108 79.2168L57.1925 79.9774C59.5878 80.7775 60.5854 81.0738 61.9436 81.385C62.1905 81.4442 62.5214 81.5183 62.6844 81.5578C62.8474 81.5973 63.203 81.6714 63.4746 81.7307C63.7463 81.785 64.0574 81.8541 64.1661 81.8788C64.6896 81.9974 65.9588 82.2147 67.154 82.3925C68.1862 82.5456 69.9049 82.6641 71.2878 82.6839C72.1323 82.6937 74.2017 82.6345 74.2659 82.595C74.2807 82.59 74.4684 82.5653 74.6857 82.5456C78.1725 82.2542 81.7086 81.3257 84.825 79.8984C87.8673 78.4958 90.5491 76.5845 92.2925 74.5694C92.4703 74.3669 92.6382 74.1793 92.6678 74.1496C92.8259 74.0064 94.3026 72.105 94.6779 71.5568C96.7275 68.5688 98.1746 66.0105 99.266 63.4571C99.918 61.9261 100.353 60.3951 100.56 58.8888C100.728 57.6541 100.753 57.3479 100.748 56.049C100.748 54.7451 100.728 54.3994 100.56 53.1351C100.032 49.2137 98.224 44.8972 95.5323 41.1437C95.315 40.8326 95.0878 40.5214 95.0335 40.4424C94.8952 40.2498 94.3519 39.5336 94.3174 39.504C94.3026 39.4892 94.1495 39.3015 93.9717 39.0842C92.653 37.4594 90.3861 35.1233 89.0329 33.9973C88.9094 33.8936 88.8008 33.7948 88.7859 33.78C88.7711 33.7602 88.6279 33.6367 88.4649 33.5034C88.3019 33.375 88.1587 33.2515 88.1439 33.2367C88.0698 33.1429 86.8944 32.2193 85.9955 31.5476C82.0445 28.5844 76.7896 25.7199 72.6361 24.2678C69.9593 23.3245 67.6133 22.7516 64.9069 22.3664C64.3142 22.2825 64.1463 22.2627 62.9067 22.1491C61.4596 22.0108 59.4149 21.9664 57.5728 22.0256ZM60.5015 22.8158C60.5459 22.8158 60.5854 22.8356 60.5854 22.8554C60.5854 22.8949 60.2299 22.9591 59.5236 23.0529C56.0615 23.5172 54.4811 23.7987 52.3871 24.3222C51.4586 24.5592 51.2659 24.6185 50.1646 24.9939C46.1345 26.3767 42.6379 28.9646 40.45 32.1749C38.8795 34.4763 37.9213 36.9951 37.5262 39.8497C37.3929 40.8177 37.3633 41.3116 37.3633 42.5908C37.3682 44.023 37.4719 45.2725 37.6695 46.3195C37.8818 47.4653 37.9855 47.9148 38.2374 48.8136C38.5584 49.9397 39.161 51.6584 39.5215 52.4683C40.3216 54.2463 40.8155 55.2242 41.5859 56.5181C43.7195 60.1136 46.8754 63.6843 50.3226 66.3957C50.4906 66.5291 50.6437 66.6525 50.6585 66.6674C50.7227 66.7414 51.6067 67.3983 52.3624 67.9366C53.4489 68.7021 54.5305 69.4035 55.4392 69.922C55.6318 70.0307 55.943 70.2085 56.1307 70.3171C56.6245 70.6036 58.0864 71.3246 58.8519 71.6654C61.2818 72.7371 64.0327 73.6409 66.2848 74.1052C66.3391 74.1151 66.5959 74.1644 66.8528 74.2188C67.3911 74.3324 68.6357 74.5447 69.0061 74.5941C69.1444 74.6089 69.332 74.6336 69.4259 74.6484C72.3249 75.0189 75.2339 75.0534 78.1675 74.7423C78.4935 74.7077 79.659 74.5398 80.0591 74.4706C80.2122 74.446 80.4591 74.4015 80.6073 74.3768C80.7555 74.3472 81.0172 74.2978 81.1901 74.2533C81.3629 74.2138 81.6889 74.1348 81.921 74.0854C83.052 73.8237 84.83 73.2755 85.798 72.8902C87.0228 72.3964 88.5884 71.6358 89.3786 71.1468C89.4724 71.0876 89.586 71.0135 89.6354 70.9888C91.8529 69.68 94.0853 67.6452 95.557 65.5808C97.4239 62.9633 98.6734 59.6296 98.9104 56.6169C98.9944 55.5847 98.9549 53.461 98.8413 52.8585C98.8314 52.8042 98.8067 52.6412 98.7919 52.493C98.6882 51.6683 98.3375 50.2311 97.9671 49.1248C97.3449 47.2678 96.3769 45.2281 95.2607 43.4304C94.5149 42.2253 93.3642 40.6004 92.495 39.5287C92.0505 38.9805 91.5319 38.3483 91.5023 38.3187C91.4874 38.3039 91.3442 38.136 91.1812 37.9483C91.0183 37.7557 90.875 37.5927 90.8602 37.5779C90.8454 37.5631 90.7466 37.4544 90.6429 37.3309C90.4256 37.0791 89.7737 36.3629 89.2551 35.7999C87.7192 34.1306 87.245 33.5676 87.9019 34.1998C91.3343 37.489 92.6876 38.8965 93.9964 40.5412C94.1593 40.7437 94.3026 40.9214 94.3174 40.9363C94.5396 41.1388 96.0904 43.3958 96.6337 44.2946C97.7745 46.1813 98.7376 48.4482 99.2562 50.4434C99.6019 51.767 99.7105 52.3943 99.8933 54.0981C99.9575 54.6809 99.9624 57.0367 99.9031 57.2738C99.8785 57.3726 99.8439 57.5454 99.8241 57.6541C99.6118 59.1061 98.9154 61.5409 98.2141 63.2942C96.9942 66.3562 95.1718 69.4825 92.9345 72.347C92.1443 73.3594 91.0528 74.4953 89.8675 75.5325C89.4971 75.8584 88.6773 76.4807 87.8723 77.0388C86.0795 78.2883 83.2545 79.607 80.7851 80.3478C80.311 80.491 79.2393 80.7824 79.0516 80.817C79.0121 80.8269 78.8195 80.8713 78.6318 80.9158C78.4441 80.9602 78.2021 81.0145 78.0935 81.0392C77.8613 81.0936 76.9575 81.2615 76.6365 81.3109C76.513 81.3306 76.3797 81.3553 76.3402 81.3603C76.2661 81.3751 75.9204 81.4195 75.5994 81.459C73.2139 81.7652 70.3445 81.7702 67.8949 81.4788C66.4231 81.3059 66.0379 81.2467 64.8328 81.0047C64.3587 80.9108 63.9142 80.8219 63.845 80.8121C63.6574 80.7775 62.7239 80.5503 62.3634 80.4466C62.1856 80.3972 61.8201 80.2984 61.5485 80.2243C59.4001 79.6366 56.5653 78.5353 54.2885 77.3994C51.3993 75.9523 48.1841 73.8533 46.1395 72.0753C45.9518 71.9124 45.7147 71.7148 45.6209 71.6358C45.0826 71.1962 44.1837 70.3566 43.275 69.4331C40.8747 66.9933 38.9486 64.356 37.4324 61.4224C36.3706 59.3678 35.3581 56.607 34.884 54.4439C34.8099 54.1179 34.7309 53.7623 34.7062 53.6536C34.6123 53.2388 34.558 52.9425 34.4642 52.3449C34.3802 51.8164 34.3456 51.5448 34.2864 50.9867C34.2617 50.7941 34.1629 49.2976 34.1333 48.7149C34.0691 47.5246 34.2765 45.0898 34.563 43.6279C34.9729 41.5734 35.6001 39.746 36.5582 37.8248C36.6471 37.647 36.7706 37.3803 36.8348 37.2322C37.141 36.5111 38.1633 34.5405 38.6572 33.7256C39.4573 32.3922 40.1635 31.4093 41.26 30.1055C42.0304 29.1968 43.5367 27.7793 44.401 27.157C44.5344 27.0632 44.6974 26.9397 44.7714 26.8805C45.132 26.6039 46.1741 25.9915 46.905 25.631C47.9323 25.1173 48.7867 24.7667 49.9028 24.3913C50.6338 24.1493 52.4611 23.6357 52.9303 23.5369C52.9995 23.5221 53.276 23.4678 53.5477 23.4085C53.8193 23.3492 54.1107 23.29 54.1897 23.2752C54.2737 23.2603 54.4515 23.2258 54.5848 23.2011C55.5627 23.0183 56.6048 22.8751 57.3011 22.8307C57.5481 22.8158 57.7555 22.7911 57.7703 22.7763C57.7901 22.7566 59.6323 22.7813 60.5015 22.8158ZM70.0432 27.6559C72.3003 28.2337 77.0909 30.1993 79.2738 31.439C80.0838 31.8983 81.7827 33.0589 82.5927 33.7009C82.726 33.8096 82.968 33.9973 83.1261 34.1207C83.2841 34.2442 83.5113 34.422 83.6249 34.5158C83.7385 34.6097 84.0101 34.8319 84.2225 35.0097C84.4398 35.1826 84.6225 35.3406 84.6373 35.3554C84.6522 35.3702 84.7954 35.4937 84.9584 35.6271C85.1213 35.7654 85.4424 36.0419 85.6745 36.2494C87.9414 38.2644 89.5613 40.0177 90.0799 41.0103C90.6429 42.0969 90.6034 42.492 89.749 44.2008C88.9884 45.717 88.6131 46.285 88.2427 46.4875C87.9365 46.6554 87.7932 46.6504 87.4031 46.4628C86.84 46.1961 85.9066 45.4108 84.5435 44.0477C83.7187 43.2229 82.3853 41.9635 81.7432 41.4005C81.3185 41.0301 80.0146 39.9831 79.6492 39.7263C79.501 39.6176 79.3677 39.5188 79.3528 39.504C79.259 39.4102 77.6638 38.3829 77.2045 38.1212C77.0415 38.0323 76.8439 37.9187 76.76 37.8742C75.8463 37.3606 72.7645 35.7999 72.6608 35.7999C72.646 35.7999 72.2756 35.6221 71.8311 35.3999C70.0531 34.5109 68.7937 33.9923 66.591 33.2268C65.9638 33.0095 65.4452 32.8268 65.4353 32.8169C65.4057 32.7823 65.5341 32.3724 65.6625 32.0958C65.9539 31.4735 66.7244 30.2191 67.396 29.2807C67.9146 28.5597 68.1023 28.3275 68.5715 27.8583L68.9814 27.4435L69.2431 27.4781C69.3814 27.4978 69.7469 27.5768 70.0432 27.6559ZM58.116 32.8366C58.4815 32.8613 58.9606 32.8959 59.1779 32.9107C59.3952 32.9206 59.6965 32.9453 59.8446 32.9601C60.862 33.0638 61.3855 33.128 62.0918 33.2318C64.1661 33.5478 64.0969 33.533 66.5367 34.4269C69.2629 35.4295 70.9767 36.1259 72.9324 37.0346C74.1424 37.5976 76.1821 38.6792 77.0563 39.2225C80.0937 41.1042 81.8914 42.5562 84.4892 45.2182C87.003 47.7962 88.2328 49.426 89.428 51.7769C90.6824 54.2463 91.4578 56.3749 91.843 58.4196C92.0505 59.5308 92.0702 59.7284 92.0702 60.8149C92.0653 61.7434 92.0505 61.9755 91.9566 62.4249C91.7492 63.4226 91.4479 64.1436 90.9837 64.7659C89.912 66.1982 87.9513 67.6996 85.6004 68.8849C84.0002 69.6948 83.0273 70.0554 81.032 70.5591C80.3702 70.727 79.9653 70.8159 78.6861 71.0629C78.3157 71.132 77.4465 71.2555 77.0563 71.2901C76.8686 71.3049 76.5575 71.3395 76.3649 71.3592C75.9056 71.4086 73.4757 71.4037 72.883 71.3543C71.3569 71.2209 69.8407 70.9937 67.8158 70.5937C66.3984 70.3072 65.9984 70.2035 65.7218 70.0356C65.4304 69.8578 65.3514 69.6899 65.3563 69.2849C65.3711 68.8306 65.7564 67.6946 66.3391 66.3957C66.7639 65.4425 67.4652 63.7238 67.7022 63.0324C68.2751 61.3631 68.4826 59.7185 68.4875 56.8639C68.4875 54.6167 68.3393 52.9128 67.964 50.8138C67.6084 48.8433 66.9268 46.6356 66.1416 44.912C65.8107 44.186 65.7564 44.0724 65.46 43.5291C64.4179 41.6277 63.4845 40.3337 61.9683 38.699C61.1929 37.8594 59.6965 36.6346 58.4124 35.7752C56.2294 34.3183 55.0046 33.3849 55.0046 33.1725C55.0046 32.891 56.5455 32.7231 58.116 32.8366ZM52.6439 33.7158C54.5898 34.3924 56.4912 35.4542 58.5112 37.005C60.1953 38.2891 61.914 39.9979 63.1586 41.6277C64.5464 43.4353 65.4156 45.0947 65.8996 46.848C66.1268 47.6876 66.2404 48.2506 66.2947 48.8383C66.3095 49.0161 66.3293 49.1692 66.3391 49.184C66.349 49.2038 66.3737 49.589 66.3885 50.0533C66.4527 51.688 66.27 53.3672 65.8502 55.1106C65.7613 55.4761 65.5292 56.2416 65.3415 56.7898C64.4821 59.3234 63.1339 61.8718 61.3608 64.3214C60.7385 65.1758 59.5187 66.5241 58.9458 66.9834C58.6593 67.2156 58.3976 67.265 58.116 67.1365C57.5333 66.8748 57.874 66.0796 59.2767 64.4449C59.5434 64.1338 59.7804 63.8671 59.7952 63.8523C59.8496 63.8127 60.6398 62.8052 60.9015 62.4398C62.1659 60.7062 63.4648 57.9998 64.1414 55.7032C64.3537 54.9822 64.6353 53.8117 64.7093 53.3079C64.734 53.1696 64.7587 53.0264 64.7637 52.9869C64.9316 52.1918 65.1044 49.4162 65.055 48.4185C64.981 46.9813 64.6451 45.9393 63.5734 43.8008C62.5857 41.8302 61.6275 40.4671 60.2644 39.0793C58.7087 37.4989 57.2122 36.4568 54.7577 35.2418C52.9155 34.3282 51.7944 33.696 51.7944 33.5626C51.7944 33.4886 52.1796 33.5577 52.6439 33.7158ZM36.3409 35.5382C36.3162 35.5876 35.9606 36.5259 35.5458 37.6273C34.0888 41.5092 33.9555 41.8006 33.353 42.4525C33.1159 42.7142 32.948 42.8179 32.1281 43.2575C31.6046 43.539 30.9181 43.9045 30.607 44.0724C29.0562 44.9071 28.424 45.2429 26.8782 46.038C23.7421 47.6431 22.6308 48.1321 22.2357 48.0827C21.9295 48.0382 21.9246 48.0333 21.2529 46.443C21.1295 46.1418 20.7492 45.2528 20.4133 44.4675C19.9491 43.381 19.8157 43.0204 19.8552 42.976C19.959 42.8772 23.4556 40.5609 23.9643 40.2597C26.0485 39.02 28.8833 37.6618 31.1503 36.8124C32.8097 36.1901 34.0246 35.8493 35.4964 35.5876C36.3557 35.4295 36.4002 35.4295 36.3409 35.5382ZM17.6377 41.3166C17.5093 41.4746 17.3216 41.682 17.2229 41.7759C17.1241 41.8697 16.8574 42.1463 16.6302 42.3932C16.403 42.6352 15.8894 43.1735 15.4943 43.5835C14.709 44.3984 13.9089 45.2528 13.5731 45.6479C13.4546 45.7862 13.2323 46.043 13.0792 46.2158C12.4816 46.9023 12.2199 47.2135 11.9631 47.5542C11.9087 47.6283 11.6717 47.9395 11.4395 48.2506C9.66652 50.5965 8.57999 52.8733 8.09598 55.2834C7.9577 55.9601 7.933 56.1181 7.85892 56.7898C7.79966 57.333 7.79472 57.4219 7.76015 58.7159C7.73051 59.916 7.76015 60.4642 7.91325 61.7286C8.07623 63.0423 8.62443 64.8252 9.27142 66.1488C10.6493 68.9639 12.9113 71.3246 16.0869 73.2705C16.6105 73.5866 18.2156 74.4706 18.2748 74.4706C18.2896 74.4706 18.5514 74.5892 18.8576 74.7373C20.8479 75.6757 23.1198 76.4264 24.9521 76.7425C25.0904 76.7672 25.3867 76.8166 25.6188 76.861C25.8509 76.9005 26.1522 76.945 26.2855 76.9598C26.4238 76.9796 26.6214 76.9993 26.73 77.0141C28.103 77.1771 29.155 77.2364 31.3478 77.266C33.9851 77.3055 36.8397 77.1574 38.0893 76.9203C38.1436 76.9104 38.2868 76.8857 38.4103 76.8709C38.8054 76.8116 39.4079 76.6783 40.2623 76.4659C41.1069 76.2536 41.4032 76.1597 44.4109 75.1868C45.4727 74.846 46.4408 74.5299 46.5642 74.4904L46.7865 74.4213L47.4038 74.7867C47.7397 74.9892 48.5052 75.4436 49.1028 75.7942C50.4659 76.6042 51.177 77.0586 51.8142 77.5376C52.3722 77.9574 52.9797 78.5698 52.9797 78.7131C52.9797 79.3107 47.9125 81.5825 43.8923 82.7876C43.0577 83.0394 41.4229 83.4197 40.4599 83.5827C40.3512 83.6025 40.2179 83.6272 40.1635 83.637C39.0029 83.8445 37.057 84.0717 35.9656 84.126C34.3802 84.2099 31.8071 84.1606 30.7008 84.0272C29.6439 83.9037 28.666 83.7556 28.0882 83.637C28.0191 83.6222 27.9005 83.5975 27.8166 83.5827C26.9918 83.4296 25.762 83.0938 24.6162 82.7135C22.3049 81.948 20.3244 80.9997 18.0625 79.5872C17.5241 79.2465 16.3536 78.4513 16.2845 78.3723C16.2697 78.3575 16.0376 78.1698 15.7709 77.9525C15.1782 77.4784 13.7311 76.0511 13.2274 75.4387C12.5804 74.6633 12.4075 74.441 11.9038 73.7545C10.6296 72.0062 9.38007 69.7442 8.5306 67.6304C7.7157 65.6154 7.27615 64.0004 7.06872 62.2965C7.00451 61.7434 6.99957 61.4125 7.04896 59.8518C7.07859 58.8591 7.11317 57.9948 7.12304 57.9257C7.13786 57.8566 7.17243 57.5553 7.19712 57.259C7.25639 56.6564 7.27615 56.4885 7.31566 56.2712C7.33047 56.1872 7.35517 56.044 7.36998 55.9502C7.61198 54.5229 8.21452 52.8289 9.14795 50.9867C10.6839 47.9543 12.61 45.4059 15.0004 43.2328C15.9734 42.3488 17.7859 40.9461 17.86 41.0153C17.8698 41.0252 17.7711 41.1585 17.6377 41.3166ZM44.2134 42.2697C44.8109 42.2994 45.369 42.329 45.448 42.3389C45.532 42.3488 45.7839 42.3735 46.016 42.3981C46.4951 42.4426 46.4457 42.4377 46.8309 42.487C47.1124 42.5216 47.2902 42.5512 47.9076 42.6648C49.5571 42.9612 51.261 43.4699 52.6834 44.0823C53.3452 44.3687 54.5305 44.9762 54.9799 45.2577C55.1725 45.3762 55.4244 45.5343 55.5479 45.6084C55.7602 45.7368 56.7184 46.4381 57.0443 46.7097C57.4592 47.0455 58.5655 48.1765 58.9408 48.6408C59.6915 49.5643 60.3879 50.7052 60.7287 51.5596C61.1336 52.577 61.1336 53.5796 60.7287 54.8439C60.2348 56.3947 58.7581 59.2345 57.6271 60.8149C56.6097 62.2373 56.4616 62.4101 55.0886 63.7683L53.9033 64.9388L51.6018 62.6274C48.7225 59.7333 48.3224 59.3135 47.3692 58.1973C46.584 57.2688 46.4556 57.1108 45.9469 56.4292C44.3269 54.2611 43.0676 51.9646 42.3514 49.8755C42.1934 49.4112 41.8477 48.1716 41.7983 47.9C41.7835 47.8061 41.739 47.5691 41.6995 47.3814C41.6649 47.1888 41.6155 46.9023 41.5958 46.7393C41.581 46.5764 41.5563 46.3739 41.5464 46.2949C41.5217 46.1516 41.4674 44.9169 41.3933 43.0402L41.3587 42.1561L42.2428 42.1858C42.7268 42.2055 43.6158 42.2401 44.2134 42.2697ZM33.3184 43.9687C33.348 44.0033 33.4023 44.2156 33.432 44.4329C33.4912 44.833 33.4517 45.6973 33.3184 46.8875C33.1011 48.8581 33.2245 51.125 33.669 53.4314C33.6937 53.5796 33.7283 53.7574 33.7431 53.8265C34.0197 55.318 34.6914 57.5158 35.447 59.4073C36.6224 62.3558 38.4695 65.5512 40.2623 67.7243C40.6722 68.2231 41.1562 68.7812 41.5662 69.2306C41.7983 69.4874 42.0255 69.7343 42.065 69.7788C42.1045 69.8282 42.3712 70.1245 42.6576 70.4505C42.9441 70.7715 43.3046 71.1715 43.4627 71.3395L43.7491 71.6457L43.5367 71.7247C43.3392 71.7988 42.8256 71.9568 41.1315 72.4754C40.4401 72.6877 39.7882 72.8458 39.1758 72.9446C39.0128 72.9693 38.835 72.9989 38.7807 73.0088C38.3955 73.073 38.2374 73.0977 37.4966 73.1915C34.7654 73.5323 31.975 73.6755 28.9278 73.6212C27.8561 73.6064 26.8782 73.5767 26.7547 73.5619C25.7966 73.4533 25.5595 73.4236 25.2533 73.3594C24.1075 73.1174 22.7938 72.6334 21.1937 71.8531C17.7513 70.1838 15.2029 68.1144 14.3534 66.297C14.062 65.6747 13.9583 65.2499 13.9287 64.5091C13.8842 63.5065 14.0571 62.5336 14.5411 61.0618C14.9313 59.8617 15.598 58.3356 16.1215 57.4417C16.24 57.2392 16.3339 57.0664 16.3339 57.0515C16.3339 56.9824 17.5933 55.1452 17.9489 54.6908C18.7193 53.6981 19.1638 53.2092 20.3146 52.0634C21.1788 51.204 21.4999 50.9176 22.5518 50.0533C24.1075 48.7791 26.3893 47.248 28.3845 46.1467C28.671 45.9886 29.1253 45.7318 29.397 45.5787C30.7897 44.7836 32.0392 44.1465 32.6319 43.9341C32.7899 43.8748 33.2641 43.8995 33.3184 43.9687ZM63.3363 63.951C63.445 64.4498 63.4648 67.1859 63.3561 67.6057C63.1981 68.233 63.0054 68.4206 62.5363 68.4108C62.235 68.4058 61.5189 68.2033 60.9805 67.9761C60.8324 67.9119 60.4768 67.7687 60.1903 67.6551C59.9039 67.5415 59.6619 67.4428 59.652 67.4279C59.6323 67.4082 60.378 66.5538 61.7461 65.0326C62.072 64.6672 62.5165 64.1634 62.7338 63.9115C63.1882 63.3831 63.2079 63.3831 63.3363 63.951Z" fill="#434343" stroke="black" stroke-width="2" mask="url(#path-1-inside-1_46_205)"/>
<path d="M35.787 47.421C35.7377 47.5346 35.7377 47.6482 35.787 48.0137C36.0241 49.7225 37.1353 52.7697 38.6022 55.6984C39.585 57.6591 40.2665 58.7506 41.7877 60.7903C42.1482 61.2743 42.9433 62.2473 43.2989 62.6424C43.4224 62.7757 43.6545 63.0424 43.8175 63.235C43.9805 63.4227 44.5682 64.0351 45.1263 64.5932C47.7834 67.2552 50.5837 69.3542 54.0062 71.2556C55.9966 72.3619 56.7522 72.7422 56.9399 72.7422C57.0683 72.7422 57.0831 72.7274 57.0683 72.6088C57.0584 72.5101 56.9695 72.4212 56.7078 72.2384C56.1941 71.8878 55.1965 71.3149 53.9075 70.6284C52.1542 69.695 50.4009 68.4899 48.7316 67.0725C46.5684 65.2402 44.1929 62.7115 42.4495 60.3903C41.6247 59.2889 40.469 57.6147 40.0838 56.9529C40.0344 56.8788 39.827 56.5232 39.6195 56.1725C39.1257 55.3428 38.3009 53.7427 37.9157 52.8636C37.3032 51.4758 36.9724 50.5473 36.5032 48.9125C36.2859 48.147 36.0636 47.5445 35.9401 47.3963L35.8512 47.2827L35.787 47.421Z" fill="#434343"/>
<path d="M93.0564 70.7718C92.9478 70.831 92.3798 71.1916 91.797 71.5817C89.9302 72.8214 88.0633 73.819 85.8705 74.7426C84.858 75.1722 83.9888 75.6068 83.7912 75.7846C83.653 75.9081 83.6727 76.002 83.8357 76.002C83.969 76.002 84.7642 75.7945 84.9568 75.7056C85.0111 75.6809 85.1988 75.6068 85.3766 75.5377C86.3594 75.1574 87.9398 74.387 89.6733 73.4486C90.3845 73.0584 92.1329 71.9917 92.1921 71.9028C92.2069 71.883 92.2662 71.8435 92.3304 71.8089C92.6514 71.641 93.4268 70.8607 93.4268 70.7076C93.4268 70.6384 93.2589 70.6631 93.0564 70.7718Z" fill="#434343"/>
<path d="M57.793 72.8904C57.6992 73.0435 59.2944 73.8831 60.9044 74.5301C61.4033 74.7326 62.1293 74.9202 62.1836 74.861C62.2774 74.7671 61.9367 74.5399 61.0032 74.0806C59.8179 73.4929 58.7857 73.0632 58.2227 72.92C57.877 72.8262 57.8325 72.8262 57.793 72.8904Z" fill="#434343"/>
<path d="M63.5954 75.0081C63.3831 75.0526 63.1016 75.1958 63.1016 75.2649C63.1016 75.4328 64.119 75.4971 64.356 75.3439C64.682 75.1316 64.1535 74.8995 63.5954 75.0081Z" fill="#434343"/>
<path d="M67.7616 76.1044C67.5196 76.1636 67.4061 76.2723 67.495 76.3612C67.574 76.4402 68.7593 76.4698 68.947 76.4007C69.1198 76.3365 69.1198 76.2328 68.947 76.1538C68.7692 76.0698 68.0234 76.0402 67.7616 76.1044Z" fill="#434343"/>
<path d="M81.6404 76.0944C81.4527 76.1438 81.2305 76.2771 81.2305 76.3463C81.2305 76.4302 81.4873 76.4697 81.9812 76.4697C82.3713 76.4697 82.48 76.4549 82.5491 76.3808C82.6331 76.3018 82.6281 76.2919 82.5244 76.1882C82.4405 76.1043 82.3516 76.0746 82.1096 76.0697C81.9367 76.0598 81.7243 76.0746 81.6404 76.0944Z" fill="#434343"/>
<path d="M72.9613 76.6139C71.8599 76.6781 71.5488 76.7373 71.8698 76.8262C72.0575 76.8756 77.8803 76.8756 78.1322 76.8262C78.2606 76.7966 78.305 76.767 78.2705 76.7324C78.1322 76.5941 74.68 76.5151 72.9613 76.6139Z" fill="#434343"/>
<path d="M11.0508 71.7184C11.0508 71.8419 11.9299 72.7605 12.4781 73.2198C12.5719 73.2939 12.7003 73.4025 12.7547 73.4568C13.451 74.0989 15.7229 75.6793 16.3205 75.9262C16.5378 76.0151 16.5328 76.0201 16.5328 75.9213C16.5328 75.8126 16.2118 75.5213 15.6192 75.0965C15.3475 74.9039 15.1154 74.731 15.1006 74.7162C15.0858 74.7014 14.8536 74.5286 14.582 74.3261C14.0536 73.931 13.2634 73.3136 12.9769 73.0617C12.8781 72.9827 12.6806 72.8148 12.5324 72.6913C12.3892 72.5679 12.1571 72.3752 12.0188 72.2567C11.6928 71.9801 11.2088 71.6542 11.1199 71.6542C11.0804 71.6542 11.0508 71.6838 11.0508 71.7184Z" fill="#434343"/>
<path d="M46.7292 75.7784C46.181 75.9167 44.4524 76.4896 43.5189 76.8402C43.1387 76.9785 42.4176 77.2403 41.9138 77.4131C40.7927 77.8033 40.3828 77.9712 40.3828 78.0403C40.3828 78.1045 40.8322 78.0502 41.3113 77.9218C42.3731 77.6452 45.1636 76.7464 45.7414 76.4945C45.7957 76.4747 46.0525 76.371 46.3094 76.2673C46.9761 76.0056 47.3465 75.8129 47.3465 75.729C47.3465 75.6352 47.2625 75.6401 46.7292 75.7784Z" fill="#434343"/>
<path d="M21.9629 78.2528C21.4246 78.4405 21.5234 78.5886 22.2 78.6084C22.7334 78.6282 22.9507 78.5738 22.9507 78.4257C22.9507 78.1935 22.4074 78.1046 21.9629 78.2528Z" fill="#434343"/>
<path d="M37.8794 78.277C37.4102 78.4598 37.588 78.6178 38.2745 78.6228C38.7486 78.6277 38.9511 78.5684 38.9511 78.4203C38.9511 78.1832 38.3387 78.0993 37.8794 78.277Z" fill="#434343"/>
<path d="M24.0864 78.7808C23.5036 78.9783 23.8197 79.1314 24.763 79.1018C25.247 79.0919 25.3853 79.0722 25.4495 79.003C25.5235 78.9289 25.5186 78.9191 25.3655 78.8351C25.1581 78.7264 24.3481 78.6919 24.0864 78.7808Z" fill="#434343"/>
<path d="M34.5148 78.7715C34.3567 78.8209 34.3567 78.8209 34.4308 78.9641L34.5098 79.1123H35.1025C36.0458 79.1123 36.4261 78.9543 35.8779 78.7913C35.5963 78.7073 34.7814 78.6974 34.5148 78.7715Z" fill="#434343"/>
<path d="M28.4864 79.3301C28.1308 79.3894 28.0469 79.4783 28.2938 79.5326C28.5111 79.582 30.9657 79.582 31.2373 79.5376C31.5188 79.4882 31.4793 79.3993 31.1435 79.3252C30.7978 79.2561 28.9062 79.2561 28.4864 79.3301Z" fill="#434343"/>
<path d="M88.1445 2.50293C93.1477 2.50658 97.3593 3.75986 100.303 6.70215C103.247 9.64496 104.5 13.8559 104.5 18.8604V88.1436C104.5 93.1477 103.247 97.3601 100.304 100.304C97.36 103.247 93.147 104.5 88.1426 104.5C78.9034 104.5 28.1133 104.499 18.8574 104.5C13.8456 104.501 9.62727 103.249 6.68262 100.305C3.73727 97.3593 2.49024 93.1441 2.5 88.1387C2.51809 78.903 2.51805 28.0997 2.5 18.8652C2.49021 13.8582 3.74319 9.64358 6.69043 6.69922C9.63629 3.75626 13.8534 2.50335 18.8574 2.50293C28.0955 2.50216 78.9048 2.49618 88.1445 2.50293Z" fill="#3A3A3A" fill-opacity="0.24" stroke="#383838" stroke-width="5"/>
</svg>
