<svg width="119" height="98" viewBox="0 0 119 98" fill="none" xmlns="http://www.w3.org/2000/svg">
<path d="M100.9 73.6C100.9 71.2 99.4 69 96.6 69H85.8C83.1 69 81.5 71.1 81.5 73.6V93C81.5 95.1 83.1 97.3 85.8 97.3C88.5 97.3 96.6 97.3 96.7 97.3C98.8 97.3 100.9 95.6 100.9 93V73.6ZM92.3 90.3H90.2V76.1H92.3V90.3Z" fill="white"/>
<path d="M68.7 69H60.1V70.9H58.5V77.9H60.1V93.1C60.1 95.4 61.9 97.4 64.4 97.4H75.2C77.6 97.4 79.5 95.6 79.5 93.1V79.7H70.9V90.3H68.8V77.9H79.6V70.9H68.8V69H68.7Z" fill="white"/>
<path d="M48.2 90.3H46.1V69H37.5V93C37.5 95.1 39.2 97.3 41.8 97.3C44.4 97.3 52.6 97.3 52.7 97.3C55 97.3 56.9 95.2 56.9 93V69H48.3V90.3H48.2Z" fill="white"/>
<path d="M30.9008 69H20.1008C17.9008 69 15.8008 70.7 15.8008 73.6V77.8H24.4008V76H26.5008V79.6H20.1008C17.5008 79.6 15.8008 81.7 15.8008 84.2V93C15.8008 95.5 17.7008 97.3 20.1008 97.3H35.2008V73.6C35.2008 71 33.4008 69 30.9008 69ZM26.6008 90.3H24.5008V86.7H26.6008V90.3Z" fill="white"/>
<path d="M118 61.7V50.1H109.4V59H107.3V48.3H118.1V41.3H107.3V38H98.7V41.3H97V48.3H98.7V61.6C98.7 63.6 100.3 65.9 103 65.9H113.8C116.5 65.9 118.1 63.7 118.1 61.6L118 61.7Z" fill="white"/>
<path d="M36.1906 38C33.9906 38 31.8906 39.8065 31.8906 42.3154V66H40.5906V53.7563H51.2906V46.7312H40.5906V45.0251H51.8906V38.0996L36.1906 38Z" fill="white"/>
<path d="M72.4 61.6996V57.2996H63.7V58.9996H61.6V55.4996H72.4V42.3996C72.4 39.7996 70.1 38.0996 68.1 38.0996H57.3C54.8 38.0996 53 40.1996 53 42.3996V61.6996C53 63.9996 54.7 65.9996 57.3 65.9996H68.1C70.2 65.9996 72.4 64.3996 72.4 61.6996ZM61.5 44.9996H63.6V48.4996H61.5V44.9996Z" fill="white"/>
<path d="M97.0984 0V7H90.6984C88.6984 7 86.3984 8.6 86.3984 11.3V30.5C86.3984 33 88.3984 34.8 90.6984 34.8H105.798V0H97.1984H97.0984ZM97.0984 27.8H94.9984V13.8H97.0984V27.8Z" fill="white"/>
<path d="M84.1984 11.3C84.1984 9.2 82.4984 7 79.8984 7C77.2984 7 74.7984 7.6 73.4984 8.7V7H64.8984V34.8H73.4984V13.8H75.5984V34.8H84.2984V11.3H84.1984Z" fill="white"/>
<path d="M62.5992 11.3C62.5992 8.5 60.2992 7 58.2992 7H47.4992C44.7992 7 43.1992 9.2 43.1992 11.3V15.6H51.7992V13.8H53.8992V17.3C53.8992 17.3 49.8992 17.3 47.4992 17.3C45.0992 17.3 43.1992 19.3 43.1992 21.6V30.4C43.1992 32.9 45.1992 34.7 47.4992 34.7H62.5992V11.2V11.3ZM53.9992 27.8H51.8992V24.3H53.9992V27.8Z" fill="white"/>
<path d="M51.8992 41.5V36.7H41.0992V24.3C41.0992 22.9 40.3992 21.6 39.2992 20.8C40.8992 19.7 41.0992 18.3 41.0992 17.4V11.3C41.0992 8.9 39.1992 7 36.7992 7H21.6992V39.3H30.2992V24.3H32.3992V37.2C32.3992 39.4 34.0992 41.5 36.8992 41.5H43.1992H51.8992ZM32.4992 17.3H30.3992V13.8H32.4992V17.3Z" fill="white"/>
<path d="M19.5 39.3V7H4.4C2.1 7 0.100002 8.9 0.100002 11.3V30.5C0.100002 32.8 1.9 34.8 4.4 34.8H10.8V36.7H0V43.6H15.1C17.6 43.6 19.4 41.5 19.4 39.3H19.5ZM10.9 27.8H8.8V13.8H10.9V27.8Z" fill="white"/>
<path d="M91.0625 49.0417C88.4373 49.0417 82.5312 49.0417 82.5312 49.0417L82.5 44.461H85.8125V46.9228H95C95 46.9228 95 44.1795 95 41.5C95 38.8205 93.125 37.9997 90.5 38C87.875 38.0003 84.5 38 84.5 38C84.5 38 82.2563 38 79.5 38C76.7437 38 74 37.995 74 41.5C74 45.005 74 50.7287 74 50.9883C74 53.7144 75.0875 55.346 78.5 55.346H85.8125V60.7238H82.5312V57.2626H74C74 57.2626 74 60.9035 74 63.4996C74 66.0957 76.1654 65.9996 79.0481 65.9996C81.9308 65.9996 87.169 65.9996 87.169 65.9996C87.169 65.9996 88.4946 65.9996 91.1196 65.9996C93.7446 65.9996 95 66.0302 95 63.4996C95 60.969 94.9999 55.7911 95 52.9354C95.0001 50.0796 93.6877 49.0417 91.0625 49.0417Z" fill="white"/>
<path d="M91.0625 49.0417C88.4373 49.0417 82.5312 49.0417 82.5312 49.0417L82.5 44.461H85.8125V46.9228H95C95 46.9228 95 44.1795 95 41.5C95 38.8205 93.125 37.9997 90.5 38C87.875 38.0003 84.5 38 84.5 38C84.5 38 82.2563 38 79.5 38C76.7437 38 74 37.995 74 41.5C74 45.005 74 50.7287 74 50.9883C74 53.7144 75.0875 55.346 78.5 55.346H85.8125V60.7238H82.5312V57.2626H74C74 57.2626 74 60.9035 74 63.4996C74 66.0957 76.1654 65.9996 79.0481 65.9996C81.9308 65.9996 87.169 65.9996 87.169 65.9996C87.169 65.9996 88.4946 65.9996 91.1196 65.9996C93.7446 65.9996 95 66.0302 95 63.4996C95 60.969 94.9999 55.7911 95 52.9354C95.0001 50.0796 93.6877 49.0417 91.0625 49.0417Z" fill="white"/>
</svg>
