<svg width="370" height="290" viewBox="0 0 370 290" fill="none" xmlns="http://www.w3.org/2000/svg">
<path d="M154.988 3.5L181.066 26.6436L183.39 28.7051L185.713 26.6436L211.791 3.5H301.133L364.376 61.9248L299.116 141.942L299.111 141.947L183.429 284.398L71.1162 141.986L71.0791 141.941L5.86426 62.0127L73.7285 3.5H154.988Z" fill="url(#paint0_linear_42_2)" stroke="#870286" stroke-width="7"/>
<mask id="mask0_42_2" style="mask-type:alpha" maskUnits="userSpaceOnUse" x="1" y="0" width="369" height="290">
<path d="M154.988 3.5L181.066 26.6436L183.39 28.7051L185.713 26.6436L211.791 3.5H301.133L364.376 61.9248L299.116 141.942L299.111 141.947L183.429 284.398L71.1162 141.986L71.0791 141.941L5.86426 62.0127L73.7285 3.5H154.988Z" fill="url(#paint1_linear_42_2)" stroke="#870286" stroke-width="7"/>
</mask>
<g mask="url(#mask0_42_2)">
<path d="M187.892 26.7514C189.634 24.418 192.955 23.0295 195.31 23.6502C197.665 24.2709 198.162 26.6656 196.42 28.9991C194.678 31.3325 191.356 32.721 189.002 32.1003C186.663 31.484 186.154 29.1167 187.861 26.7936" fill="#030000" fill-opacity="0.15"/>
<path d="M187.892 26.7514C189.634 24.418 192.955 23.0295 195.31 23.6502C197.665 24.2709 198.162 26.6656 196.42 28.9991C194.678 31.3325 191.356 32.721 189.002 32.1003C186.663 31.484 186.154 29.1167 187.861 26.7936" stroke="#090000" stroke-opacity="0.15" stroke-width="1.47825" stroke-linecap="round"/>
<path d="M188.01 15.4528C189.269 12.5471 192.657 10.3146 195.576 10.4665C198.495 10.6185 199.84 13.0973 198.581 16.0032C197.321 18.9089 193.933 21.1413 191.014 20.9894C188.115 20.8385 186.765 18.3921 187.987 15.5053" fill="#060000" fill-opacity="0.15"/>
<path d="M188.01 15.4528C189.269 12.5471 192.657 10.3146 195.576 10.4665C198.495 10.6185 199.84 13.0973 198.581 16.0032C197.321 18.9089 193.933 21.1413 191.014 20.9894C188.115 20.8385 186.765 18.3921 187.987 15.5053" stroke="#090000" stroke-opacity="0.15" stroke-width="1.56196" stroke-linecap="round"/>
<path d="M189.356 9.95222C188.159 13.0455 185.254 15.272 182.869 14.9255C180.483 14.579 179.521 11.7907 180.718 8.69741C181.916 5.60416 184.82 3.37757 187.206 3.72408C189.591 4.0706 190.554 6.85897 189.356 9.95222Z" fill="#030000" fill-opacity="0.15" stroke="#090000" stroke-opacity="0.15" stroke-width="1.43505" stroke-linecap="round"/>
<path d="M169.809 13.569C169.271 10.8339 170.69 7.27549 172.978 5.62111C175.266 3.96677 177.557 4.84295 178.095 7.57815C178.632 10.3133 177.214 13.8717 174.926 15.5261C172.654 17.1688 170.376 16.3177 169.819 13.6183" fill="#090000" fill-opacity="0.15"/>
<path d="M169.809 13.569C169.271 10.8339 170.69 7.27549 172.978 5.62111C175.266 3.96677 177.557 4.84295 178.095 7.57815C178.632 10.3133 177.214 13.8717 174.926 15.5261C172.654 17.1688 170.376 16.3177 169.819 13.6183" stroke="#090000" stroke-opacity="0.15" stroke-width="1.38114" stroke-linecap="round"/>
<path d="M167.984 18.1935C166.499 18.5503 164.822 20.5552 164.717 22.3015C164.476 26.2915 168.083 29.7805 171 32.5123C174.119 35.4331 178.136 39.2984 182.335 38.5011C183.625 38.2561 184.509 36.7654 184.903 35.5124C185.504 33.597 184.425 31.5248 184.291 29.522C184.172 27.7485 184.873 25.8026 184.121 24.1924C183.022 21.8395 180.729 19.949 178.31 19.0042C177.056 18.5142 175.613 19.0375 174.27 18.9395C172.281 18.7941 170.332 18.2135 168.339 18.165C168.22 18.1622 167.984 18.1939 167.984 18.1939L167.984 18.1935Z" fill="black" fill-opacity="0.15" stroke="black" stroke-opacity="0.15" stroke-width="0.89702"/>
<path d="M141.88 33.4448C143.622 31.1113 146.944 29.7229 149.298 30.3436C151.653 30.9642 152.15 33.359 150.408 35.6925C148.666 38.0259 145.345 39.4143 142.99 38.7936C140.651 38.1773 140.142 35.81 141.849 33.4869" fill="#030000" fill-opacity="0.15"/>
<path d="M141.88 33.4448C143.622 31.1113 146.944 29.7229 149.298 30.3436C151.653 30.9642 152.15 33.359 150.408 35.6925C148.666 38.0259 145.345 39.4143 142.99 38.7936C140.651 38.1773 140.142 35.81 141.849 33.4869" stroke="#090000" stroke-opacity="0.15" stroke-width="1.47825" stroke-linecap="round"/>
<path d="M142.002 22.1452C143.262 19.2394 146.649 17.007 149.568 17.1589C152.488 17.3109 153.833 19.7897 152.573 22.6955C151.313 25.6013 147.925 27.8337 145.006 27.6818C142.107 27.5309 140.757 25.0844 141.979 22.1977" fill="#060000" fill-opacity="0.15"/>
<path d="M142.002 22.1452C143.262 19.2394 146.649 17.007 149.568 17.1589C152.488 17.3109 153.833 19.7897 152.573 22.6955C151.313 25.6013 147.925 27.8337 145.006 27.6818C142.107 27.5309 140.757 25.0844 141.979 22.1977" stroke="#090000" stroke-opacity="0.15" stroke-width="1.56196" stroke-linecap="round"/>
<path d="M143.349 16.6466C142.151 19.7398 139.246 21.9664 136.861 21.6199C134.476 21.2734 133.513 18.485 134.71 15.3917C135.908 12.2985 138.813 10.0719 141.198 10.4184C143.583 10.7649 144.546 13.5533 143.349 16.6466Z" fill="#030000" fill-opacity="0.15" stroke="#090000" stroke-opacity="0.15" stroke-width="1.43505" stroke-linecap="round"/>
<path d="M123.801 20.2624C123.264 17.5272 124.682 13.9688 126.97 12.3145C129.258 10.6601 131.549 11.5363 132.087 14.2715C132.625 17.0067 131.206 20.5651 128.918 22.2194C126.646 23.8621 124.368 23.011 123.811 20.3116" fill="#090000" fill-opacity="0.15"/>
<path d="M123.801 20.2624C123.264 17.5272 124.682 13.9688 126.97 12.3145C129.258 10.6601 131.549 11.5363 132.087 14.2715C132.625 17.0067 131.206 20.5651 128.918 22.2194C126.646 23.8621 124.368 23.011 123.811 20.3116" stroke="#090000" stroke-opacity="0.15" stroke-width="1.38114" stroke-linecap="round"/>
<path d="M121.976 24.8868C120.491 25.2436 118.814 27.2486 118.709 28.9948C118.468 32.9849 122.076 36.4738 124.992 39.2056C128.111 42.1265 132.128 45.9918 136.327 45.1944C137.617 44.9494 138.502 43.4588 138.895 42.2058C139.496 40.2903 138.417 38.2181 138.283 36.2153C138.164 34.4419 138.865 32.4959 138.113 30.8857C137.014 28.5329 134.721 26.6424 132.302 25.6975C131.048 25.2075 129.605 25.7308 128.262 25.6328C126.274 25.4875 124.324 24.9068 122.331 24.8584C122.212 24.8555 121.977 24.8872 121.977 24.8872L121.976 24.8868Z" fill="black" fill-opacity="0.15" stroke="black" stroke-opacity="0.15" stroke-width="0.89702"/>
<path d="M141.384 81.4721C143.126 79.1387 146.447 77.7502 148.802 78.3709C151.157 78.9916 151.654 81.3863 149.912 83.7198C148.17 86.0532 144.849 87.4417 142.494 86.821C140.155 86.2047 139.646 83.8374 141.353 81.5143" fill="#030000" fill-opacity="0.15"/>
<path d="M141.384 81.4721C143.126 79.1387 146.447 77.7502 148.802 78.3709C151.157 78.9916 151.654 81.3863 149.912 83.7198C148.17 86.0532 144.849 87.4417 142.494 86.821C140.155 86.2047 139.646 83.8374 141.353 81.5143" stroke="#090000" stroke-opacity="0.15" stroke-width="1.47825" stroke-linecap="round"/>
<path d="M141.502 70.1735C142.762 67.2678 146.149 65.0353 149.068 65.1872C151.988 65.3392 153.333 67.818 152.073 70.7239C150.813 73.6296 147.425 75.862 144.506 75.7101C141.607 75.5593 140.257 73.1128 141.479 70.226" fill="#060000" fill-opacity="0.15"/>
<path d="M141.502 70.1735C142.762 67.2678 146.149 65.0353 149.068 65.1872C151.988 65.3392 153.333 67.818 152.073 70.7239C150.813 73.6296 147.425 75.862 144.506 75.7101C141.607 75.5593 140.257 73.1128 141.479 70.226" stroke="#090000" stroke-opacity="0.15" stroke-width="1.56196" stroke-linecap="round"/>
<path d="M142.849 64.6729C141.651 67.7662 138.746 69.9928 136.361 69.6462C133.976 69.2997 133.013 66.5114 134.21 63.4181C135.408 60.3249 138.313 58.0983 140.698 58.4448C143.083 58.7913 144.046 61.5797 142.849 64.6729Z" fill="#030000" fill-opacity="0.15" stroke="#090000" stroke-opacity="0.15" stroke-width="1.43505" stroke-linecap="round"/>
<path d="M123.301 68.2897C122.764 65.5546 124.182 61.9962 126.47 60.3418C128.758 58.6875 131.049 59.5637 131.587 62.2988C132.125 65.034 130.706 68.5924 128.418 70.2468C126.146 71.8895 123.868 71.0384 123.311 68.339" fill="#090000" fill-opacity="0.15"/>
<path d="M123.301 68.2897C122.764 65.5546 124.182 61.9962 126.47 60.3418C128.758 58.6875 131.049 59.5637 131.587 62.2988C132.125 65.034 130.706 68.5924 128.418 70.2468C126.146 71.8895 123.868 71.0384 123.311 68.339" stroke="#090000" stroke-opacity="0.15" stroke-width="1.38114" stroke-linecap="round"/>
<path d="M121.476 72.9152C119.991 73.272 118.314 75.2769 118.209 77.0232C117.968 81.0132 121.576 84.5022 124.492 87.2339C127.611 90.1548 131.628 94.0201 135.827 93.2227C137.117 92.9778 138.002 91.4871 138.395 90.2341C138.996 88.3187 137.917 86.2464 137.783 84.2437C137.664 82.4702 138.365 80.5243 137.613 78.914C136.514 76.5612 134.221 74.6707 131.802 73.7259C130.548 73.2359 129.105 73.7592 127.762 73.6611C125.774 73.5158 123.824 72.9351 121.831 72.8867C121.712 72.8838 121.477 72.9155 121.477 72.9155L121.476 72.9152Z" fill="black" fill-opacity="0.15" stroke="black" stroke-opacity="0.15" stroke-width="0.89702"/>
<path d="M95.3918 88.1459C97.1339 85.8125 100.455 84.424 102.81 85.0447C105.165 85.6654 105.662 88.0602 103.92 90.3936C102.178 92.727 98.8565 94.1155 96.5015 93.4948C94.1631 92.8785 93.6541 90.5112 95.3605 88.1881" fill="#030000" fill-opacity="0.15"/>
<path d="M95.3918 88.1459C97.1339 85.8125 100.455 84.424 102.81 85.0447C105.165 85.6654 105.662 88.0602 103.92 90.3936C102.178 92.727 98.8565 94.1155 96.5015 93.4948C94.1631 92.8785 93.6541 90.5112 95.3605 88.1881" stroke="#090000" stroke-opacity="0.15" stroke-width="1.47825" stroke-linecap="round"/>
<path d="M95.5095 76.8464C96.7694 73.9406 100.157 71.7082 103.076 71.8601C105.995 72.012 107.34 74.4909 106.081 77.3967C104.821 80.3025 101.433 82.5349 98.5138 82.383C95.6153 82.2321 94.2651 79.7856 95.4871 76.8989" fill="#060000" fill-opacity="0.15"/>
<path d="M95.5095 76.8464C96.7694 73.9406 100.157 71.7082 103.076 71.8601C105.995 72.012 107.34 74.4909 106.081 77.3967C104.821 80.3025 101.433 82.5349 98.5138 82.383C95.6153 82.2321 94.2651 79.7856 95.4871 76.8989" stroke="#090000" stroke-opacity="0.15" stroke-width="1.56196" stroke-linecap="round"/>
<path d="M96.8565 71.3477C95.6588 74.441 92.7542 76.6676 90.3688 76.321C87.9833 75.9745 87.0205 73.1862 88.2182 70.0929C89.4159 66.9997 92.3204 64.7731 94.7059 65.1196C97.0913 65.4661 98.0541 68.2545 96.8565 71.3477Z" fill="#030000" fill-opacity="0.15" stroke="#090000" stroke-opacity="0.15" stroke-width="1.43505" stroke-linecap="round"/>
<path d="M77.3131 74.9636C76.7753 72.2284 78.1942 68.67 80.4821 67.0156C82.7701 65.3613 85.0608 66.2375 85.5986 68.9727C86.1363 71.7078 84.7175 75.2662 82.4295 76.9206C80.1576 78.5633 77.8795 77.7122 77.3231 75.0128" fill="#090000" fill-opacity="0.15"/>
<path d="M77.3131 74.9636C76.7753 72.2284 78.1942 68.67 80.4821 67.0156C82.7701 65.3613 85.0608 66.2375 85.5986 68.9727C86.1363 71.7078 84.7175 75.2662 82.4295 76.9206C80.1576 78.5633 77.8795 77.7122 77.3231 75.0128" stroke="#090000" stroke-opacity="0.15" stroke-width="1.38114" stroke-linecap="round"/>
<path d="M75.4843 79.588C73.999 79.9448 72.3222 81.9498 72.2167 83.696C71.9759 87.6861 75.5833 91.175 78.5002 93.9068C81.6191 96.8276 85.6355 100.693 89.8349 99.8956C91.1251 99.6506 92.0094 98.16 92.4025 96.907C93.0036 94.9915 91.925 92.9193 91.791 90.9165C91.6722 89.143 92.3727 87.1971 91.6208 85.5869C90.5221 83.234 88.2287 81.3436 85.81 80.3987C84.5557 79.9087 83.1132 80.432 81.77 80.334C79.7813 80.1887 77.8319 79.608 75.8386 79.5596C75.7202 79.5567 75.4845 79.5884 75.4845 79.5884L75.4843 79.588Z" fill="black" fill-opacity="0.15" stroke="black" stroke-opacity="0.15" stroke-width="0.89702"/>
<path d="M94.8878 136.174C96.63 133.841 99.9513 132.452 102.306 133.073C104.661 133.694 105.158 136.088 103.416 138.422C101.674 140.755 98.3526 142.144 95.9976 141.523C93.6592 140.907 93.1502 138.54 94.8566 136.216" fill="#030000" fill-opacity="0.15"/>
<path d="M94.8878 136.174C96.63 133.841 99.9513 132.452 102.306 133.073C104.661 133.694 105.158 136.088 103.416 138.422C101.674 140.755 98.3526 142.144 95.9976 141.523C93.6592 140.907 93.1502 138.54 94.8566 136.216" stroke="#090000" stroke-opacity="0.15" stroke-width="1.47825" stroke-linecap="round"/>
<path d="M95.0095 124.877C96.2694 121.971 99.6571 119.738 102.576 119.89C105.495 120.042 106.84 122.521 105.581 125.427C104.321 128.333 100.933 130.565 98.0138 130.413C95.1153 130.262 93.7651 127.816 94.9871 124.929" fill="#060000" fill-opacity="0.15"/>
<path d="M95.0095 124.877C96.2694 121.971 99.6571 119.738 102.576 119.89C105.495 120.042 106.84 122.521 105.581 125.427C104.321 128.333 100.933 130.565 98.0138 130.413C95.1153 130.262 93.7651 127.816 94.9871 124.929" stroke="#090000" stroke-opacity="0.15" stroke-width="1.56196" stroke-linecap="round"/>
<path d="M96.3565 119.375C95.1588 122.468 92.2542 124.695 89.8688 124.348C87.4833 124.002 86.5205 121.214 87.7182 118.12C88.9159 115.027 91.8204 112.8 94.2059 113.147C96.5913 113.493 97.5541 116.282 96.3565 119.375Z" fill="#030000" fill-opacity="0.15" stroke="#090000" stroke-opacity="0.15" stroke-width="1.43505" stroke-linecap="round"/>
<path d="M76.8092 122.992C76.2714 120.257 77.6903 116.698 79.9782 115.044C82.2662 113.39 84.5569 114.266 85.0947 117.001C85.6324 119.736 84.2136 123.295 81.9256 124.949C79.6537 126.592 77.3756 125.741 76.8192 123.041" fill="#090000" fill-opacity="0.15"/>
<path d="M76.8092 122.992C76.2714 120.257 77.6903 116.698 79.9782 115.044C82.2662 113.39 84.5569 114.266 85.0947 117.001C85.6324 119.736 84.2136 123.295 81.9256 124.949C79.6537 126.592 77.3756 125.741 76.8192 123.041" stroke="#090000" stroke-opacity="0.15" stroke-width="1.38114" stroke-linecap="round"/>
<path d="M74.9843 127.617C73.499 127.974 71.8222 129.979 71.7167 131.725C71.4759 135.715 75.0833 139.204 78.0002 141.936C81.1191 144.857 85.1355 148.722 89.3349 147.925C90.6251 147.68 91.5094 146.189 91.9025 144.936C92.5036 143.021 91.425 140.949 91.291 138.946C91.1722 137.172 91.8727 135.226 91.1208 133.616C90.0221 131.263 87.7287 129.373 85.31 128.428C84.0557 127.938 82.6132 128.461 81.27 128.363C79.2813 128.218 77.3319 127.637 75.3386 127.589C75.2202 127.586 74.9845 127.618 74.9845 127.618L74.9843 127.617Z" fill="black" fill-opacity="0.15" stroke="black" stroke-opacity="0.15" stroke-width="0.89702"/>
<path d="M48.8878 142.866C50.63 140.532 53.9513 139.144 56.3063 139.764C58.6612 140.385 59.1581 142.78 57.416 145.113C55.6739 147.447 52.3526 148.835 49.9976 148.215C47.6592 147.598 47.1502 145.231 48.8566 142.908" fill="#030000" fill-opacity="0.15"/>
<path d="M48.8878 142.866C50.63 140.532 53.9513 139.144 56.3063 139.764C58.6612 140.385 59.1581 142.78 57.416 145.113C55.6739 147.447 52.3526 148.835 49.9976 148.215C47.6592 147.598 47.1502 145.231 48.8566 142.908" stroke="#090000" stroke-opacity="0.15" stroke-width="1.47825" stroke-linecap="round"/>
<path d="M49.0056 131.567C50.2654 128.661 53.6532 126.429 56.5723 126.581C59.4914 126.733 60.8365 129.212 59.5766 132.117C58.3168 135.023 54.9291 137.256 52.0099 137.104C49.1114 136.953 47.7612 134.506 48.9832 131.62" fill="#060000" fill-opacity="0.15"/>
<path d="M49.0056 131.567C50.2654 128.661 53.6532 126.429 56.5723 126.581C59.4914 126.733 60.8365 129.212 59.5766 132.117C58.3168 135.023 54.9291 137.256 52.0099 137.104C49.1114 136.953 47.7612 134.506 48.9832 131.62" stroke="#090000" stroke-opacity="0.15" stroke-width="1.56196" stroke-linecap="round"/>
<path d="M50.3526 126.067C49.1549 129.161 46.2503 131.387 43.8649 131.041C41.4794 130.694 40.5166 127.906 41.7143 124.813C42.9119 121.719 45.8165 119.493 48.202 119.839C50.5874 120.186 51.5502 122.974 50.3526 126.067Z" fill="#030000" fill-opacity="0.15" stroke="#090000" stroke-opacity="0.15" stroke-width="1.43505" stroke-linecap="round"/>
<path d="M30.8052 129.683C30.2675 126.948 31.6864 123.39 33.9743 121.735C36.2623 120.081 38.553 120.957 39.0908 123.692C39.6285 126.428 38.2096 129.986 35.9217 131.64C33.6498 133.283 31.3717 132.432 30.8153 129.733" fill="#090000" fill-opacity="0.15"/>
<path d="M30.8052 129.683C30.2675 126.948 31.6864 123.39 33.9743 121.735C36.2623 120.081 38.553 120.957 39.0908 123.692C39.6285 126.428 38.2096 129.986 35.9217 131.64C33.6498 133.283 31.3717 132.432 30.8153 129.733" stroke="#090000" stroke-opacity="0.15" stroke-width="1.38114" stroke-linecap="round"/>
<path d="M28.9764 134.308C27.4912 134.665 25.8143 136.67 25.7089 138.416C25.4681 142.406 29.0755 145.895 31.9924 148.627C35.1113 151.547 39.1277 155.413 43.3271 154.615C44.6172 154.37 45.5016 152.88 45.8947 151.627C46.4958 149.711 45.4172 147.639 45.2831 145.636C45.1644 143.863 45.8649 141.917 45.113 140.307C44.0143 137.954 41.7209 136.063 39.3022 135.118C38.0478 134.628 36.6054 135.152 35.2622 135.054C33.2735 134.908 31.324 134.328 29.3308 134.279C29.2124 134.276 28.9767 134.308 28.9767 134.308L28.9764 134.308Z" fill="black" fill-opacity="0.15" stroke="black" stroke-opacity="0.15" stroke-width="0.89702"/>
<path d="M48.3878 190.894C50.13 188.561 53.4513 187.172 55.8063 187.793C58.1612 188.413 58.6581 190.808 56.916 193.142C55.1739 195.475 51.8526 196.864 49.4976 196.243C47.1592 195.627 46.6502 193.259 48.3566 190.936" fill="#030000" fill-opacity="0.15"/>
<path d="M48.3878 190.894C50.13 188.561 53.4513 187.172 55.8063 187.793C58.1612 188.413 58.6581 190.808 56.916 193.142C55.1739 195.475 51.8526 196.864 49.4976 196.243C47.1592 195.627 46.6502 193.259 48.3566 190.936" stroke="#090000" stroke-opacity="0.15" stroke-width="1.47825" stroke-linecap="round"/>
<path d="M48.5095 179.595C49.7694 176.69 53.1571 174.457 56.0763 174.609C58.9953 174.761 60.3404 177.24 59.0805 180.146C57.8207 183.051 54.433 185.284 51.5138 185.132C48.6153 184.981 47.2651 182.535 48.4871 179.648" fill="#060000" fill-opacity="0.15"/>
<path d="M48.5095 179.595C49.7694 176.69 53.1571 174.457 56.0763 174.609C58.9953 174.761 60.3404 177.24 59.0805 180.146C57.8207 183.051 54.433 185.284 51.5138 185.132C48.6153 184.981 47.2651 182.535 48.4871 179.648" stroke="#090000" stroke-opacity="0.15" stroke-width="1.56196" stroke-linecap="round"/>
<path d="M49.8526 174.095C48.6549 177.188 45.7503 179.415 43.3649 179.068C40.9794 178.722 40.0166 175.933 41.2143 172.84C42.4119 169.747 45.3165 167.52 47.702 167.867C50.0874 168.213 51.0502 171.002 49.8526 174.095Z" fill="#030000" fill-opacity="0.15" stroke="#090000" stroke-opacity="0.15" stroke-width="1.43505" stroke-linecap="round"/>
<path d="M30.3092 177.712C29.7714 174.976 31.1903 171.418 33.4782 169.764C35.7662 168.109 38.0569 168.986 38.5947 171.721C39.1324 174.456 37.7136 178.014 35.4256 179.669C33.1537 181.311 30.8756 180.46 30.3192 177.761" fill="#090000" fill-opacity="0.15"/>
<path d="M30.3092 177.712C29.7714 174.976 31.1903 171.418 33.4782 169.764C35.7662 168.109 38.0569 168.986 38.5947 171.721C39.1324 174.456 37.7136 178.014 35.4256 179.669C33.1537 181.311 30.8756 180.46 30.3192 177.761" stroke="#090000" stroke-opacity="0.15" stroke-width="1.38114" stroke-linecap="round"/>
<path d="M28.4843 182.336C26.999 182.693 25.3222 184.698 25.2167 186.444C24.9759 190.434 28.5833 193.923 31.5002 196.655C34.6191 199.576 38.6355 203.441 42.8349 202.644C44.1251 202.399 45.0094 200.908 45.4025 199.655C46.0036 197.74 44.925 195.667 44.791 193.665C44.6722 191.891 45.3727 189.945 44.6208 188.335C43.5221 185.982 41.2287 184.092 38.81 183.147C37.5557 182.657 36.1132 183.18 34.77 183.082C32.7813 182.937 30.8319 182.356 28.8386 182.308C28.7202 182.305 28.4845 182.336 28.4845 182.336L28.4843 182.336Z" fill="black" fill-opacity="0.15" stroke="black" stroke-opacity="0.15" stroke-width="0.89702"/>
<path d="M154.616 220.162C152.888 222.506 149.576 223.915 147.217 223.31C144.858 222.704 144.346 220.312 146.073 217.968C147.801 215.623 151.113 214.214 153.472 214.82C155.814 215.421 156.338 217.785 154.647 220.119" fill="#030000" fill-opacity="0.15"/>
<path d="M154.616 220.162C152.888 222.506 149.576 223.915 147.217 223.31C144.858 222.704 144.346 220.312 146.073 217.968C147.801 215.623 151.113 214.214 153.472 214.82C155.814 215.421 156.338 217.785 154.647 220.119" stroke="#090000" stroke-opacity="0.15" stroke-width="1.47825" stroke-linecap="round"/>
<path d="M154.57 231.462C153.329 234.375 149.955 236.629 147.035 236.496C144.115 236.362 142.754 233.892 143.996 230.978C145.237 228.064 148.611 225.811 151.531 225.944C154.43 226.077 155.796 228.515 154.592 231.409" fill="#060000" fill-opacity="0.15"/>
<path d="M154.57 231.462C153.329 234.375 149.955 236.629 147.035 236.496C144.115 236.362 142.754 233.892 143.996 230.978C145.237 228.064 148.611 225.811 151.531 225.944C154.43 226.077 155.796 228.515 154.592 231.409" stroke="#090000" stroke-opacity="0.15" stroke-width="1.56196" stroke-linecap="round"/>
<path d="M153.257 236.969C154.435 233.868 157.325 231.623 159.713 231.954C162.1 232.286 163.081 235.068 161.903 238.169C160.725 241.27 157.834 243.515 155.447 243.183C153.059 242.852 152.079 240.069 153.257 236.969Z" fill="#030000" fill-opacity="0.15" stroke="#090000" stroke-opacity="0.15" stroke-width="1.43505" stroke-linecap="round"/>
<path d="M172.776 233.23C173.331 235.962 171.935 239.529 169.657 241.198C167.38 242.866 165.083 242.005 164.528 239.273C163.973 236.541 165.37 232.974 167.647 231.305C169.909 229.648 172.192 230.485 172.766 233.181" fill="#090000" fill-opacity="0.15"/>
<path d="M172.776 233.23C173.331 235.962 171.935 239.529 169.657 241.198C167.38 242.866 165.083 242.005 164.528 239.273C163.973 236.541 165.37 232.974 167.647 231.305C169.909 229.648 172.192 230.485 172.766 233.181" stroke="#090000" stroke-opacity="0.15" stroke-width="1.38114" stroke-linecap="round"/>
<path d="M174.578 228.594C176.061 228.228 177.726 226.212 177.82 224.465C178.036 220.474 174.406 217.008 171.472 214.294C168.335 211.393 164.294 207.553 160.1 208.377C158.811 208.63 157.937 210.127 157.551 211.382C156.962 213.301 158.054 215.367 158.201 217.368C158.331 219.141 157.642 221.091 158.404 222.697C159.518 225.043 161.823 226.919 164.248 227.848C165.505 228.33 166.944 227.798 168.288 227.888C170.278 228.02 172.231 228.589 174.224 228.625C174.343 228.627 174.578 228.594 174.578 228.594L174.578 228.594Z" fill="black" fill-opacity="0.15" stroke="black" stroke-opacity="0.15" stroke-width="0.89702"/>
<path d="M154.811 172.131C153.084 174.476 149.771 175.885 147.412 175.279C145.053 174.673 144.541 172.282 146.269 169.937C147.996 167.593 151.309 166.184 153.667 166.79C156.01 167.391 156.534 169.755 154.842 172.089" fill="#030000" fill-opacity="0.15"/>
<path d="M154.811 172.131C153.084 174.476 149.771 175.885 147.412 175.279C145.053 174.673 144.541 172.282 146.269 169.937C147.996 167.593 151.309 166.184 153.667 166.79C156.01 167.391 156.534 169.755 154.842 172.089" stroke="#090000" stroke-opacity="0.15" stroke-width="1.47825" stroke-linecap="round"/>
<path d="M154.762 183.43C153.52 186.343 150.147 188.597 147.226 188.463C144.307 188.33 142.946 185.86 144.187 182.946C145.429 180.032 148.802 177.778 151.722 177.912C154.622 178.045 155.987 180.482 154.784 183.377" fill="#060000" fill-opacity="0.15"/>
<path d="M154.762 183.43C153.52 186.343 150.147 188.597 147.226 188.463C144.307 188.33 142.946 185.86 144.187 182.946C145.429 180.032 148.802 177.778 151.722 177.912C154.622 178.045 155.987 180.482 154.784 183.377" stroke="#090000" stroke-opacity="0.15" stroke-width="1.56196" stroke-linecap="round"/>
<path d="M153.452 188.939C154.63 185.839 157.521 183.594 159.908 183.925C162.296 184.257 163.276 187.039 162.098 190.14C160.92 193.24 158.029 195.485 155.642 195.154C153.254 194.822 152.274 192.04 153.452 188.939Z" fill="#030000" fill-opacity="0.15" stroke="#090000" stroke-opacity="0.15" stroke-width="1.43505" stroke-linecap="round"/>
<path d="M172.975 185.199C173.53 187.93 172.134 191.498 169.856 193.166C167.579 194.835 165.283 193.973 164.728 191.242C164.173 188.51 165.569 184.943 167.847 183.274C170.108 181.617 172.391 182.454 172.965 185.149" fill="#090000" fill-opacity="0.15"/>
<path d="M172.975 185.199C173.53 187.93 172.134 191.498 169.856 193.166C167.579 194.835 165.283 193.973 164.728 191.242C164.173 188.51 165.569 184.943 167.847 183.274C170.108 181.617 172.391 182.454 172.965 185.149" stroke="#090000" stroke-opacity="0.15" stroke-width="1.38114" stroke-linecap="round"/>
<path d="M174.77 180.563C176.253 180.197 177.917 178.181 178.011 176.434C178.227 172.443 174.598 168.977 171.664 166.263C168.526 163.362 164.486 159.522 160.291 160.346C159.003 160.599 158.128 162.095 157.743 163.351C157.154 165.27 158.245 167.335 158.392 169.337C158.522 171.11 157.834 173.06 158.596 174.666C159.709 177.012 162.015 178.888 164.439 179.817C165.697 180.299 167.136 179.767 168.48 179.856C170.469 179.989 172.422 180.557 174.416 180.593C174.534 180.595 174.77 180.562 174.77 180.562L174.77 180.563Z" fill="black" fill-opacity="0.15" stroke="black" stroke-opacity="0.15" stroke-width="0.89702"/>
<path d="M200.772 165.148C199.044 167.492 195.732 168.902 193.373 168.296C191.014 167.69 190.502 165.299 192.23 162.954C193.957 160.61 197.27 159.2 199.628 159.806C201.971 160.408 202.494 162.772 200.803 165.106" fill="#030000" fill-opacity="0.15"/>
<path d="M200.772 165.148C199.044 167.492 195.732 168.902 193.373 168.296C191.014 167.69 190.502 165.299 192.23 162.954C193.957 160.61 197.27 159.2 199.628 159.806C201.971 160.408 202.494 162.772 200.803 165.106" stroke="#090000" stroke-opacity="0.15" stroke-width="1.47825" stroke-linecap="round"/>
<path d="M200.723 176.447C199.481 179.361 196.107 181.614 193.187 181.481C190.267 181.347 188.907 178.877 190.148 175.963C191.39 173.05 194.763 170.796 197.683 170.93C200.583 171.062 201.948 173.5 200.745 176.394" fill="#060000" fill-opacity="0.15"/>
<path d="M200.723 176.447C199.481 179.361 196.107 181.614 193.187 181.481C190.267 181.347 188.907 178.877 190.148 175.963C191.39 173.05 194.763 170.796 197.683 170.93C200.583 171.062 201.948 173.5 200.745 176.394" stroke="#090000" stroke-opacity="0.15" stroke-width="1.56196" stroke-linecap="round"/>
<path d="M199.409 181.955C200.587 178.854 203.478 176.609 205.865 176.941C208.253 177.272 209.233 180.054 208.055 183.155C206.877 186.256 203.986 188.501 201.599 188.169C199.211 187.838 198.231 185.056 199.409 181.955Z" fill="#030000" fill-opacity="0.15" stroke="#090000" stroke-opacity="0.15" stroke-width="1.43505" stroke-linecap="round"/>
<path d="M218.936 178.216C219.491 180.948 218.095 184.515 215.817 186.184C213.54 187.853 211.244 186.991 210.689 184.259C210.134 181.528 211.53 177.96 213.808 176.291C216.069 174.634 218.352 175.471 218.926 178.167" fill="#090000" fill-opacity="0.15"/>
<path d="M218.936 178.216C219.491 180.948 218.095 184.515 215.817 186.184C213.54 187.853 211.244 186.991 210.689 184.259C210.134 181.528 211.53 177.96 213.808 176.291C216.069 174.634 218.352 175.471 218.926 178.167" stroke="#090000" stroke-opacity="0.15" stroke-width="1.38114" stroke-linecap="round"/>
<path d="M220.735 173.58C222.218 173.214 223.882 171.199 223.976 169.452C224.192 165.46 220.563 161.994 217.629 159.281C214.491 156.38 210.451 152.54 206.256 153.364C204.968 153.617 204.093 155.113 203.708 156.368C203.119 158.288 204.21 160.353 204.357 162.355C204.487 164.128 203.799 166.078 204.561 167.683C205.674 170.029 207.979 171.905 210.404 172.835C211.661 173.317 213.101 172.784 214.444 172.874C216.434 173.007 218.387 173.575 220.381 173.611C220.499 173.613 220.735 173.58 220.735 173.58L220.735 173.58Z" fill="black" fill-opacity="0.15" stroke="black" stroke-opacity="0.15" stroke-width="0.89702"/>
<path d="M200.967 117.119C199.24 119.463 195.927 120.872 193.568 120.267C191.21 119.661 190.698 117.269 192.425 114.925C194.152 112.58 197.465 111.171 199.824 111.777C202.166 112.378 202.69 114.743 200.998 117.076" fill="#030000" fill-opacity="0.15"/>
<path d="M200.967 117.119C199.24 119.463 195.927 120.872 193.568 120.267C191.21 119.661 190.698 117.269 192.425 114.925C194.152 112.58 197.465 111.171 199.824 111.777C202.166 112.378 202.69 114.743 200.998 117.076" stroke="#090000" stroke-opacity="0.15" stroke-width="1.47825" stroke-linecap="round"/>
<path d="M200.918 128.418C199.676 131.331 196.303 133.585 193.383 133.452C190.463 133.318 189.102 130.848 190.344 127.934C191.585 125.02 194.959 122.767 197.879 122.9C200.778 123.033 202.144 125.471 200.94 128.365" fill="#060000" fill-opacity="0.15"/>
<path d="M200.918 128.418C199.676 131.331 196.303 133.585 193.383 133.452C190.463 133.318 189.102 130.848 190.344 127.934C191.585 125.02 194.959 122.767 197.879 122.9C200.778 123.033 202.144 125.471 200.94 128.365" stroke="#090000" stroke-opacity="0.15" stroke-width="1.56196" stroke-linecap="round"/>
<path d="M199.608 133.928C200.786 130.827 203.677 128.582 206.064 128.913C208.452 129.245 209.432 132.027 208.254 135.128C207.076 138.229 204.186 140.473 201.798 140.142C199.41 139.811 198.43 137.028 199.608 133.928Z" fill="#030000" fill-opacity="0.15" stroke="#090000" stroke-opacity="0.15" stroke-width="1.43505" stroke-linecap="round"/>
<path d="M219.128 130.187C219.683 132.919 218.286 136.486 216.009 138.155C213.731 139.823 211.435 138.962 210.88 136.23C210.325 133.498 211.721 129.931 213.999 128.262C216.26 126.605 218.544 127.442 219.117 130.138" fill="#090000" fill-opacity="0.15"/>
<path d="M219.128 130.187C219.683 132.919 218.286 136.486 216.009 138.155C213.731 139.823 211.435 138.962 210.88 136.23C210.325 133.498 211.721 129.931 213.999 128.262C216.26 126.605 218.544 127.442 219.117 130.138" stroke="#090000" stroke-opacity="0.15" stroke-width="1.38114" stroke-linecap="round"/>
<path d="M220.926 125.55C222.409 125.184 224.073 123.168 224.168 121.421C224.383 117.43 220.754 113.964 217.82 111.251C214.683 108.349 210.642 104.509 206.448 105.333C205.159 105.586 204.284 107.083 203.899 108.338C203.31 110.257 204.402 112.323 204.548 114.325C204.678 116.097 203.99 118.048 204.752 119.653C205.866 121.999 208.171 123.875 210.596 124.804C211.853 125.286 213.292 124.754 214.636 124.844C216.625 124.976 218.578 125.545 220.572 125.581C220.69 125.583 220.926 125.55 220.926 125.55L220.926 125.55Z" fill="black" fill-opacity="0.15" stroke="black" stroke-opacity="0.15" stroke-width="0.89702"/>
<path d="M246.92 110.152C245.193 112.496 241.88 113.906 239.522 113.3C237.163 112.694 236.651 110.302 238.378 107.958C240.105 105.614 243.418 104.204 245.777 104.81C248.119 105.412 248.643 107.776 246.951 110.109" fill="#030000" fill-opacity="0.15"/>
<path d="M246.92 110.152C245.193 112.496 241.88 113.906 239.522 113.3C237.163 112.694 236.651 110.302 238.378 107.958C240.105 105.614 243.418 104.204 245.777 104.81C248.119 105.412 248.643 107.776 246.951 110.109" stroke="#090000" stroke-opacity="0.15" stroke-width="1.47825" stroke-linecap="round"/>
<path d="M246.875 121.451C245.633 124.365 242.26 126.618 239.34 126.485C236.42 126.351 235.059 123.881 236.301 120.967C237.542 118.054 240.916 115.8 243.836 115.933C246.735 116.066 248.101 118.504 246.897 121.398" fill="#060000" fill-opacity="0.15"/>
<path d="M246.875 121.451C245.633 124.365 242.26 126.618 239.34 126.485C236.42 126.351 235.059 123.881 236.301 120.967C237.542 118.054 240.916 115.8 243.836 115.933C246.735 116.066 248.101 118.504 246.897 121.398" stroke="#090000" stroke-opacity="0.15" stroke-width="1.56196" stroke-linecap="round"/>
<path d="M245.561 126.959C246.739 123.858 249.63 121.613 252.018 121.945C254.405 122.276 255.386 125.058 254.207 128.159C253.029 131.26 250.139 133.505 247.751 133.173C245.364 132.842 244.383 130.06 245.561 126.959Z" fill="#030000" fill-opacity="0.15" stroke="#090000" stroke-opacity="0.15" stroke-width="1.43505" stroke-linecap="round"/>
<path d="M265.081 123.22C265.636 125.952 264.239 129.519 261.962 131.188C259.684 132.857 257.388 131.995 256.833 129.263C256.278 126.531 257.675 122.964 259.952 121.295C262.213 119.638 264.497 120.475 265.07 123.171" fill="#090000" fill-opacity="0.15"/>
<path d="M265.081 123.22C265.636 125.952 264.239 129.519 261.962 131.188C259.684 132.857 257.388 131.995 256.833 129.263C256.278 126.531 257.675 122.964 259.952 121.295C262.213 119.638 264.497 120.475 265.07 123.171" stroke="#090000" stroke-opacity="0.15" stroke-width="1.38114" stroke-linecap="round"/>
<path d="M266.879 118.584C268.362 118.218 270.026 116.202 270.121 114.456C270.336 110.464 266.707 106.998 263.773 104.285C260.636 101.384 256.595 97.5436 252.401 98.3675C251.112 98.6206 250.237 100.117 249.852 101.372C249.263 103.291 250.355 105.357 250.501 107.359C250.631 109.131 249.943 111.082 250.705 112.687C251.819 115.033 254.124 116.909 256.549 117.839C257.806 118.321 259.245 117.788 260.589 117.878C262.579 118.011 264.532 118.579 266.525 118.615C266.644 118.617 266.879 118.584 266.879 118.584L266.879 118.584Z" fill="black" fill-opacity="0.15" stroke="black" stroke-opacity="0.15" stroke-width="0.89702"/>
<path d="M247.116 62.1236C245.388 64.4679 242.076 65.8773 239.717 65.2715C237.358 64.6657 236.846 62.2741 238.573 59.9297C240.301 57.5853 243.613 56.1759 245.972 56.7818C248.314 57.3833 248.838 59.7474 247.147 62.0812" fill="#030000" fill-opacity="0.15"/>
<path d="M247.116 62.1236C245.388 64.4679 242.076 65.8773 239.717 65.2715C237.358 64.6657 236.846 62.2741 238.573 59.9297C240.301 57.5853 243.613 56.1759 245.972 56.7818C248.314 57.3833 248.838 59.7474 247.147 62.0812" stroke="#090000" stroke-opacity="0.15" stroke-width="1.47825" stroke-linecap="round"/>
<path d="M247.066 73.4217C245.825 76.3353 242.451 78.5891 239.531 78.4556C236.611 78.322 235.251 75.8517 236.492 72.938C237.734 70.0244 241.107 67.7706 244.027 67.9041C246.927 68.0367 248.292 70.4747 247.088 73.369" fill="#060000" fill-opacity="0.15"/>
<path d="M247.066 73.4217C245.825 76.3353 242.451 78.5891 239.531 78.4556C236.611 78.322 235.251 75.8517 236.492 72.938C237.734 70.0244 241.107 67.7706 244.027 67.9041C246.927 68.0367 248.292 70.4747 247.088 73.369" stroke="#090000" stroke-opacity="0.15" stroke-width="1.56196" stroke-linecap="round"/>
<path d="M245.757 78.9325C246.935 75.8317 249.825 73.5869 252.213 73.9183C254.6 74.2498 255.581 77.032 254.403 80.1328C253.225 83.2335 250.334 85.4784 247.947 85.1469C245.559 84.8155 244.579 82.0332 245.757 78.9325Z" fill="#030000" fill-opacity="0.15" stroke="#090000" stroke-opacity="0.15" stroke-width="1.43505" stroke-linecap="round"/>
<path d="M265.276 75.1918C265.831 77.9235 264.435 81.4908 262.157 83.1595C259.88 84.8283 257.583 83.9666 257.028 81.2348C256.473 78.5031 257.87 74.9358 260.147 73.2671C262.409 71.61 264.692 72.4468 265.266 75.1426" fill="#090000" fill-opacity="0.15"/>
<path d="M265.276 75.1918C265.831 77.9235 264.435 81.4908 262.157 83.1595C259.88 84.8283 257.583 83.9666 257.028 81.2348C256.473 78.5031 257.87 74.9358 260.147 73.2671C262.409 71.61 264.692 72.4468 265.266 75.1426" stroke="#090000" stroke-opacity="0.15" stroke-width="1.38114" stroke-linecap="round"/>
<path d="M267.075 70.5548C268.558 70.1887 270.222 68.1732 270.316 66.4263C270.532 62.4348 266.902 58.9687 263.968 56.2554C260.831 53.3543 256.79 49.5143 252.596 50.3382C251.308 50.5913 250.433 52.0875 250.047 53.3429C249.458 55.2621 250.55 57.3275 250.697 59.3294C250.827 61.1021 250.139 63.0524 250.901 64.6578C252.014 67.0037 254.319 68.8797 256.744 69.8093C258.001 70.2914 259.44 69.759 260.784 69.8485C262.774 69.9813 264.727 70.5497 266.72 70.5855C266.839 70.5877 267.074 70.5545 267.074 70.5545L267.075 70.5548Z" fill="black" fill-opacity="0.15" stroke="black" stroke-opacity="0.15" stroke-width="0.89702"/>
<path d="M293.08 55.1392C291.353 57.4835 288.041 58.8929 285.682 58.2871C283.323 57.6813 282.811 55.2897 284.538 52.9453C286.266 50.6009 289.578 49.1916 291.937 49.7974C294.279 50.3989 294.803 52.763 293.111 55.0968" fill="#030000" fill-opacity="0.15"/>
<path d="M293.08 55.1392C291.353 57.4835 288.041 58.8929 285.682 58.2871C283.323 57.6813 282.811 55.2897 284.538 52.9453C286.266 50.6009 289.578 49.1916 291.937 49.7974C294.279 50.3989 294.803 52.763 293.111 55.0968" stroke="#090000" stroke-opacity="0.15" stroke-width="1.47825" stroke-linecap="round"/>
<path d="M293.031 66.4393C291.79 69.3529 288.416 71.6067 285.496 71.4732C282.576 71.3396 281.215 68.8693 282.457 65.9556C283.698 63.042 287.072 60.7882 289.992 60.9217C292.891 61.0543 294.257 63.4922 293.053 66.3866" fill="#060000" fill-opacity="0.15"/>
<path d="M293.031 66.4393C291.79 69.3529 288.416 71.6067 285.496 71.4732C282.576 71.3396 281.215 68.8693 282.457 65.9556C283.698 63.042 287.072 60.7882 289.992 60.9217C292.891 61.0543 294.257 63.4922 293.053 66.3866" stroke="#090000" stroke-opacity="0.15" stroke-width="1.56196" stroke-linecap="round"/>
<path d="M291.718 71.9461C292.896 68.8454 295.786 66.6005 298.174 66.932C300.561 67.2635 301.542 70.0457 300.364 73.1465C299.186 76.2472 296.295 78.4921 293.907 78.1606C291.52 77.8291 290.539 75.0469 291.718 71.9461Z" fill="#030000" fill-opacity="0.15" stroke="#090000" stroke-opacity="0.15" stroke-width="1.43505" stroke-linecap="round"/>
<path d="M311.241 68.2074C311.796 70.9391 310.399 74.5064 308.122 76.1752C305.845 77.8439 303.548 76.9822 302.993 74.2504C302.438 71.5187 303.835 67.9514 306.112 66.2827C308.374 64.6257 310.657 65.4624 311.231 68.1582" fill="#090000" fill-opacity="0.15"/>
<path d="M311.241 68.2074C311.796 70.9391 310.399 74.5064 308.122 76.1752C305.845 77.8439 303.548 76.9822 302.993 74.2504C302.438 71.5187 303.835 67.9514 306.112 66.2827C308.374 64.6257 310.657 65.4624 311.231 68.1582" stroke="#090000" stroke-opacity="0.15" stroke-width="1.38114" stroke-linecap="round"/>
<path d="M313.039 63.5714C314.522 63.2053 316.187 61.1898 316.281 59.4429C316.497 55.4514 312.867 51.9853 309.933 49.272C306.796 46.3709 302.755 42.5309 298.561 43.3548C297.272 43.6079 296.397 45.1041 296.012 46.3595C295.423 48.2787 296.515 50.3441 296.662 52.346C296.791 54.1187 296.103 56.069 296.865 57.6745C297.979 60.0203 300.284 61.8963 302.709 62.8259C303.966 63.308 305.405 62.7756 306.749 62.8651C308.739 62.9979 310.692 63.5663 312.685 63.6021C312.804 63.6043 313.039 63.5711 313.039 63.5711L313.039 63.5714Z" fill="black" fill-opacity="0.15" stroke="black" stroke-opacity="0.15" stroke-width="0.89702"/>
<path d="M293.276 7.11183C291.548 9.4562 288.236 10.8656 285.877 10.2598C283.518 9.65395 283.006 7.26238 284.734 4.91797C286.461 2.5736 289.773 1.16421 292.132 1.77005C294.474 2.3716 294.998 4.73567 293.307 7.06945" fill="#030000" fill-opacity="0.15"/>
<path d="M293.276 7.11183C291.548 9.4562 288.236 10.8656 285.877 10.2598C283.518 9.65395 283.006 7.26238 284.734 4.91797C286.461 2.5736 289.773 1.16421 292.132 1.77005C294.474 2.3716 294.998 4.73567 293.307 7.06945" stroke="#090000" stroke-opacity="0.15" stroke-width="1.47825" stroke-linecap="round"/>
<path d="M293.226 18.41C291.985 21.3236 288.611 23.5774 285.691 23.4439C282.771 23.3103 281.411 20.84 282.652 17.9263C283.894 15.0127 287.267 12.7589 290.187 12.8924C293.087 13.025 294.452 15.4629 293.249 18.3573" fill="#060000" fill-opacity="0.15"/>
<path d="M293.226 18.41C291.985 21.3236 288.611 23.5774 285.691 23.4439C282.771 23.3103 281.411 20.84 282.652 17.9263C283.894 15.0127 287.267 12.7589 290.187 12.8924C293.087 13.025 294.452 15.4629 293.249 18.3573" stroke="#090000" stroke-opacity="0.15" stroke-width="1.56196" stroke-linecap="round"/>
<path d="M291.917 23.9198C293.095 20.819 295.985 18.5742 298.373 18.9056C300.761 19.2371 301.741 22.0193 300.563 25.1201C299.385 28.2208 296.494 30.4657 294.107 30.1342C291.719 29.8028 290.739 27.0205 291.917 23.9198Z" fill="#030000" fill-opacity="0.15" stroke="#090000" stroke-opacity="0.15" stroke-width="1.43505" stroke-linecap="round"/>
<path d="M311.436 20.1791C311.991 22.9108 310.595 26.4781 308.317 28.1468C306.04 29.8156 303.744 28.9539 303.189 26.2221C302.634 23.4904 304.03 19.9231 306.308 18.2544C308.569 16.5974 310.852 17.4341 311.426 20.1299" fill="#090000" fill-opacity="0.15"/>
<path d="M311.436 20.1791C311.991 22.9108 310.595 26.4781 308.317 28.1468C306.04 29.8156 303.744 28.9539 303.189 26.2221C302.634 23.4904 304.03 19.9231 306.308 18.2544C308.569 16.5974 310.852 17.4341 311.426 20.1299" stroke="#090000" stroke-opacity="0.15" stroke-width="1.38114" stroke-linecap="round"/>
<path d="M313.235 15.5431C314.718 15.177 316.382 13.1615 316.476 11.4146C316.692 7.4231 313.063 3.95698 310.129 1.24366C306.991 -1.65746 302.951 -5.49737 298.756 -4.67354C297.468 -4.42044 296.593 -2.92424 296.208 -1.66878C295.619 0.250422 296.71 2.31581 296.857 4.31769C296.987 6.09039 296.299 8.04069 297.061 9.64613C298.174 11.992 300.479 13.868 302.904 14.7976C304.161 15.2796 305.601 14.7473 306.944 14.8368C308.934 14.9696 310.887 15.538 312.881 15.5738C312.999 15.5759 313.235 15.5428 313.235 15.5428L313.235 15.5431Z" fill="black" fill-opacity="0.15" stroke="black" stroke-opacity="0.15" stroke-width="0.89702"/>
</g>
<path d="M357.714 127C363.714 126.999 368 128.645 368 134.744V146.172H347V140.568H339.429L339.5 150.995H359C365 150.995 368 153.358 368 159.857C368 166.358 367.999 179.063 368 184.971C368 190.88 365 190.88 359 190.88H351.5C351.5 190.88 338.017 191 331.428 191C324.839 191 320 190.882 320 184.973V169.707H339.5V177.585H347V165.344H330.285C322.485 165.344 320 161.631 320 155.426V134.744C320 126.766 326.271 127.001 332.571 127.001H344C344 127.001 351.714 127.001 357.714 127Z" fill="white"/>
<path d="M357.714 127C363.714 126.999 368 128.645 368 134.744V146.172H347V140.568H339.429L339.5 150.995H359C365 150.995 368 153.358 368 159.857C368 166.358 367.999 179.063 368 184.971C368 190.88 365 190.88 359 190.88H351.5C351.5 190.88 338.017 191 331.428 191C324.839 191 320 190.882 320 184.973V169.707H339.5V177.585H347V165.344H330.285C322.485 165.344 320 161.631 320 155.426V134.744C320 126.766 326.271 127.001 332.571 127.001H344C344 127.001 351.714 127.001 357.714 127Z" stroke="white"/>
<path d="M307.026 127C313.521 127 317 131.975 317 137.402V181.276C317 187.155 312.129 191 307.258 191H281.974C275.711 191 272 186.025 272 181.276V137.402C272 131.749 275.711 127 281.974 127H307.026ZM292.18 143.057V175.17H297.052V143.057H292.18Z" fill="white"/>
<path d="M307.026 127C313.521 127 317 131.975 317 137.402V181.276C317 187.155 312.129 191 307.258 191H281.974C275.711 191 272 186.025 272 181.276V137.402C272 131.749 275.711 127 281.974 127H307.026ZM292.18 143.057V175.17H297.052V143.057H292.18Z" stroke="white"/>
<path d="M217.302 127V130.914C220.37 128.382 224.091 127 230.229 127C236.367 127 241.853 126.896 241.853 131.73V131.905C241.853 131.905 245.393 127.001 251.475 127.001H257.513C262.01 127.001 269 131.906 269 136.51V191H247.754V142.654H242.797V191H222.259V142.654H217.302V191H197V127H217.302Z" fill="white"/>
<path d="M217.302 127V130.914C220.37 128.382 224.091 127 230.229 127C236.367 127 241.853 126.896 241.853 131.73V131.905C241.853 131.905 245.393 127.001 251.475 127.001H257.513C262.01 127.001 269 131.906 269 136.51V191H247.754V142.654H242.797V191H222.259V142.654H217.302V191H197V127H217.302Z" stroke="white"/>
<path d="M183.804 127C188.546 127 194 130.466 194 136.936V191H158.196C152.742 191 148 186.841 148 181.065V160.733C148 155.419 152.505 150.798 158.196 150.798H173.371V142.711H168.392V146.87H148V136.936C148 132.084 151.794 127 158.196 127H183.804ZM168.629 166.972V175.058H173.608V166.972H168.629Z" fill="white"/>
<path d="M183.804 127C188.546 127 194 130.466 194 136.936V191H158.196C152.742 191 148 186.841 148 181.065V160.733C148 155.419 152.505 150.798 158.196 150.798H173.371V142.711H168.392V146.87H148V136.936C148 132.084 151.794 127 158.196 127H183.804ZM168.629 166.972V175.058H173.608V166.972H168.629Z" stroke="white"/>
<path d="M134.714 127C140.714 126.999 145 128.652 145 134.776V146.253H124V140.626H116.429L116.5 151.097H136C142 151.097 145 153.469 145 159.996C145 166.524 144.999 179.283 145 185.216C145 191.15 142.131 191 136.131 191H108.538C101.949 191 97.0001 191.152 97 185.218V169.887H116.5V177.799H124V165.506H107.285C99.4854 165.506 97 161.777 97 155.546V134.776C97 126.765 103.271 127.001 109.571 127.001H121C121 127.001 128.714 127.001 134.714 127Z" fill="white"/>
<path d="M134.714 127C140.714 126.999 145 128.652 145 134.776V146.253H124V140.626H116.429L116.5 151.097H136C142 151.097 145 153.469 145 159.996C145 166.524 144.999 179.283 145 185.216C145 191.15 142.131 191 136.131 191H108.538C101.949 191 97.0001 191.152 97 185.218V169.887H116.5V177.799H124V165.506H107.285C99.4854 165.506 97 161.777 97 155.546V134.776C97 126.765 103.271 127.001 109.571 127.001H121C121 127.001 128.714 127.001 134.714 127Z" stroke="white"/>
<path d="M83.8037 127C88.546 127 94 130.466 94 136.936V191H58.1963C52.7428 191 48.0001 186.841 48 181.065V160.733C48 155.419 52.5056 150.798 58.1963 150.798H73.3711V142.711H68.3916V146.87H48V136.936C48 132.084 51.7942 127 58.1963 127H83.8037ZM68.6289 166.972V175.058H73.6084V166.972H68.6289Z" fill="white"/>
<path d="M83.8037 127C88.546 127 94 130.466 94 136.936V191H58.1963C52.7428 191 48.0001 186.841 48 181.065V160.733C48 155.419 52.5056 150.798 58.1963 150.798H73.3711V142.711H68.3916V146.87H48V136.936C48 132.084 51.7942 127 58.1963 127H83.8037ZM68.6289 166.972V175.058H73.6084V166.972H68.6289Z" stroke="white"/>
<path d="M34.875 127C39.3749 127 44.9997 132.653 45 137.402V153.809H25.6221V143.057H19.5752V175.169H25.6221V165.444H45C45 165.444 45 176.3 45 180.823C44.9996 185.346 39.3749 191 34.875 191H9.6748C3.59992 191 0 186.024 0 181.275V137.402C0.000172729 131.749 3.60007 127 9.6748 127C9.6748 127 30.375 127 34.875 127Z" fill="white"/>
<path d="M34.875 127C39.3749 127 44.9997 132.653 45 137.402V153.809H25.6221V143.057H19.5752V175.169H25.6221V165.444H45C45 165.444 45 176.3 45 180.823C44.9996 185.346 39.3749 191 34.875 191H9.6748C3.59992 191 0 186.024 0 181.275V137.402C0.000172729 131.749 3.60007 127 9.6748 127C9.6748 127 30.375 127 34.875 127Z" stroke="white"/>
<path d="M181.714 59.5C187.714 59.4993 192 61.1518 192 67.2764V80H171V74.5H163.429L163.5 83.5967H183C189 83.5967 192 85.9686 192 92.4961C192 99.0235 191.999 111.782 192 117.716C192 123.65 189.131 123.5 183.131 123.5H155.538C148.949 123.5 144 123.651 144 117.717V102.387H163.5V110.298H171V98.0059H154.285C146.485 98.0058 144 94.2767 144 88.0459V67.2764C144 59.2649 150.271 59.501 156.571 59.501H168C168 59.501 175.714 59.5007 181.714 59.5Z" fill="white"/>
<path d="M181.714 59.5C187.714 59.4993 192 61.1518 192 67.2764V80H171V74.5H163.429L163.5 83.5967H183C189 83.5967 192 85.9686 192 92.4961C192 99.0235 191.999 111.782 192 117.716C192 123.65 189.131 123.5 183.131 123.5H155.538C148.949 123.5 144 123.651 144 117.717V102.387H163.5V110.298H171V98.0059H154.285C146.485 98.0058 144 94.2767 144 88.0459V67.2764C144 59.2649 150.271 59.501 156.571 59.501H168C168 59.501 175.714 59.5007 181.714 59.5Z" stroke="white"/>
<path d="M131.247 59.5C137.598 59.5 141 64.475 141 69.9023V113.775C141 119.655 136.237 123.5 131.475 123.5H106.753C100.629 123.5 97 118.525 97 113.775V69.9023C97.0002 64.2489 100.629 59.5 106.753 59.5H131.247ZM116.731 75.5566V107.67H121.494V75.5566H116.731Z" fill="white"/>
<path d="M131.247 59.5C137.598 59.5 141 64.475 141 69.9023V113.775C141 119.655 136.237 123.5 131.475 123.5H106.753C100.629 123.5 97 118.525 97 113.775V69.9023C97.0002 64.2489 100.629 59.5 106.753 59.5H131.247ZM116.731 75.5566V107.67H121.494V75.5566H116.731Z" stroke="white"/>
<path d="M69.5049 59.5V63.4141C72.4533 60.8817 78.1236 59.5 84.0205 59.5C89.9174 59.5 93.7734 64.5649 93.7734 69.3994H94V123.5H74.2676V75.1543H69.5049V123.5H50V59.5H69.5049Z" fill="white"/>
<path d="M69.5049 59.5V63.4141C72.4533 60.8817 78.1236 59.5 84.0205 59.5C89.9174 59.5 93.7734 64.5649 93.7734 69.3994H94V123.5H74.2676V75.1543H69.5049V123.5H50V59.5H69.5049Z" stroke="white"/>
<defs>
<linearGradient id="paint0_linear_42_2" x1="185.084" y1="0" x2="185.084" y2="316.394" gradientUnits="userSpaceOnUse">
<stop stop-color="#000DFF"/>
<stop offset="1" stop-color="#FF01AA"/>
</linearGradient>
<linearGradient id="paint1_linear_42_2" x1="185.084" y1="0" x2="185.084" y2="316.394" gradientUnits="userSpaceOnUse">
<stop stop-color="#000DFF"/>
<stop offset="1" stop-color="#FF01AA"/>
</linearGradient>
</defs>
</svg>
