<svg width="369" height="290" viewBox="0 0 369 290" fill="none" xmlns="http://www.w3.org/2000/svg">
<path d="M72.1784 0H156.068L183.139 24.0257L210.211 0H302.253L368.918 61.5869L301.578 144.154L183.139 290L68.1177 144.154L0.75 61.5869L72.1784 0Z" fill="black" fill-opacity="0.01"/>
<path d="M358.801 150.875C352.8 150.875 339.301 150.875 339.301 150.875L339.23 140.449H346.801V146.052H367.801C367.801 146.052 367.801 140.723 367.801 134.624C367.801 128.525 363.515 126.879 357.515 126.88C351.515 126.881 343.801 126.881 343.801 126.881C343.801 126.881 338.672 126.881 332.372 126.881C326.072 126.881 319.801 126.646 319.801 134.624C319.801 142.601 319.801 154.715 319.801 155.306C319.801 161.511 322.286 165.224 330.086 165.224H346.801V177.465H339.301V169.587H319.801C319.801 169.587 319.801 178.943 319.801 184.853C319.801 190.762 324.64 190.88 331.229 190.88C337.818 190.88 351.301 190.76 351.301 190.76C351.301 190.76 352.801 190.76 358.801 190.76C364.801 190.76 367.801 190.76 367.801 184.851C367.8 178.942 367.801 166.237 367.801 159.737C367.801 153.237 364.801 150.875 358.801 150.875Z" fill="white"/>
<path d="M316.602 137.403C316.602 131.975 313.123 127 306.628 127H281.576C275.313 127 271.602 131.749 271.602 137.403V181.276C271.602 186.024 275.313 191 281.576 191C287.839 191 306.628 191 306.86 191C311.731 191 316.602 187.155 316.602 181.276V137.403ZM296.654 175.17H291.782V143.057H296.654V175.17Z" fill="white"/>
<path d="M241.103 131.73C241.103 126.896 235.617 127 229.479 127C223.341 127 219.621 128.381 216.552 130.914V127H196.25V191H216.552V142.655H221.509V191H242.047V142.655H247.004V191H268.25C268.25 191 268.25 141.114 268.25 136.51C268.25 131.906 261.26 127.001 256.762 127.001C252.264 127.001 256.806 127.001 250.725 127.001C244.643 127.001 241.103 131.906 241.103 131.906V131.73Z" fill="white"/>
<path d="M193.75 136.935C193.75 130.466 188.296 127 183.554 127H157.946C151.544 127 147.75 132.083 147.75 136.935V146.87H168.142V142.711H173.121V150.798C173.121 150.798 163.637 150.798 157.946 150.798C152.255 150.798 147.75 155.419 147.75 160.733V181.065C147.75 186.841 152.492 191 157.946 191H193.75V136.704V136.935ZM173.358 175.058H168.379V166.971H173.358V175.058Z" fill="white"/>
<path d="M135.75 151.096C129.749 151.096 116.25 151.096 116.25 151.096L116.179 140.626H123.75V146.253H144.75C144.75 146.253 144.75 140.901 144.75 134.776C144.75 128.652 140.464 126.999 134.464 127C128.464 127.001 120.75 127.001 120.75 127.001C120.75 127.001 115.621 127.001 109.321 127.001C103.021 127.001 96.75 126.765 96.75 134.776C96.75 142.788 96.75 154.952 96.75 155.546C96.75 161.777 99.2354 165.506 107.035 165.506H123.75V177.798H116.25V169.887H96.75C96.75 169.887 96.75 179.283 96.75 185.218C96.75 191.152 101.7 191 108.289 191C114.877 191 126.85 191 126.85 191C126.85 191 129.88 191 135.88 191C141.88 191 144.75 191.15 144.75 185.216C144.749 179.282 144.75 166.524 144.75 159.996C144.75 153.469 141.75 151.096 135.75 151.096Z" fill="white"/>
<path d="M93.75 136.935C93.75 130.466 88.2964 127 83.5541 127H57.9459C51.5438 127 47.75 132.083 47.75 136.935V146.87H68.1417V142.711H73.1211V150.798C73.1211 150.798 63.6366 150.798 57.9459 150.798C52.2552 150.798 47.75 155.419 47.75 160.733V181.065C47.75 186.841 52.4923 191 57.9459 191H93.75V136.704V136.935ZM73.3583 175.058H68.3789V166.971H73.3583V175.058Z" fill="white"/>
<path d="M25.6218 165.325V175.049H19.575V142.936H25.6218V153.689H45C45 153.689 45 142.032 45 137.283C45 132.534 39.375 126.88 34.875 126.88C30.375 126.88 9.67501 126.88 9.67501 126.88C3.60001 126.88 0 131.629 0 137.283V181.155C0 185.904 3.60001 190.88 9.67501 190.88C15.22 190.88 30.375 190.88 34.875 190.88C39.375 190.88 45 185.225 45 180.703C45 176.18 45 165.325 45 165.325H25.6218Z" fill="white"/>
<path d="M182.75 83.5962C176.749 83.5962 163.25 83.5962 163.25 83.5962L163.179 74.5H170.75V80H191.75C191.75 80 191.75 73.401 191.75 67.2764C191.75 61.1517 187.464 59.4993 181.464 59.5C175.464 59.5007 167.75 59.5007 167.75 59.5007C167.75 59.5007 162.621 59.5007 156.321 59.5007C150.021 59.5007 143.75 59.2649 143.75 67.2764C143.75 75.2878 143.75 87.4521 143.75 88.0455C143.75 94.2766 146.235 98.0062 154.035 98.0062H170.75V110.298H163.25V102.387H143.75C143.75 102.387 143.75 111.783 143.75 117.717C143.75 123.651 148.699 123.5 155.288 123.5C161.877 123.5 173.85 123.5 173.85 123.5C173.85 123.5 176.88 123.5 182.88 123.5C188.88 123.5 191.75 123.65 191.75 117.716C191.749 111.782 191.75 99.0234 191.75 92.4961C191.75 85.9686 188.75 83.5962 182.75 83.5962Z" fill="white"/>
<path d="M140.75 69.9028C140.75 64.4753 137.348 59.5 130.997 59.5H106.503C100.379 59.5 96.75 64.2491 96.75 69.9028V113.776C96.75 118.525 100.379 123.5 106.503 123.5C112.627 123.5 130.997 123.5 131.224 123.5C135.987 123.5 140.75 119.655 140.75 113.776V69.9028ZM121.244 107.67H116.482V75.5565H121.244V107.67Z" fill="white"/>
<path d="M93.1716 69.3992C93.1716 64.5648 89.3159 59.5 83.4191 59.5C77.5221 59.5 71.852 60.8813 68.9036 63.4137V59.5H49.3984V123.5H68.9036V75.1547H73.6665V123.5H93.3984V69.3992H93.1716Z" fill="white"/>
</svg>
